M48
; DRILL file {KiCad 9.0.1} date 2026-03-30T14:45:12-0700
; FORMAT={-:-/ absolute / inch / decimal}
; #@! TF.CreationDate,2026-03-30T14:45:12-07:00
; #@! TF.GenerationSoftware,Kicad,Pcbnew,9.0.1
; #@! TF.FileFunction,Plated,1,4,PTH
FMAT,2
INCH
; #@! TA.AperFunction,Plated,PTH,ViaDrill
T1C0.0250
; #@! TA.AperFunction,Plated,PTH,ComponentDrill
T2C0.0320
; #@! TA.AperFunction,Plated,PTH,ViaDrill
T3C0.0354
; #@! TA.AperFunction,Plated,PTH,ComponentDrill
T4C0.0394
; #@! TA.AperFunction,Plated,PTH,ComponentDrill
T5C0.0394
; #@! TA.AperFunction,Plated,PTH,ComponentDrill
T6C0.0400
; #@! TA.AperFunction,Plated,PTH,ComponentDrill
T7C0.0450
; #@! TA.AperFunction,Plated,PTH,ComponentDrill
T8C0.0550
; #@! TA.AperFunction,Plated,PTH,ComponentDrill
T9C0.0748
; #@! TA.AperFunction,Plated,PTH,ComponentDrill
T10C0.0787
; #@! TA.AperFunction,Plated,PTH,ComponentDrill
T11C0.1770
%
G90
G05
T1
X1.3Y-3.5
T2
X1.1Y-1.65
X1.2Y-1.65
X1.225Y-6.9
X1.225Y-7.4
X1.3Y-1.65
X1.3Y-6.6
X1.3Y-6.7
X1.325Y-6.9
X1.325Y-7.0
X1.4Y-7.7
X1.4Y-7.8
X1.4Y-7.9
X1.4Y-8.0
X1.7Y-7.7
X1.7Y-7.8
X1.7Y-7.9
X1.7Y-8.0
X1.725Y-1.9
X1.725Y-2.0
X1.725Y-2.1
X1.725Y-2.3
X1.725Y-2.4
X1.725Y-2.5
X1.725Y-2.65
X1.725Y-2.75
X1.725Y-2.85
X1.8Y-6.6
X1.8Y-6.7
X1.825Y-6.9
X1.825Y-7.0
X1.95Y-2.3
X2.0Y-1.8
X2.0Y-2.1
X2.0Y-2.2
X2.0Y-2.4
X2.0Y-3.0
X2.0Y-3.2
X2.0Y-3.8
X2.0Y-4.1
X2.0Y-4.2
X2.0Y-4.3
X2.0Y-5.2
X2.0Y-5.4
X2.0Y-6.2
X2.0Y-6.4
X2.0Y-7.2
X2.0Y-7.4
X2.0Y-8.2
X2.0Y-8.4
X2.0Y-9.2
X2.0Y-9.4
X2.1Y-1.7
X2.1Y-1.8
X2.1Y-2.1
X2.1Y-2.2
X2.1Y-2.4
X2.1Y-3.0
X2.1Y-3.2
X2.1Y-3.8
X2.1Y-5.2
X2.1Y-5.4
X2.1Y-6.2
X2.1Y-6.4
X2.1Y-7.2
X2.1Y-7.4
X2.1Y-8.2
X2.1Y-8.4
X2.1Y-9.2
X2.1Y-9.4
X2.2Y-1.7
X2.2Y-1.8
X2.2Y-2.1
X2.2Y-2.2
X2.2Y-2.4
X2.2Y-3.0
X2.2Y-3.2
X2.2Y-3.8
X2.2Y-5.2
X2.2Y-5.4
X2.2Y-6.2
X2.2Y-6.4
X2.2Y-7.2
X2.2Y-7.4
X2.2Y-8.2
X2.2Y-8.4
X2.2Y-9.2
X2.2Y-9.4
X2.2Y-6.6
X2.3Y-1.7
X2.3Y-1.8
X2.3Y-2.1
X2.3Y-2.4
X2.3Y-3.0
X2.3Y-3.2
X2.3Y-3.8
X2.3Y-5.2
X2.3Y-5.4
X2.3Y-6.2
X2.3Y-6.4
X2.3Y-7.2
X2.3Y-7.4
X2.3Y-8.2
X2.3Y-8.4
X2.3Y-9.2
X2.3Y-9.4
X2.4Y-1.8
X2.4Y-2.1
X2.4Y-2.2
X2.4Y-2.4
X2.4Y-3.0
X2.4Y-3.2
X2.4Y-3.8
X2.4Y-5.2
X2.4Y-5.4
X2.4Y-6.2
X2.4Y-6.4
X2.4Y-7.2
X2.4Y-7.4
X2.4Y-8.2
X2.4Y-8.4
X2.4Y-9.2
X2.4Y-9.4
X2.45Y-2.3
X2.5Y-1.625
X2.5Y-1.8
X2.5Y-2.1
X2.5Y-2.2
X2.5Y-2.4
X2.5Y-3.0
X2.5Y-3.2
X2.5Y-3.8
X2.5Y-5.2
X2.5Y-5.4
X2.5Y-6.2
X2.5Y-6.4
X2.5Y-7.2
X2.5Y-7.4
X2.5Y-8.2
X2.5Y-8.4
X2.5Y-9.2
X2.5Y-9.4
X2.6Y-1.625
X2.6Y-1.8
X2.6Y-2.1
X2.6Y-2.2
X2.6Y-2.4
X2.6Y-3.0
X2.6Y-3.2
X2.6Y-3.8
X2.6Y-4.1
X2.6Y-4.7
X2.6Y-5.2
X2.6Y-5.4
X2.6Y-6.2
X2.6Y-6.4
X2.6Y-7.2
X2.6Y-7.4
X2.6Y-8.2
X2.6Y-8.4
X2.6Y-9.2
X2.6Y-9.4
X2.7Y-1.625
X2.7Y-2.4
X2.7Y-3.0
X2.7Y-3.2
X2.7Y-3.8
X2.7Y-4.1
X2.7Y-4.7
X2.7Y-5.2
X2.7Y-5.4
X2.7Y-6.2
X2.7Y-6.4
X2.7Y-7.2
X2.7Y-7.4
X2.7Y-8.2
X2.7Y-8.4
X2.7Y-9.2
X2.7Y-9.4
X2.8Y-2.4
X2.8Y-3.0
X2.8Y-3.2
X2.8Y-3.8
X2.8Y-4.1
X2.8Y-4.7
X2.8Y-5.2
X2.8Y-5.4
X2.8Y-6.2
X2.8Y-6.4
X2.8Y-7.2
X2.8Y-7.4
X2.8Y-8.2
X2.8Y-8.4
X2.8Y-9.2
X2.8Y-9.4
X2.9Y-1.625
X2.9Y-2.2
X2.9Y-2.4
X2.9Y-3.0
X2.9Y-3.2
X2.9Y-3.8
X2.9Y-4.1
X2.9Y-4.7
X2.9Y-5.2
X2.9Y-5.4
X2.9Y-6.2
X2.9Y-6.4
X2.9Y-7.2
X2.9Y-7.4
X2.9Y-8.2
X2.9Y-8.4
X2.9Y-9.2
X2.9Y-9.4
X3.0Y-1.625
X3.0Y-1.8
X3.0Y-2.1
X3.0Y-2.4
X3.0Y-3.0
X3.0Y-3.2
X3.0Y-3.8
X3.0Y-4.1
X3.0Y-4.7
X3.0Y-5.2
X3.0Y-5.4
X3.0Y-6.2
X3.0Y-6.4
X3.0Y-7.2
X3.0Y-7.4
X3.0Y-8.2
X3.0Y-8.4
X3.0Y-9.2
X3.0Y-9.4
X3.0Y-6.6
X3.1Y-1.625
X3.1Y-1.8
X3.1Y-2.1
X3.1Y-2.4
X3.1Y-3.0
X3.1Y-3.2
X3.1Y-3.8
X3.1Y-4.1
X3.1Y-4.7
X3.1Y-5.2
X3.1Y-5.4
X3.1Y-6.2
X3.1Y-6.4
X3.1Y-7.2
X3.1Y-7.4
X3.1Y-8.2
X3.1Y-8.4
X3.1Y-9.2
X3.1Y-9.4
X3.2Y-1.8
X3.2Y-2.1
X3.2Y-2.4
X3.2Y-3.0
X3.2Y-3.2
X3.2Y-3.8
X3.2Y-4.1
X3.2Y-4.7
X3.2Y-5.2
X3.2Y-5.4
X3.2Y-6.2
X3.2Y-6.4
X3.2Y-7.2
X3.2Y-7.4
X3.2Y-8.2
X3.2Y-8.4
X3.2Y-9.2
X3.2Y-9.4
X3.3Y-1.8
X3.3Y-2.1
X3.3Y-2.4
X3.3Y-3.0
X3.3Y-3.2
X3.3Y-3.8
X3.3Y-4.1
X3.3Y-4.7
X3.3Y-5.2
X3.3Y-5.4
X3.3Y-6.2
X3.3Y-6.4
X3.3Y-7.2
X3.3Y-7.4
X3.3Y-8.2
X3.3Y-8.4
X3.3Y-9.2
X3.3Y-9.4
X3.4Y-1.8
X3.4Y-2.1
X3.4Y-2.2
X3.4Y-2.4
X3.4Y-3.0
X3.4Y-3.2
X3.4Y-3.8
X3.4Y-4.1
X3.4Y-4.7
X3.4Y-5.2
X3.4Y-5.4
X3.4Y-6.2
X3.4Y-6.4
X3.4Y-7.2
X3.4Y-7.4
X3.4Y-8.2
X3.4Y-8.4
X3.4Y-9.2
X3.4Y-9.4
X3.5Y-1.8
X3.5Y-2.1
X3.5Y-2.4
X3.5Y-3.0
X3.5Y-3.2
X3.5Y-3.8
X3.5Y-4.1
X3.5Y-4.7
X3.5Y-5.2
X3.5Y-5.4
X3.5Y-6.2
X3.5Y-6.4
X3.5Y-7.2
X3.5Y-7.4
X3.5Y-8.2
X3.5Y-8.4
X3.5Y-9.2
X3.5Y-9.4
X3.6Y-1.7
X3.6Y-1.8
X3.6Y-2.1
X3.6Y-2.2
X3.6Y-2.4
X3.6Y-3.0
X3.6Y-3.2
X3.6Y-3.8
X3.6Y-4.1
X3.6Y-4.7
X3.6Y-5.2
X3.6Y-5.4
X3.6Y-6.2
X3.6Y-6.4
X3.6Y-7.2
X3.6Y-7.4
X3.6Y-8.2
X3.6Y-8.4
X3.6Y-9.2
X3.6Y-9.4
X3.7Y-1.8
X3.7Y-2.1
X3.7Y-2.4
X3.7Y-3.0
X3.7Y-3.2
X3.7Y-3.8
X3.7Y-4.1
X3.7Y-4.7
X3.7Y-5.2
X3.7Y-5.4
X3.7Y-6.2
X3.7Y-6.4
X3.7Y-7.2
X3.7Y-7.4
X3.7Y-8.2
X3.7Y-8.4
X3.7Y-9.2
X3.7Y-9.4
X3.8Y-1.8
X3.8Y-2.1
X3.8Y-2.4
X3.8Y-3.0
X3.8Y-3.2
X3.8Y-3.8
X3.8Y-4.1
X3.8Y-4.7
X3.8Y-5.2
X3.8Y-5.4
X3.8Y-6.2
X3.8Y-6.4
X3.8Y-7.2
X3.8Y-7.4
X3.8Y-8.2
X3.8Y-8.4
X3.8Y-9.2
X3.8Y-9.4
X3.9Y-1.1
X3.9Y-1.8
X3.9Y-2.1
X3.9Y-2.4
X3.9Y-3.0
X3.9Y-3.2
X3.9Y-3.8
X3.9Y-4.1
X3.9Y-4.7
X3.9Y-5.2
X3.9Y-5.4
X3.9Y-6.2
X3.9Y-6.4
X3.9Y-7.2
X3.9Y-7.4
X3.9Y-8.2
X3.9Y-8.4
X3.9Y-9.2
X3.9Y-9.4
X4.0Y-5.2
X4.0Y-5.4
X4.0Y-6.2
X4.0Y-6.4
X4.0Y-7.2
X4.0Y-7.4
X4.0Y-8.2
X4.0Y-8.4
X4.0Y-9.2
X4.0Y-9.4
X4.1Y-1.7
X4.1Y-2.2
X4.1Y-5.2
X4.1Y-5.4
X4.1Y-6.2
X4.1Y-6.4
X4.1Y-7.2
X4.1Y-7.4
X4.1Y-8.2
X4.1Y-8.4
X4.1Y-9.2
X4.1Y-9.4
X4.15Y-1.5
X4.15Y-2.0
X4.2Y-5.2
X4.2Y-5.4
X4.2Y-6.2
X4.2Y-6.4
X4.2Y-7.2
X4.2Y-7.4
X4.2Y-8.2
X4.2Y-8.4
X4.2Y-9.2
X4.2Y-9.4
X4.3Y-1.8
X4.3Y-2.1
X4.3Y-2.4
X4.3Y-2.7
X4.3Y-3.0
X4.3Y-3.3
X4.3Y-3.7
X4.3Y-4.0
X4.3Y-4.4
X4.3Y-4.7
X4.3Y-5.2
X4.3Y-5.4
X4.3Y-6.2
X4.3Y-6.4
X4.3Y-7.2
X4.3Y-7.4
X4.3Y-8.2
X4.3Y-8.4
X4.3Y-9.2
X4.3Y-9.4
X4.4Y-1.1
X4.4Y-1.8
X4.4Y-2.1
X4.4Y-2.4
X4.4Y-2.7
X4.4Y-3.0
X4.4Y-3.3
X4.4Y-3.7
X4.4Y-4.0
X4.4Y-4.4
X4.4Y-4.7
X4.4Y-5.2
X4.4Y-5.4
X4.4Y-6.2
X4.4Y-6.4
X4.4Y-7.2
X4.4Y-7.4
X4.4Y-8.2
X4.4Y-8.4
X4.4Y-9.2
X4.4Y-9.4
X4.5Y-1.1
X4.5Y-1.8
X4.5Y-2.1
X4.5Y-2.225
X4.5Y-2.4
X4.5Y-2.7
X4.5Y-3.0
X4.5Y-3.3
X4.5Y-3.7
X4.5Y-4.0
X4.5Y-4.4
X4.5Y-4.7
X4.5Y-5.2
X4.5Y-5.4
X4.5Y-6.2
X4.5Y-6.4
X4.5Y-7.2
X4.5Y-7.4
X4.5Y-8.2
X4.5Y-8.4
X4.5Y-9.2
X4.5Y-9.4
X4.6Y-1.8
X4.6Y-2.1
X4.6Y-2.4
X4.6Y-2.7
X4.6Y-3.0
X4.6Y-3.3
X4.6Y-3.7
X4.6Y-4.0
X4.6Y-4.4
X4.6Y-4.7
X4.6Y-5.2
X4.6Y-5.4
X4.6Y-6.2
X4.6Y-6.4
X4.6Y-7.2
X4.6Y-7.4
X4.6Y-8.2
X4.6Y-8.4
X4.6Y-9.2
X4.6Y-9.4
X4.7Y-1.8
X4.7Y-2.1
X4.7Y-2.4
X4.7Y-2.7
X4.7Y-3.0
X4.7Y-3.3
X4.7Y-3.7
X4.7Y-4.0
X4.7Y-4.4
X4.7Y-4.7
X4.7Y-5.2
X4.7Y-5.4
X4.7Y-6.2
X4.7Y-6.4
X4.7Y-7.2
X4.7Y-7.4
X4.7Y-8.2
X4.7Y-8.4
X4.7Y-9.2
X4.7Y-9.4
X4.8Y-1.275
X4.8Y-1.475
X4.8Y-1.8
X4.8Y-2.1
X4.8Y-2.4
X4.8Y-2.7
X4.8Y-3.0
X4.8Y-3.3
X4.8Y-3.7
X4.8Y-4.0
X4.8Y-4.4
X4.8Y-4.7
X4.8Y-5.2
X4.8Y-5.4
X4.8Y-6.2
X4.8Y-6.4
X4.8Y-7.2
X4.8Y-7.4
X4.8Y-8.2
X4.8Y-8.4
X4.8Y-9.2
X4.8Y-9.4
X4.9Y-1.8
X4.9Y-2.1
X4.9Y-2.4
X4.9Y-2.7
X4.9Y-3.0
X4.9Y-3.3
X4.9Y-3.7
X4.9Y-4.0
X4.9Y-4.4
X4.9Y-4.7
X4.9Y-5.2
X4.9Y-5.4
X4.9Y-6.2
X4.9Y-6.4
X4.9Y-7.2
X4.9Y-7.4
X4.9Y-8.2
X4.9Y-8.4
X4.9Y-9.2
X4.9Y-9.4
X5.0Y-1.1
X5.0Y-1.8
X5.0Y-2.1
X5.0Y-2.225
X5.0Y-2.4
X5.0Y-2.7
X5.0Y-3.0
X5.0Y-3.3
X5.0Y-3.7
X5.0Y-4.0
X5.0Y-4.4
X5.0Y-4.7
X5.0Y-4.9
X5.0Y-5.2
X5.0Y-5.4
X5.0Y-6.2
X5.0Y-6.4
X5.0Y-7.2
X5.0Y-7.4
X5.0Y-8.2
X5.0Y-8.4
X5.0Y-9.2
X5.0Y-9.4
X5.1Y-1.8
X5.1Y-2.1
X5.1Y-2.4
X5.1Y-2.7
X5.1Y-3.0
X5.1Y-3.3
X5.1Y-3.7
X5.1Y-4.0
X5.1Y-4.4
X5.1Y-4.7
X5.1Y-4.9
X5.2Y-1.175
X5.2Y-1.575
X5.2Y-1.725
X5.2Y-2.225
X5.2Y-2.4
X5.2Y-2.7
X5.2Y-3.0
X5.2Y-3.3
X5.2Y-3.7
X5.2Y-4.0
X5.2Y-4.4
X5.2Y-4.7
X5.2Y-4.9
X5.3Y-2.1
X5.3Y-2.6
X5.35Y-6.8
X5.35Y-7.3
X5.6Y-8.7
X5.6Y-9.0
X5.6Y-2.2
X5.6Y-2.5
X5.6Y-2.7
X5.6Y-3.0
X5.6Y-3.2
X5.6Y-3.5
X5.6Y-3.7
X5.6Y-4.0
X5.6Y-4.2
X5.6Y-4.5
X5.6Y-4.7
X5.6Y-5.0
X5.6Y-5.2
X5.6Y-5.5
X5.6Y-5.7
X5.6Y-6.0
X5.6Y-6.2
X5.6Y-6.5
X5.6Y-6.7
X5.6Y-7.0
X5.6Y-7.2
X5.6Y-7.5
X5.6Y-7.7
X5.6Y-8.0
X5.6Y-8.3
X5.6Y-8.6
X5.6Y-1.7
X5.6Y-2.0
X5.7Y-8.7
X5.7Y-9.0
X5.7Y-2.2
X5.7Y-2.5
X5.7Y-2.7
X5.7Y-3.0
X5.7Y-3.2
X5.7Y-3.5
X5.7Y-3.7
X5.7Y-4.0
X5.7Y-4.2
X5.7Y-4.5
X5.7Y-4.7
X5.7Y-5.0
X5.7Y-5.2
X5.7Y-5.5
X5.7Y-5.7
X5.7Y-6.0
X5.7Y-6.2
X5.7Y-6.5
X5.7Y-6.7
X5.7Y-7.0
X5.7Y-7.2
X5.7Y-7.5
X5.7Y-7.7
X5.7Y-8.0
X5.7Y-8.3
X5.7Y-8.6
X5.7Y-1.7
X5.7Y-2.0
X5.8Y-8.7
X5.8Y-9.0
X5.8Y-2.2
X5.8Y-2.5
X5.8Y-2.7
X5.8Y-3.0
X5.8Y-3.2
X5.8Y-3.5
X5.8Y-3.7
X5.8Y-4.0
X5.8Y-4.2
X5.8Y-4.5
X5.8Y-4.7
X5.8Y-5.0
X5.8Y-5.2
X5.8Y-5.5
X5.8Y-5.7
X5.8Y-6.0
X5.8Y-6.2
X5.8Y-6.5
X5.8Y-6.7
X5.8Y-7.0
X5.8Y-7.2
X5.8Y-7.5
X5.8Y-7.7
X5.8Y-8.0
X5.8Y-8.3
X5.8Y-8.6
X5.8Y-1.1
X5.8Y-1.4
X5.8Y-1.7
X5.8Y-2.0
X5.9Y-8.7
X5.9Y-9.0
X5.9Y-2.2
X5.9Y-2.5
X5.9Y-2.7
X5.9Y-3.0
X5.9Y-3.2
X5.9Y-3.5
X5.9Y-3.7
X5.9Y-4.0
X5.9Y-4.2
X5.9Y-4.5
X5.9Y-4.7
X5.9Y-5.0
X5.9Y-5.2
X5.9Y-5.5
X5.9Y-5.7
X5.9Y-6.0
X5.9Y-6.2
X5.9Y-6.5
X5.9Y-6.7
X5.9Y-7.0
X5.9Y-7.2
X5.9Y-7.5
X5.9Y-7.7
X5.9Y-8.0
X5.9Y-8.3
X5.9Y-8.6
X5.9Y-1.1
X5.9Y-1.4
X5.9Y-1.7
X5.9Y-2.0
X6.0Y-8.7
X6.0Y-9.0
X6.0Y-2.2
X6.0Y-2.5
X6.0Y-2.7
X6.0Y-3.0
X6.0Y-3.2
X6.0Y-3.5
X6.0Y-3.7
X6.0Y-4.0
X6.0Y-4.2
X6.0Y-4.5
X6.0Y-4.7
X6.0Y-5.0
X6.0Y-5.2
X6.0Y-5.5
X6.0Y-5.7
X6.0Y-6.0
X6.0Y-6.2
X6.0Y-6.5
X6.0Y-6.7
X6.0Y-7.0
X6.0Y-7.2
X6.0Y-7.5
X6.0Y-7.7
X6.0Y-8.0
X6.0Y-8.3
X6.0Y-8.6
X6.0Y-1.1
X6.0Y-1.4
X6.0Y-1.7
X6.0Y-2.0
X6.1Y-8.7
X6.1Y-9.0
X6.1Y-2.2
X6.1Y-2.5
X6.1Y-2.7
X6.1Y-3.0
X6.1Y-3.2
X6.1Y-3.5
X6.1Y-3.7
X6.1Y-4.0
X6.1Y-4.2
X6.1Y-4.5
X6.1Y-4.7
X6.1Y-5.0
X6.1Y-5.2
X6.1Y-5.5
X6.1Y-5.7
X6.1Y-6.0
X6.1Y-6.2
X6.1Y-6.5
X6.1Y-6.7
X6.1Y-7.0
X6.1Y-7.2
X6.1Y-7.5
X6.1Y-7.7
X6.1Y-8.0
X6.1Y-8.3
X6.1Y-8.6
X6.1Y-1.1
X6.1Y-1.4
X6.1Y-1.7
X6.1Y-2.0
X6.2Y-8.7
X6.2Y-9.0
X6.2Y-2.2
X6.2Y-2.5
X6.2Y-2.7
X6.2Y-3.0
X6.2Y-3.2
X6.2Y-3.5
X6.2Y-3.7
X6.2Y-4.0
X6.2Y-4.2
X6.2Y-4.5
X6.2Y-4.7
X6.2Y-5.0
X6.2Y-5.2
X6.2Y-5.5
X6.2Y-5.7
X6.2Y-6.0
X6.2Y-6.2
X6.2Y-6.5
X6.2Y-6.7
X6.2Y-7.0
X6.2Y-7.2
X6.2Y-7.5
X6.2Y-7.7
X6.2Y-8.0
X6.2Y-8.3
X6.2Y-8.6
X6.2Y-1.1
X6.2Y-1.4
X6.2Y-1.7
X6.2Y-2.0
X6.3Y-8.7
X6.3Y-9.0
X6.3Y-2.2
X6.3Y-2.5
X6.3Y-2.7
X6.3Y-3.0
X6.3Y-3.2
X6.3Y-3.5
X6.3Y-3.7
X6.3Y-4.0
X6.3Y-4.2
X6.3Y-4.5
X6.3Y-4.7
X6.3Y-5.0
X6.3Y-5.2
X6.3Y-5.5
X6.3Y-5.7
X6.3Y-6.0
X6.3Y-6.2
X6.3Y-6.5
X6.3Y-6.7
X6.3Y-7.0
X6.3Y-7.2
X6.3Y-7.5
X6.3Y-7.7
X6.3Y-8.0
X6.3Y-8.3
X6.3Y-8.6
X6.3Y-1.1
X6.3Y-1.4
X6.3Y-1.7
X6.3Y-2.0
X6.4Y-8.7
X6.4Y-9.0
X6.4Y-2.2
X6.4Y-2.5
X6.4Y-2.7
X6.4Y-3.0
X6.4Y-5.2
X6.4Y-5.5
X6.4Y-5.7
X6.4Y-6.0
X6.4Y-6.2
X6.4Y-6.5
X6.4Y-6.7
X6.4Y-7.0
X6.4Y-7.2
X6.4Y-7.5
X6.4Y-7.7
X6.4Y-8.0
X6.4Y-8.3
X6.4Y-8.6
X6.4Y-1.1
X6.4Y-1.4
X6.5Y-8.7
X6.5Y-9.0
X6.5Y-2.2
X6.5Y-2.5
X6.5Y-2.7
X6.5Y-3.0
X6.5Y-5.2
X6.5Y-5.5
X6.5Y-5.7
X6.5Y-6.0
X6.5Y-6.2
X6.5Y-6.5
X6.5Y-6.7
X6.5Y-7.0
X6.5Y-7.2
X6.5Y-7.5
X6.5Y-7.7
X6.5Y-8.0
X6.5Y-8.3
X6.5Y-8.6
X6.5Y-1.1
X6.5Y-1.4
X6.8Y-1.6
X6.8Y-2.2
X6.8Y-2.4
X6.8Y-3.0
X6.8Y-6.9
X6.8Y-7.0
X6.8Y-7.1
X6.8Y-7.2
X6.8Y-7.3
X6.8Y-7.4
X6.8Y-7.5
X6.8Y-7.9
X6.8Y-8.0
X6.8Y-8.1
X6.8Y-8.2
X6.8Y-8.3
X6.8Y-8.4
X6.8Y-8.5
X6.9Y-1.6
X6.9Y-2.2
X6.9Y-2.4
X6.9Y-3.0
X6.9Y-6.5
X7.0Y-1.6
X7.0Y-2.2
X7.0Y-2.4
X7.0Y-3.0
X7.0Y-5.2
X7.0Y-6.5
X7.1Y-1.6
X7.1Y-2.2
X7.1Y-2.4
X7.1Y-3.0
X7.1Y-5.2
X7.1Y-6.5
X7.1Y-6.9
X7.1Y-7.0
X7.1Y-7.1
X7.1Y-7.2
X7.1Y-7.3
X7.1Y-7.4
X7.1Y-7.5
X7.1Y-7.9
X7.1Y-8.0
X7.1Y-8.1
X7.1Y-8.2
X7.1Y-8.3
X7.1Y-8.4
X7.1Y-8.5
X7.2Y-1.6
X7.2Y-2.2
X7.2Y-2.4
X7.2Y-3.0
X7.2Y-5.2
X7.3Y-1.6
X7.3Y-2.2
X7.3Y-2.4
X7.3Y-3.0
X7.4Y-1.6
X7.4Y-2.2
X7.4Y-2.4
X7.4Y-3.0
X7.4Y-4.4
X7.4Y-5.0
X7.4Y-5.9
X7.4Y-6.5
X7.4Y-6.7
X7.4Y-7.3
X7.4Y-8.5
X7.4Y-9.1
X7.4Y-3.4
X7.4Y-4.0
X7.4Y-5.2
X7.4Y-5.8
X7.4Y-7.4
X7.4Y-8.0
X7.5Y-1.4
X7.5Y-1.5
X7.5Y-1.6
X7.5Y-2.2
X7.5Y-2.4
X7.5Y-3.0
X7.5Y-4.4
X7.5Y-5.0
X7.5Y-5.9
X7.5Y-6.5
X7.5Y-6.7
X7.5Y-7.3
X7.5Y-8.5
X7.5Y-9.1
X7.5Y-3.4
X7.5Y-4.0
X7.5Y-5.2
X7.5Y-5.8
X7.5Y-7.4
X7.5Y-8.0
X7.6Y-1.6
X7.6Y-2.2
X7.6Y-2.4
X7.6Y-3.0
X7.6Y-4.4
X7.6Y-5.0
X7.6Y-5.9
X7.6Y-6.5
X7.6Y-6.7
X7.6Y-7.3
X7.6Y-8.5
X7.6Y-9.1
X7.6Y-3.4
X7.6Y-4.0
X7.6Y-5.2
X7.6Y-5.8
X7.6Y-7.4
X7.6Y-8.0
X7.7Y-1.2
X7.7Y-1.6
X7.7Y-2.2
X7.7Y-2.4
X7.7Y-3.0
X7.7Y-4.4
X7.7Y-5.0
X7.7Y-5.9
X7.7Y-6.5
X7.7Y-6.7
X7.7Y-7.3
X7.7Y-8.5
X7.7Y-9.1
X7.7Y-3.4
X7.7Y-4.0
X7.7Y-5.2
X7.7Y-5.8
X7.7Y-7.4
X7.7Y-8.0
X7.8Y-1.2
X7.8Y-1.6
X7.8Y-2.2
X7.8Y-2.4
X7.8Y-3.0
X7.8Y-4.4
X7.8Y-5.0
X7.8Y-5.9
X7.8Y-6.5
X7.8Y-6.7
X7.8Y-7.3
X7.8Y-8.5
X7.8Y-9.1
X7.8Y-3.4
X7.8Y-4.0
X7.8Y-5.2
X7.8Y-5.8
X7.8Y-7.4
X7.8Y-8.0
X7.9Y-1.2
X7.9Y-1.6
X7.9Y-2.2
X7.9Y-2.4
X7.9Y-3.0
X7.9Y-4.4
X7.9Y-5.0
X7.9Y-5.9
X7.9Y-6.5
X7.9Y-6.7
X7.9Y-7.3
X7.9Y-8.5
X7.9Y-9.1
X7.9Y-3.4
X7.9Y-4.0
X7.9Y-5.2
X7.9Y-5.8
X7.9Y-7.4
X7.9Y-8.0
X8.0Y-1.4
X8.0Y-1.5
X8.0Y-1.6
X8.0Y-2.2
X8.0Y-2.4
X8.0Y-3.0
X8.0Y-4.4
X8.0Y-5.0
X8.0Y-5.9
X8.0Y-6.5
X8.0Y-6.7
X8.0Y-7.3
X8.0Y-8.5
X8.0Y-9.1
X8.0Y-3.4
X8.0Y-4.0
X8.0Y-5.2
X8.0Y-5.8
X8.0Y-7.4
X8.0Y-8.0
X8.1Y-1.6
X8.1Y-2.2
X8.1Y-2.4
X8.1Y-3.0
X8.1Y-4.4
X8.1Y-5.0
X8.1Y-5.9
X8.1Y-6.5
X8.1Y-6.7
X8.1Y-7.3
X8.1Y-8.5
X8.1Y-9.1
X8.1Y-3.4
X8.1Y-4.0
X8.1Y-5.2
X8.1Y-5.8
X8.1Y-7.4
X8.1Y-8.0
X8.2Y-1.6
X8.2Y-2.2
X8.2Y-2.4
X8.2Y-3.0
X8.2Y-4.4
X8.2Y-5.0
X8.2Y-5.9
X8.2Y-6.5
X8.2Y-6.7
X8.2Y-7.3
X8.2Y-8.5
X8.2Y-9.1
X8.2Y-3.4
X8.2Y-4.0
X8.2Y-5.2
X8.2Y-5.8
X8.2Y-7.4
X8.2Y-8.0
X8.3Y-1.6
X8.3Y-2.2
X8.3Y-2.4
X8.3Y-3.0
X8.3Y-4.4
X8.3Y-5.0
X8.3Y-5.9
X8.3Y-6.5
X8.3Y-6.7
X8.3Y-7.3
X8.3Y-8.5
X8.3Y-9.1
X8.3Y-3.4
X8.3Y-4.0
X8.3Y-5.2
X8.3Y-5.8
X8.3Y-7.4
X8.3Y-8.0
X8.4Y-1.6
X8.4Y-2.2
X8.4Y-2.4
X8.4Y-3.0
X8.4Y-4.4
X8.4Y-5.0
X8.4Y-5.9
X8.4Y-6.5
X8.4Y-6.7
X8.4Y-7.3
X8.4Y-8.5
X8.4Y-9.1
X8.4Y-3.4
X8.4Y-4.0
X8.4Y-5.2
X8.4Y-5.8
X8.4Y-7.4
X8.4Y-8.0
X8.5Y-1.6
X8.5Y-2.2
X8.5Y-2.4
X8.5Y-3.0
X8.5Y-4.4
X8.5Y-5.0
X8.5Y-5.9
X8.5Y-6.5
X8.5Y-6.7
X8.5Y-7.3
X8.5Y-8.5
X8.5Y-9.1
X8.5Y-3.4
X8.5Y-4.0
X8.5Y-5.2
X8.5Y-5.8
X8.5Y-7.4
X8.5Y-8.0
X8.6Y-1.6
X8.6Y-2.2
X8.6Y-2.4
X8.6Y-3.0
X8.7Y-1.6
X8.7Y-2.2
X8.7Y-2.4
X8.7Y-3.0
X8.8Y-3.2
X8.8Y-3.5
X8.8Y-3.7
X8.8Y-4.0
X8.8Y-4.2
X8.8Y-4.5
X8.8Y-4.9
X8.8Y-5.2
X8.8Y-5.3
X8.8Y-5.6
X8.8Y-5.7
X8.8Y-6.0
X8.8Y-6.1
X8.8Y-6.4
X8.8Y-6.5
X8.8Y-6.8
X8.8Y-6.9
X8.8Y-7.2
X8.8Y-7.3
X8.8Y-7.6
X8.8Y-7.7
X8.8Y-8.0
X8.8Y-8.7
X8.8Y-9.0
X8.8Y-9.1
X8.9Y-2.2
X8.9Y-2.5
X8.9Y-1.2
X8.9Y-1.5
X8.9Y-1.7
X8.9Y-2.0
X8.9Y-2.7
X8.9Y-3.0
X8.9Y-3.2
X8.9Y-3.5
X8.9Y-3.7
X8.9Y-4.0
X8.9Y-4.2
X8.9Y-4.5
X8.9Y-4.9
X8.9Y-5.2
X8.9Y-5.3
X8.9Y-5.6
X8.9Y-5.7
X8.9Y-6.0
X8.9Y-6.1
X8.9Y-6.4
X8.9Y-6.5
X8.9Y-6.8
X8.9Y-6.9
X8.9Y-7.2
X8.9Y-7.3
X8.9Y-7.6
X8.9Y-7.7
X8.9Y-8.0
X8.9Y-8.7
X8.9Y-9.0
X8.9Y-9.1
X9.0Y-2.2
X9.0Y-2.5
X9.0Y-1.2
X9.0Y-1.5
X9.0Y-1.7
X9.0Y-2.0
X9.0Y-2.7
X9.0Y-3.0
X9.0Y-3.2
X9.0Y-3.5
X9.0Y-3.7
X9.0Y-4.0
X9.0Y-4.2
X9.0Y-4.5
X9.0Y-4.9
X9.0Y-5.2
X9.0Y-5.3
X9.0Y-5.6
X9.0Y-5.7
X9.0Y-6.0
X9.0Y-6.1
X9.0Y-6.4
X9.0Y-6.5
X9.0Y-6.8
X9.0Y-6.9
X9.0Y-7.2
X9.0Y-7.3
X9.0Y-7.6
X9.0Y-7.7
X9.0Y-8.0
X9.0Y-8.7
X9.0Y-9.0
X9.0Y-9.1
X9.1Y-2.2
X9.1Y-2.5
X9.1Y-1.2
X9.1Y-1.5
X9.1Y-1.7
X9.1Y-2.0
X9.1Y-2.7
X9.1Y-3.0
X9.1Y-3.2
X9.1Y-3.5
X9.1Y-3.7
X9.1Y-4.0
X9.1Y-4.2
X9.1Y-4.5
X9.1Y-4.9
X9.1Y-5.2
X9.1Y-5.3
X9.1Y-5.6
X9.1Y-5.7
X9.1Y-6.0
X9.1Y-6.1
X9.1Y-6.4
X9.1Y-6.5
X9.1Y-6.8
X9.1Y-6.9
X9.1Y-7.2
X9.1Y-7.3
X9.1Y-7.6
X9.1Y-7.7
X9.1Y-8.0
X9.1Y-8.7
X9.1Y-9.0
X9.2Y-2.2
X9.2Y-2.5
X9.2Y-1.2
X9.2Y-1.5
X9.2Y-1.7
X9.2Y-2.0
X9.2Y-2.7
X9.2Y-3.0
X9.2Y-3.2
X9.2Y-3.5
X9.2Y-3.7
X9.2Y-4.0
X9.2Y-4.2
X9.2Y-4.5
X9.2Y-4.9
X9.2Y-5.2
X9.2Y-5.3
X9.2Y-5.6
X9.2Y-5.7
X9.2Y-6.0
X9.2Y-6.1
X9.2Y-6.4
X9.2Y-6.5
X9.2Y-6.8
X9.2Y-6.9
X9.2Y-7.2
X9.2Y-7.3
X9.2Y-7.6
X9.2Y-7.7
X9.2Y-8.0
X9.2Y-8.7
X9.2Y-9.0
X9.3Y-2.2
X9.3Y-2.5
X9.3Y-1.2
X9.3Y-1.5
X9.3Y-1.7
X9.3Y-2.0
X9.3Y-2.7
X9.3Y-3.0
X9.3Y-3.2
X9.3Y-3.5
X9.3Y-3.7
X9.3Y-4.0
X9.3Y-4.2
X9.3Y-4.5
X9.3Y-4.9
X9.3Y-5.2
X9.3Y-5.3
X9.3Y-5.6
X9.3Y-5.7
X9.3Y-6.0
X9.3Y-6.1
X9.3Y-6.4
X9.3Y-6.5
X9.3Y-6.8
X9.3Y-6.9
X9.3Y-7.2
X9.3Y-7.3
X9.3Y-7.6
X9.3Y-7.7
X9.3Y-8.0
X9.3Y-8.7
X9.3Y-9.0
X9.4Y-2.2
X9.4Y-2.5
X9.4Y-1.2
X9.4Y-1.5
X9.4Y-1.7
X9.4Y-2.0
X9.4Y-2.7
X9.4Y-3.0
X9.4Y-3.2
X9.4Y-3.5
X9.4Y-3.7
X9.4Y-4.0
X9.4Y-4.2
X9.4Y-4.5
X9.4Y-4.9
X9.4Y-5.2
X9.4Y-5.3
X9.4Y-5.6
X9.4Y-5.7
X9.4Y-6.0
X9.4Y-6.1
X9.4Y-6.4
X9.4Y-6.5
X9.4Y-6.8
X9.4Y-6.9
X9.4Y-7.2
X9.4Y-7.3
X9.4Y-7.6
X9.4Y-7.7
X9.4Y-8.0
X9.4Y-8.7
X9.4Y-9.0
X9.5Y-2.2
X9.5Y-2.5
X9.5Y-1.2
X9.5Y-1.5
X9.5Y-1.7
X9.5Y-2.0
X9.5Y-2.7
X9.5Y-3.0
X9.5Y-3.2
X9.5Y-3.5
X9.5Y-3.7
X9.5Y-4.0
X9.5Y-4.2
X9.5Y-4.5
X9.5Y-4.9
X9.5Y-5.2
X9.5Y-5.3
X9.5Y-5.6
X9.5Y-5.7
X9.5Y-6.0
X9.5Y-6.1
X9.5Y-6.4
X9.5Y-6.5
X9.5Y-6.8
X9.5Y-6.9
X9.5Y-7.2
X9.5Y-7.3
X9.5Y-7.6
X9.5Y-7.7
X9.5Y-8.0
X9.5Y-8.7
X9.5Y-9.0
X9.65Y-4.9
X9.65Y-5.0
X9.65Y-5.1
X9.65Y-5.7
X9.65Y-5.8
X9.65Y-5.9
X9.65Y-6.5
X9.65Y-6.6
X9.65Y-6.7
X9.65Y-7.3
X9.65Y-7.4
X9.65Y-7.5
X9.65Y-8.6
X9.65Y-8.7
X9.65Y-8.8
X9.8Y-1.2
X9.8Y-1.5
X9.8Y-1.7
X9.8Y-2.0
X9.8Y-2.2
X9.8Y-2.5
X9.8Y-2.7
X9.8Y-3.0
X9.8Y-3.2
X9.8Y-3.5
X9.8Y-3.7
X9.8Y-4.0
X9.8Y-4.9
X9.8Y-5.2
X9.8Y-5.3
X9.8Y-5.6
X9.8Y-5.7
X9.8Y-6.0
X9.8Y-6.1
X9.8Y-6.4
X9.8Y-6.5
X9.8Y-6.8
X9.8Y-7.3
X9.8Y-7.6
X9.8Y-7.7
X9.8Y-8.0
X9.8Y-8.7
X9.8Y-9.0
X9.8Y-9.1
X9.8Y-4.2
X9.8Y-4.5
X9.8Y-6.9
X9.8Y-7.2
X9.9Y-1.2
X9.9Y-1.5
X9.9Y-1.7
X9.9Y-2.0
X9.9Y-2.2
X9.9Y-2.5
X9.9Y-2.7
X9.9Y-3.0
X9.9Y-3.2
X9.9Y-3.5
X9.9Y-3.7
X9.9Y-4.0
X9.9Y-4.9
X9.9Y-5.2
X9.9Y-5.3
X9.9Y-5.6
X9.9Y-5.7
X9.9Y-6.0
X9.9Y-6.1
X9.9Y-6.4
X9.9Y-6.5
X9.9Y-6.8
X9.9Y-7.3
X9.9Y-7.6
X9.9Y-7.7
X9.9Y-8.0
X9.9Y-8.7
X9.9Y-9.0
X9.9Y-9.1
X9.9Y-4.2
X9.9Y-4.5
X9.9Y-6.9
X9.9Y-7.2
X10.0Y-1.2
X10.0Y-1.5
X10.0Y-1.7
X10.0Y-2.0
X10.0Y-2.2
X10.0Y-2.5
X10.0Y-2.7
X10.0Y-3.0
X10.0Y-3.2
X10.0Y-3.5
X10.0Y-3.7
X10.0Y-4.0
X10.0Y-4.9
X10.0Y-5.2
X10.0Y-5.3
X10.0Y-5.6
X10.0Y-5.7
X10.0Y-6.0
X10.0Y-6.1
X10.0Y-6.4
X10.0Y-6.5
X10.0Y-6.8
X10.0Y-7.3
X10.0Y-7.6
X10.0Y-7.7
X10.0Y-8.0
X10.0Y-8.7
X10.0Y-9.0
X10.0Y-9.1
X10.0Y-4.2
X10.0Y-4.5
X10.0Y-6.9
X10.0Y-7.2
X10.1Y-1.2
X10.1Y-1.5
X10.1Y-1.7
X10.1Y-2.0
X10.1Y-2.2
X10.1Y-2.5
X10.1Y-2.7
X10.1Y-3.0
X10.1Y-3.2
X10.1Y-3.5
X10.1Y-3.7
X10.1Y-4.0
X10.1Y-4.9
X10.1Y-5.2
X10.1Y-5.3
X10.1Y-5.6
X10.1Y-5.7
X10.1Y-6.0
X10.1Y-6.1
X10.1Y-6.4
X10.1Y-6.5
X10.1Y-6.8
X10.1Y-7.3
X10.1Y-7.6
X10.1Y-7.7
X10.1Y-8.0
X10.1Y-8.7
X10.1Y-9.0
X10.1Y-4.2
X10.1Y-4.5
X10.1Y-6.9
X10.1Y-7.2
X10.2Y-1.2
X10.2Y-1.5
X10.2Y-1.7
X10.2Y-2.0
X10.2Y-2.2
X10.2Y-2.5
X10.2Y-2.7
X10.2Y-3.0
X10.2Y-3.2
X10.2Y-3.5
X10.2Y-3.7
X10.2Y-4.0
X10.2Y-4.7
X10.2Y-4.9
X10.2Y-5.2
X10.2Y-5.3
X10.2Y-5.6
X10.2Y-5.7
X10.2Y-6.0
X10.2Y-6.1
X10.2Y-6.4
X10.2Y-6.5
X10.2Y-6.8
X10.2Y-7.3
X10.2Y-7.6
X10.2Y-7.7
X10.2Y-8.0
X10.2Y-8.7
X10.2Y-9.0
X10.2Y-4.2
X10.2Y-4.5
X10.2Y-6.9
X10.2Y-7.2
X10.3Y-1.2
X10.3Y-1.5
X10.3Y-1.7
X10.3Y-2.0
X10.3Y-2.2
X10.3Y-2.5
X10.3Y-2.7
X10.3Y-3.0
X10.3Y-3.2
X10.3Y-3.5
X10.3Y-3.7
X10.3Y-4.0
X10.3Y-4.7
X10.3Y-4.9
X10.3Y-5.2
X10.3Y-5.3
X10.3Y-5.6
X10.3Y-5.7
X10.3Y-6.0
X10.3Y-6.1
X10.3Y-6.4
X10.3Y-6.5
X10.3Y-6.8
X10.3Y-7.3
X10.3Y-7.6
X10.3Y-7.7
X10.3Y-8.0
X10.3Y-8.7
X10.3Y-9.0
X10.3Y-4.2
X10.3Y-4.5
X10.3Y-6.9
X10.3Y-7.2
X10.4Y-1.2
X10.4Y-1.5
X10.4Y-1.7
X10.4Y-2.0
X10.4Y-2.2
X10.4Y-2.5
X10.4Y-2.7
X10.4Y-3.0
X10.4Y-3.2
X10.4Y-3.5
X10.4Y-3.7
X10.4Y-4.0
X10.4Y-4.7
X10.4Y-4.9
X10.4Y-5.2
X10.4Y-5.3
X10.4Y-5.6
X10.4Y-5.7
X10.4Y-6.0
X10.4Y-6.1
X10.4Y-6.4
X10.4Y-6.5
X10.4Y-6.8
X10.4Y-7.3
X10.4Y-7.6
X10.4Y-7.7
X10.4Y-8.0
X10.4Y-8.7
X10.4Y-9.0
X10.4Y-4.2
X10.4Y-4.5
X10.4Y-6.9
X10.4Y-7.2
X10.5Y-1.2
X10.5Y-1.5
X10.5Y-2.2
X10.5Y-2.5
X10.5Y-2.7
X10.5Y-3.0
X10.5Y-4.9
X10.5Y-5.2
X10.5Y-5.3
X10.5Y-5.6
X10.5Y-5.7
X10.5Y-6.0
X10.5Y-6.1
X10.5Y-6.4
X10.5Y-6.5
X10.5Y-6.8
X10.5Y-7.3
X10.5Y-7.6
X10.5Y-7.7
X10.5Y-8.0
X10.5Y-8.7
X10.5Y-9.0
X10.5Y-4.2
X10.5Y-4.5
X10.5Y-6.9
X10.5Y-7.2
X10.65Y-5.3
X10.65Y-5.4
X10.65Y-5.5
X10.65Y-6.1
X10.65Y-6.2
X10.65Y-6.3
X10.65Y-6.9
X10.65Y-7.0
X10.65Y-7.1
X10.65Y-7.7
X10.65Y-7.8
X10.65Y-7.9
X10.65Y-8.6
X10.65Y-8.7
X10.65Y-8.8
X10.8Y-1.2
X10.8Y-1.5
X10.8Y-1.7
X10.8Y-2.0
X10.8Y-2.2
X10.8Y-2.5
X10.8Y-2.7
X10.8Y-3.0
X10.8Y-3.2
X10.8Y-3.5
X10.8Y-3.7
X10.8Y-4.0
X10.8Y-4.2
X10.8Y-4.5
X10.8Y-4.9
X10.8Y-5.2
X10.8Y-5.3
X10.8Y-5.6
X10.8Y-5.7
X10.8Y-6.0
X10.8Y-6.1
X10.8Y-6.4
X10.8Y-6.5
X10.8Y-6.8
X10.8Y-6.9
X10.8Y-7.2
X10.8Y-7.3
X10.8Y-7.6
X10.8Y-7.7
X10.8Y-8.0
X10.8Y-8.7
X10.8Y-9.0
X10.8Y-9.1
X10.9Y-1.2
X10.9Y-1.5
X10.9Y-1.7
X10.9Y-2.0
X10.9Y-2.2
X10.9Y-2.5
X10.9Y-2.7
X10.9Y-3.0
X10.9Y-3.2
X10.9Y-3.5
X10.9Y-3.7
X10.9Y-4.0
X10.9Y-4.2
X10.9Y-4.5
X10.9Y-4.9
X10.9Y-5.2
X10.9Y-5.3
X10.9Y-5.6
X10.9Y-5.7
X10.9Y-6.0
X10.9Y-6.1
X10.9Y-6.4
X10.9Y-6.5
X10.9Y-6.8
X10.9Y-6.9
X10.9Y-7.2
X10.9Y-7.3
X10.9Y-7.6
X10.9Y-7.7
X10.9Y-8.0
X10.9Y-8.7
X10.9Y-9.0
X10.9Y-9.1
X11.0Y-1.2
X11.0Y-1.5
X11.0Y-1.7
X11.0Y-2.0
X11.0Y-2.2
X11.0Y-2.5
X11.0Y-2.7
X11.0Y-3.0
X11.0Y-3.2
X11.0Y-3.5
X11.0Y-3.7
X11.0Y-4.0
X11.0Y-4.2
X11.0Y-4.5
X11.0Y-4.9
X11.0Y-5.2
X11.0Y-5.3
X11.0Y-5.6
X11.0Y-5.7
X11.0Y-6.0
X11.0Y-6.1
X11.0Y-6.4
X11.0Y-6.5
X11.0Y-6.8
X11.0Y-6.9
X11.0Y-7.2
X11.0Y-7.3
X11.0Y-7.6
X11.0Y-7.7
X11.0Y-8.0
X11.0Y-8.7
X11.0Y-9.0
X11.0Y-9.1
X11.1Y-1.2
X11.1Y-1.5
X11.1Y-1.7
X11.1Y-2.0
X11.1Y-2.2
X11.1Y-2.5
X11.1Y-2.7
X11.1Y-3.0
X11.1Y-3.2
X11.1Y-3.5
X11.1Y-3.7
X11.1Y-4.0
X11.1Y-4.2
X11.1Y-4.5
X11.1Y-4.9
X11.1Y-5.2
X11.1Y-5.3
X11.1Y-5.6
X11.1Y-5.7
X11.1Y-6.0
X11.1Y-6.1
X11.1Y-6.4
X11.1Y-6.5
X11.1Y-6.8
X11.1Y-6.9
X11.1Y-7.2
X11.1Y-7.3
X11.1Y-7.6
X11.1Y-7.7
X11.1Y-8.0
X11.1Y-8.7
X11.1Y-9.0
X11.2Y-1.2
X11.2Y-1.5
X11.2Y-1.7
X11.2Y-2.0
X11.2Y-2.2
X11.2Y-2.5
X11.2Y-2.7
X11.2Y-3.0
X11.2Y-3.2
X11.2Y-3.5
X11.2Y-3.7
X11.2Y-4.0
X11.2Y-4.2
X11.2Y-4.5
X11.2Y-4.9
X11.2Y-5.2
X11.2Y-5.3
X11.2Y-5.6
X11.2Y-5.7
X11.2Y-6.0
X11.2Y-6.1
X11.2Y-6.4
X11.2Y-6.5
X11.2Y-6.8
X11.2Y-6.9
X11.2Y-7.2
X11.2Y-7.3
X11.2Y-7.6
X11.2Y-7.7
X11.2Y-8.0
X11.2Y-8.7
X11.2Y-9.0
X11.3Y-1.2
X11.3Y-1.5
X11.3Y-1.7
X11.3Y-2.0
X11.3Y-2.2
X11.3Y-2.5
X11.3Y-2.7
X11.3Y-3.0
X11.3Y-3.2
X11.3Y-3.5
X11.3Y-3.7
X11.3Y-4.0
X11.3Y-4.2
X11.3Y-4.5
X11.3Y-4.9
X11.3Y-5.2
X11.3Y-5.3
X11.3Y-5.6
X11.3Y-5.7
X11.3Y-6.0
X11.3Y-6.1
X11.3Y-6.4
X11.3Y-6.5
X11.3Y-6.8
X11.3Y-6.9
X11.3Y-7.2
X11.3Y-7.3
X11.3Y-7.6
X11.3Y-7.7
X11.3Y-8.0
X11.3Y-8.7
X11.3Y-9.0
X11.4Y-1.2
X11.4Y-1.5
X11.4Y-1.7
X11.4Y-2.0
X11.4Y-2.2
X11.4Y-2.5
X11.4Y-2.7
X11.4Y-3.0
X11.4Y-3.2
X11.4Y-3.5
X11.4Y-3.7
X11.4Y-4.0
X11.4Y-4.2
X11.4Y-4.5
X11.4Y-4.9
X11.4Y-5.2
X11.4Y-5.3
X11.4Y-5.6
X11.4Y-5.7
X11.4Y-6.0
X11.4Y-6.1
X11.4Y-6.4
X11.4Y-6.5
X11.4Y-6.8
X11.4Y-6.9
X11.4Y-7.2
X11.4Y-7.3
X11.4Y-7.6
X11.4Y-7.7
X11.4Y-8.0
X11.4Y-8.7
X11.4Y-9.0
X11.5Y-3.7
X11.5Y-4.0
X11.5Y-4.2
X11.5Y-4.5
X11.5Y-4.9
X11.5Y-5.2
X11.5Y-5.3
X11.5Y-5.6
X11.5Y-5.7
X11.5Y-6.0
X11.5Y-6.1
X11.5Y-6.4
X11.5Y-6.5
X11.5Y-6.8
X11.5Y-6.9
X11.5Y-7.2
X11.5Y-7.3
X11.5Y-7.6
X11.5Y-7.7
X11.5Y-8.0
X11.5Y-8.7
X11.5Y-9.0
X11.65Y-6.5
X11.65Y-6.6
X11.65Y-6.7
X11.65Y-4.9
X11.65Y-5.0
X11.65Y-5.1
X11.65Y-5.7
X11.65Y-5.8
X11.65Y-5.9
X11.65Y-7.3
X11.65Y-7.4
X11.65Y-7.5
X11.65Y-8.6
X11.65Y-8.7
X11.65Y-8.8
X11.8Y-4.2
X11.8Y-4.5
X11.8Y-1.2
X11.8Y-1.5
X11.8Y-1.7
X11.8Y-2.0
X11.8Y-2.2
X11.8Y-2.5
X11.8Y-2.7
X11.8Y-3.0
X11.8Y-3.2
X11.8Y-3.5
X11.8Y-3.7
X11.8Y-4.0
X11.8Y-4.9
X11.8Y-5.2
X11.8Y-5.3
X11.8Y-5.6
X11.8Y-5.7
X11.8Y-6.0
X11.8Y-6.1
X11.8Y-6.4
X11.8Y-6.5
X11.8Y-6.8
X11.8Y-6.9
X11.8Y-7.2
X11.8Y-7.3
X11.8Y-7.6
X11.8Y-7.7
X11.8Y-8.0
X11.8Y-8.7
X11.8Y-9.0
X11.8Y-9.1
X11.9Y-4.2
X11.9Y-4.5
X11.9Y-1.2
X11.9Y-1.5
X11.9Y-1.7
X11.9Y-2.0
X11.9Y-2.2
X11.9Y-2.5
X11.9Y-2.7
X11.9Y-3.0
X11.9Y-3.2
X11.9Y-3.5
X11.9Y-3.7
X11.9Y-4.0
X11.9Y-4.9
X11.9Y-5.2
X11.9Y-5.3
X11.9Y-5.6
X11.9Y-5.7
X11.9Y-6.0
X11.9Y-6.1
X11.9Y-6.4
X11.9Y-6.5
X11.9Y-6.8
X11.9Y-6.9
X11.9Y-7.2
X11.9Y-7.3
X11.9Y-7.6
X11.9Y-7.7
X11.9Y-8.0
X11.9Y-8.7
X11.9Y-9.0
X11.9Y-9.1
X12.0Y-4.2
X12.0Y-4.5
X12.0Y-1.2
X12.0Y-1.5
X12.0Y-1.7
X12.0Y-2.0
X12.0Y-2.2
X12.0Y-2.5
X12.0Y-2.7
X12.0Y-3.0
X12.0Y-3.2
X12.0Y-3.5
X12.0Y-3.7
X12.0Y-4.0
X12.0Y-4.9
X12.0Y-5.2
X12.0Y-5.3
X12.0Y-5.6
X12.0Y-5.7
X12.0Y-6.0
X12.0Y-6.1
X12.0Y-6.4
X12.0Y-6.5
X12.0Y-6.8
X12.0Y-6.9
X12.0Y-7.2
X12.0Y-7.3
X12.0Y-7.6
X12.0Y-7.7
X12.0Y-8.0
X12.0Y-8.7
X12.0Y-9.0
X12.0Y-9.1
X12.1Y-4.2
X12.1Y-4.5
X12.1Y-1.2
X12.1Y-1.5
X12.1Y-1.7
X12.1Y-2.0
X12.1Y-2.2
X12.1Y-2.5
X12.1Y-2.7
X12.1Y-3.0
X12.1Y-3.2
X12.1Y-3.5
X12.1Y-3.7
X12.1Y-4.0
X12.1Y-4.9
X12.1Y-5.2
X12.1Y-5.3
X12.1Y-5.6
X12.1Y-5.7
X12.1Y-6.0
X12.1Y-6.1
X12.1Y-6.4
X12.1Y-6.5
X12.1Y-6.8
X12.1Y-6.9
X12.1Y-7.2
X12.1Y-7.3
X12.1Y-7.6
X12.1Y-7.7
X12.1Y-8.0
X12.1Y-8.7
X12.1Y-9.0
X12.2Y-4.2
X12.2Y-4.5
X12.2Y-1.2
X12.2Y-1.5
X12.2Y-1.7
X12.2Y-2.0
X12.2Y-2.2
X12.2Y-2.5
X12.2Y-2.7
X12.2Y-3.0
X12.2Y-4.9
X12.2Y-5.2
X12.2Y-5.3
X12.2Y-5.6
X12.2Y-5.7
X12.2Y-6.0
X12.2Y-6.1
X12.2Y-6.4
X12.2Y-6.5
X12.2Y-6.8
X12.2Y-6.9
X12.2Y-7.2
X12.2Y-7.3
X12.2Y-7.6
X12.2Y-7.7
X12.2Y-8.0
X12.2Y-8.7
X12.2Y-9.0
X12.3Y-3.9
X12.3Y-4.2
X12.3Y-4.5
X12.3Y-1.2
X12.3Y-1.5
X12.3Y-1.7
X12.3Y-2.0
X12.3Y-2.2
X12.3Y-2.5
X12.3Y-2.7
X12.3Y-3.0
X12.3Y-3.6
X12.3Y-3.7
X12.3Y-3.8
X12.3Y-4.0
X12.3Y-4.9
X12.3Y-5.2
X12.3Y-5.3
X12.3Y-5.6
X12.3Y-5.7
X12.3Y-6.0
X12.3Y-6.1
X12.3Y-6.4
X12.3Y-6.5
X12.3Y-6.8
X12.3Y-6.9
X12.3Y-7.2
X12.3Y-7.3
X12.3Y-7.6
X12.3Y-7.7
X12.3Y-8.0
X12.3Y-8.7
X12.3Y-9.0
X12.4Y-4.2
X12.4Y-4.5
X12.4Y-1.2
X12.4Y-1.5
X12.4Y-1.7
X12.4Y-2.0
X12.4Y-2.2
X12.4Y-2.5
X12.4Y-2.7
X12.4Y-3.0
X12.4Y-4.7
X12.4Y-4.9
X12.4Y-5.2
X12.4Y-5.3
X12.4Y-5.6
X12.4Y-5.7
X12.4Y-6.0
X12.4Y-6.1
X12.4Y-6.4
X12.4Y-6.5
X12.4Y-6.8
X12.4Y-6.9
X12.4Y-7.2
X12.4Y-7.3
X12.4Y-7.6
X12.4Y-7.7
X12.4Y-8.0
X12.4Y-8.7
X12.4Y-9.0
X12.5Y-1.7
X12.5Y-2.0
X12.5Y-4.7
X12.5Y-4.9
X12.5Y-5.2
X12.5Y-5.3
X12.5Y-5.6
X12.5Y-5.7
X12.5Y-6.0
X12.5Y-6.1
X12.5Y-6.4
X12.5Y-6.5
X12.5Y-6.8
X12.5Y-6.9
X12.5Y-7.2
X12.5Y-7.3
X12.5Y-7.6
X12.5Y-7.7
X12.5Y-8.0
X12.5Y-8.7
X12.5Y-9.0
X12.55Y-4.1
X12.55Y-4.6
X12.6Y-4.7
X12.64Y-1.5
X12.64Y-1.6
X12.64Y-1.7
X12.65Y-5.3
X12.65Y-5.4
X12.65Y-5.5
X12.65Y-6.1
X12.65Y-6.2
X12.65Y-6.3
X12.65Y-7.2
X12.65Y-7.3
X12.65Y-7.4
X12.65Y-7.7
X12.65Y-7.8
X12.65Y-7.9
X12.7Y-9.1
X12.8Y-3.9
X12.8Y-2.6
X12.8Y-3.4
X12.8Y-3.6
X12.8Y-3.7
X12.8Y-3.8
X12.8Y-4.0
X12.8Y-6.4
X12.8Y-7.2
X12.8Y-9.1
X12.9Y-9.1
T3
X1.075Y-8.5
X1.15Y-8.6
X1.225Y-8.55
X1.3Y-6.075
X1.3Y-6.5
X1.35Y-3.075
X1.425Y-6.35
X1.425Y-8.3
X1.475Y-8.95
X1.525Y-8.475
X1.6Y-6.075
X1.6Y-6.8
X1.6Y-8.3
X1.6Y-8.875
X1.6389Y-2.0
X1.7Y-5.9
X1.7Y-6.3
X1.7Y-7.3
X1.775Y-2.7
X1.775Y-4.9
X1.775Y-9.075
X1.775Y-8.475
X1.8Y-5.3
X1.85Y-1.725
X1.875Y-6.05
X1.875Y-6.45
X1.875Y-8.55
X1.875Y-9.2
X1.95Y-5.575
X2.0Y-3.875
X2.0Y-5.3
X2.0Y-7.75
X2.05Y-2.85
X2.05Y-4.55
X2.1Y-4.225
X2.1Y-5.775
X2.15Y-3.75
X2.25Y-3.7
X2.3Y-1.975
X2.3Y-4.05
X2.35Y-3.675
X2.4Y-5.9
X2.45Y-3.65
X2.5Y-5.55
X2.55Y-3.625
X2.55Y-6.05
X2.55Y-9.025
X2.6Y-2.575
X2.6Y-1.7
X2.65Y-3.6
X2.7Y-4.6
X2.75Y-1.875
X2.75Y-2.675
X2.75Y-3.575
X2.75Y-9.025
X2.8Y-2.575
X2.8Y-3.875
X2.8Y-2.025
X2.8Y-5.9
X2.8Y-6.8
X2.825Y-1.65
X2.85Y-4.85
X2.85Y-5.275
X2.9Y-2.1
X2.95Y-5.275
X2.95Y-5.7
X3.0Y-4.325
X3.05Y-2.2
X3.05Y-5.275
X3.05Y-3.95
X3.075Y-5.025
X3.1Y-4.375
X3.15Y-3.975
X3.15Y-5.025
X3.2Y-4.975
X3.2Y-5.575
X3.25Y-6.05
X3.3Y-4.925
X3.4Y-4.925
X3.4Y-1.5
X3.4Y-4.425
X3.45Y-1.6
X3.45Y-1.75
X3.45Y-2.625
X3.45Y-4.475
X3.5Y-4.275
X3.5Y-5.525
X3.55Y-1.5
X3.55Y-2.675
X3.55Y-3.875
X3.6Y-5.65
X3.6Y-3.5
X3.65Y-4.55
X3.7Y-2.85
X3.7Y-5.05
X3.7Y-5.575
X3.7Y-2.275
X3.75Y-4.5
X3.75Y-7.025
X3.8Y-2.2
X3.8Y-4.0
X3.8Y-5.05
X3.825Y-3.4
X3.85Y-6.75
X3.85Y-7.15
X3.9Y-3.45
X3.95Y-1.275
X3.95Y-2.275
X3.95Y-5.55
X3.95Y-6.825
X3.975Y-3.4
X4.0Y-2.4
X4.05Y-1.95
X4.05Y-5.575
X4.05Y-6.875
X4.05Y-2.65
X4.05Y-3.45
X4.075Y-2.375
X4.1Y-2.85
X4.15Y-2.65
X4.15Y-3.075
X4.15Y-5.6
X4.15Y-6.925
X4.175Y-3.0
X4.2Y-2.15
X4.2Y-7.05
X4.225Y-3.9
X4.225Y-4.175
X4.25Y-4.9
X4.25Y-5.625
X4.3Y-4.275
X4.35Y-3.8
X4.35Y-5.15
X4.35Y-3.45
X4.35Y-5.9
X4.425Y-1.275
X4.45Y-4.275
X4.45Y-5.875
X4.5Y-2.55
X4.55Y-4.225
X4.55Y-4.9
X4.55Y-5.85
X4.575Y-1.7
X4.575Y-2.525
X4.625Y-3.9
X4.65Y-1.275
X4.65Y-2.575
X4.65Y-5.825
X4.7Y-2.3
X4.75Y-3.825
X4.75Y-4.15
X4.75Y-5.8
X4.8Y-4.1
X4.85Y-3.8
X4.85Y-5.775
X4.9Y-2.2
X4.9Y-4.85
X4.95Y-3.8
X4.95Y-5.75
X5.0Y-1.6
X5.05Y-3.575
X5.05Y-5.725
X5.05Y-2.35
X5.1Y-2.225
X5.1Y-4.275
X5.125Y-5.4
X5.15Y-3.875
X5.2Y-2.025
X5.2Y-2.8
X5.2Y-3.2
X5.2Y-4.3
X5.25Y-5.35
X5.25Y-5.45
X5.25Y-8.675
X5.25Y-8.75
X5.25Y-8.825
X5.25Y-8.6
X5.325Y-2.275
X5.325Y-4.45
X5.35Y-4.65
X5.35Y-4.85
X5.375Y-3.3
X5.4Y-4.3
X5.4Y-4.525
X5.4Y-4.8
X5.4Y-7.2
X5.425Y-6.075
X5.45Y-4.75
X5.45Y-7.3
X5.475Y-1.075
X5.475Y-1.9
X5.475Y-2.0
X5.475Y-4.575
X5.475Y-7.0
X5.5Y-4.0
X5.525Y-6.025
X5.525Y-2.775
X5.525Y-6.175
X5.55Y-1.075
X5.575Y-1.175
X5.6Y-1.4
X5.6Y-2.325
X5.6Y-3.1
X5.65Y-1.175
X5.65Y-1.525
X5.65Y-3.35
X5.65Y-6.775
X5.7Y-4.875
X5.7Y-5.3
X5.7Y-7.325
X5.7Y-6.6
X5.725Y-9.25
X5.75Y-2.425
X5.75Y-7.4
X5.8Y-1.525
X5.8Y-3.1
X5.8Y-7.3
X5.825Y-5.35
X5.825Y-9.25
X5.85Y-1.65
X5.9Y-3.4
X5.9Y-4.825
X5.9Y-2.8
X5.9Y-9.25
X5.95Y-1.6
X6.0Y-9.1
X6.05Y-1.575
X6.05Y-3.375
X6.05Y-3.65
X6.05Y-5.6
X6.1Y-1.875
X6.1Y-2.325
X6.1Y-2.825
X6.1Y-4.875
X6.15Y-3.15
X6.175Y-3.775
X6.2Y-1.55
X6.2Y-1.9
X6.2Y-2.325
X6.2Y-4.875
X6.2Y-6.85
X6.225Y-5.575
X6.25Y-4.575
X6.3Y-2.35
X6.35Y-3.15
X6.4Y-5.375
X6.4Y-6.85
X6.425Y-5.075
X6.45Y-4.0
X6.475Y-2.425
X6.475Y-4.175
X6.5Y-1.85
X6.5Y-8.5
X6.525Y-1.475
X6.525Y-4.575
X6.55Y-5.375
X6.575Y-3.2
X6.575Y-4.175
X6.575Y-4.4
X6.6Y-1.3
X6.6Y-1.85
X6.6Y-5.2
X6.625Y-3.5
X6.625Y-1.5
X6.625Y-3.275
X6.625Y-4.0
X6.65Y-2.025
X6.675Y-4.4
X6.675Y-4.575
X6.675Y-5.35
X6.7Y-1.9
X6.7Y-2.4
X6.7Y-5.5
X6.75Y-5.55
X6.775Y-2.65
X6.8Y-3.225
X6.8Y-9.075
X6.85Y-5.5
X6.9Y-3.325
X6.9Y-4.425
X6.9Y-4.6
X6.9Y-6.3
X6.9Y-7.25
X6.9Y-8.2
X6.925Y-7.1
X6.95Y-5.5
X7.0Y-2.825
X7.0Y-4.85
X7.0Y-5.1
X7.0Y-6.95
X7.1Y-3.15
X7.1Y-3.25
X7.1Y-4.6
X7.125Y-4.95
X7.15Y-9.0
X7.175Y-4.0
X7.175Y-6.3
X7.175Y-5.5
X7.2Y-2.825
X7.2Y-4.9
X7.2Y-6.6
X7.2Y-6.9
X7.2Y-7.1
X7.25Y-3.45
X7.275Y-7.9
X7.275Y-4.75
X7.3Y-1.775
X7.3Y-3.1
X7.35Y-1.2
X7.375Y-3.55
X7.4Y-6.225
X7.4Y-1.5
X7.4Y-2.65
X7.4Y-3.3
X7.4Y-4.875
X7.425Y-1.8
X7.425Y-1.9
X7.45Y-3.5
X7.45Y-4.3
X7.5Y-4.675
X7.5Y-4.8
X7.55Y-2.65
X7.55Y-6.2
X7.55Y-7.15
X7.6Y-1.2
X7.6Y-4.7
X7.65Y-4.775
X7.65Y-6.175
X7.7Y-6.9
X7.725Y-2.8
X7.75Y-2.475
X7.75Y-3.1
X7.75Y-4.175
X7.75Y-5.7
X7.75Y-6.15
X7.75Y-6.325
X7.75Y-7.15
X7.8Y-7.7
X7.825Y-2.75
X7.85Y-1.75
X7.85Y-3.5
X7.85Y-5.975
X7.9Y-4.8
X7.95Y-2.525
X7.95Y-6.0
X8.0Y-3.3
X8.0Y-3.5
X8.0Y-4.85
X8.05Y-1.2
X8.05Y-2.75
X8.05Y-3.85
X8.05Y-6.0
X8.1Y-5.4
X8.1Y-7.8
X8.15Y-3.85
X8.15Y-6.075
X8.175Y-2.7
X8.2Y-3.15
X8.2Y-3.5
X8.2Y-5.375
X8.2Y-7.575
X8.225Y-3.875
X8.275Y-1.2
X8.3Y-1.8
X8.3Y-3.15
X8.3Y-5.375
X8.3Y-7.525
X8.325Y-3.9
X8.35Y-5.3
X8.4Y-3.85
X8.4Y-5.375
X8.4Y-2.875
X8.4Y-3.5
X8.425Y-3.15
X8.45Y-2.5
X8.45Y-3.925
X8.45Y-5.3
X8.45Y-7.9
X8.47Y-1.45
X8.5Y-4.875
X8.5Y-5.375
X8.5Y-8.1
X8.5Y-1.75
X8.5Y-3.5
X8.5Y-4.775
X8.5Y-9.225
X8.525Y-2.875
X8.525Y-3.15
X8.55Y-4.925
X8.55Y-5.1
X8.55Y-8.175
X8.55Y-8.275
X8.575Y-5.275
X8.6Y-3.125
X8.6Y-4.0
X8.6Y-4.4
X8.6Y-5.65
X8.6Y-8.45
X8.6Y-8.55
X8.6Y-8.35
X8.625Y-6.05
X8.65Y-2.875
X8.65Y-5.4
X8.65Y-6.45
X8.65Y-8.6
X8.675Y-3.45
X8.675Y-6.85
X8.675Y-8.8
X8.7Y-1.825
X8.7Y-2.0
X8.7Y-2.675
X8.7Y-3.125
X8.7Y-3.575
X8.7Y-3.975
X8.7Y-7.15
X8.7Y-7.65
X8.725Y-3.35
X8.725Y-7.525
X8.75Y-1.525
X8.75Y-5.45
X8.75Y-6.25
X8.75Y-6.65
X8.8Y-2.075
X8.8Y-2.15
X8.8Y-2.45
X8.8Y-2.675
X8.8Y-2.8
X8.8Y-3.6
X8.8Y-9.225
X8.85Y-1.8972
X8.85Y-5.0
X8.85Y-5.8
X8.85Y-8.6
X8.9Y-2.78
X8.9Y-3.6
X8.9Y-4.775
X8.9Y-6.65
X8.9Y-7.4
X8.95Y-1.425
X8.95Y-1.875
X9.05Y-2.55
X9.05Y-3.6
X9.1Y-9.1
X9.15Y-3.325
X9.15Y-4.4
X9.2Y-1.9
X9.2Y-4.6
X9.2Y-8.25
X9.25Y-6.2
X9.35Y-2.925
X9.4Y-8.2
X9.4Y-4.4
X9.45Y-1.6
X9.45Y-8.3
X9.55Y-3.75
X9.575Y-3.575
X9.575Y-4.675
X9.6Y-2.875
X9.6Y-4.025
X9.625Y-1.725
X9.625Y-4.725
X9.65Y-1.25
X9.675Y-1.45
X9.675Y-2.025
X9.675Y-2.4
X9.725Y-1.675
X9.725Y-1.875
X9.725Y-4.7
X9.75Y-5.8
X9.8Y-2.4
X9.8Y-3.325
X9.85Y-5.4
X9.85Y-5.8
X9.85Y-6.2
X9.85Y-6.975
X9.85Y-7.4
X9.9Y-1.825
X9.9Y-3.325
X9.9Y-4.8
X10.0Y-2.35
X10.0Y-2.875
X10.0Y-4.325
X10.05Y-3.325
X10.05Y-3.425
X10.05Y-3.775
X10.05Y-4.7
X10.05Y-5.0
X10.1Y-9.1
X10.15Y-1.925
X10.2Y-3.125
X10.2Y-3.3
X10.2Y-8.25
X10.25Y-6.2
X10.325Y-1.85
X10.35Y-1.4
X10.35Y-3.4
X10.35Y-4.125
X10.4Y-4.35
X10.4Y-8.2
X10.45Y-1.375
X10.45Y-1.85
X10.45Y-3.325
X10.45Y-8.3
X10.5Y-1.675
X10.5Y-4.075
X10.5Y-4.65
X10.525Y-1.85
X10.55Y-2.1
X10.55Y-5.0
X10.575Y-1.375
X10.575Y-3.45
X10.6Y-3.3
X10.6Y-4.65
X10.625Y-2.625
X10.65Y-1.525
X10.65Y-3.15
X10.675Y-4.45
X10.7Y-2.25
X10.7Y-3.2
X10.7Y-4.55
X10.7Y-9.05
X10.725Y-4.75
X10.725Y-4.275
X10.75Y-3.125
X10.75Y-6.6
X10.75Y-3.325
X10.8Y-3.825
X10.8Y-4.75
X10.85Y-1.875
X10.9Y-3.4
X10.9Y-4.35
X10.9Y-5.8
X10.9Y-6.65
X10.925Y-3.8
X10.95Y-2.65
X11.0Y-2.325
X11.0Y-3.325
X11.0Y-3.875
X11.05Y-4.775
X11.05Y-4.35
X11.1Y-1.35
X11.1Y-9.1
X11.15Y-3.325
X11.15Y-3.875
X11.15Y-4.275
X11.2Y-2.3
X11.2Y-3.1
X11.2Y-8.25
X11.25Y-1.875
X11.25Y-2.875
X11.25Y-6.225
X11.3Y-3.8
X11.3Y-3.325
X11.35Y-2.3
X11.35Y-4.425
X11.4Y-4.375
X11.4Y-8.2
X11.45Y-1.6
X11.45Y-5.0
X11.45Y-8.3
X11.475Y-1.275
X11.475Y-2.65
X11.5Y-3.375
X11.525Y-1.175
X11.55Y-2.475
X11.55Y-3.775
X11.55Y-4.075
X11.55Y-5.85
X11.57Y-5.0
X11.6Y-3.1
X11.625Y-4.8
X11.675Y-4.675
X11.7Y-1.55
X11.7Y-2.5
X11.7Y-3.525
X11.7Y-3.625
X11.7Y-4.2
X11.725Y-1.225
X11.725Y-3.05
X11.75Y-3.575
X11.75Y-5.85
X11.75Y-6.2
X11.8Y-4.1
X11.85Y-1.35
X11.85Y-4.8
X11.85Y-5.4
X11.85Y-6.2
X11.85Y-6.6
X11.85Y-7.4
X11.9Y-1.85
X11.9Y-3.1
X11.925Y-2.375
X11.95Y-1.425
X11.95Y-2.775
X11.95Y-2.875
X11.95Y-4.35
X12.0Y-3.4
X12.0Y-5.85
X12.05Y-1.9
X12.05Y-2.4
X12.05Y-2.6
X12.05Y-4.65
X12.1Y-8.35
X12.1Y-3.6
X12.1Y-9.1
X12.15Y-1.9
X12.15Y-2.05
X12.15Y-3.45
X12.15Y-4.775
X12.2Y-1.35
X12.2Y-2.35
X12.2Y-2.6
X12.2Y-2.825
X12.25Y-4.125
X12.25Y-4.725
X12.25Y-6.25
X12.25Y-8.35
X12.35Y-3.1
X12.4Y-4.6
X12.4Y-8.45
X12.45Y-1.8
X12.45Y-2.9
X12.55Y-2.35
X12.55Y-1.525
X12.55Y-2.5
X12.575Y-3.125
X12.6Y-3.05
X12.6Y-7.65
X12.6Y-8.0
X12.65Y-4.3
X12.65Y-8.55
X12.675Y-3.275
X12.7Y-1.95
X12.7Y-3.9
X12.75Y-2.1
T4
X2.7Y-4.8502
X2.7Y-4.9502
T5
X1.4Y-4.2
X1.4Y-4.4
X1.4Y-4.6
X1.4Y-4.9
X1.7Y-4.2
X1.7Y-4.4
X1.7Y-4.6
X1.7Y-4.9
T6
X8.3Y-1.4
X8.4Y-1.4
X8.6Y-1.4
X12.55Y-8.175
X12.55Y-8.275
X12.55Y-8.375
X12.55Y-8.475
X12.7Y-4.9
X12.7Y-5.0
X12.8Y-4.9
X12.8Y-5.0
X12.825Y-4.325
X12.825Y-4.425
T7
X1.1Y-6.9
X1.1Y-7.4
T8
X1.1063Y-2.4031
X1.1063Y-2.6
X1.1063Y-2.7969
X1.1063Y-3.3031
X1.1063Y-3.5
X1.1063Y-3.6969
X1.5Y-2.3047
X1.5Y-2.6
X1.5Y-2.8953
X1.5Y-3.2047
X1.5Y-3.5
X1.5Y-3.7953
X1.5984Y-2.4031
X1.5984Y-2.7969
X1.5984Y-3.3031
X1.5984Y-3.6969
T9
X2.1264Y-1.25
X2.2823Y-1.25
X2.4382Y-1.25
X2.5941Y-1.25
X2.75Y-1.25
X3.0764Y-1.25
X3.2323Y-1.25
X3.3882Y-1.25
X3.5441Y-1.25
X3.7Y-1.25
T10
X1.9705Y-1.25
X2.9205Y-1.25
X4.3Y-1.3
X4.3Y-1.6
X4.6Y-1.45
T11
X1.375Y-1.2
X12.8Y-5.8
M30
