G04 (created by PCBNEW-RS274X (2011-04-29 BZR 2986)-stable) date 2012-10-07 12:58:47*
G01*
G70*
G90*
%MOIN*%
G04 Gerber Fmt 3.4, Leading zero omitted, Abs format*
%FSLAX34Y34*%
G04 APERTURE LIST*
%ADD10C,0.001000*%
%ADD11C,0.012000*%
%ADD12R,0.075000X0.075000*%
%ADD13C,0.075000*%
%ADD14R,0.100000X0.100000*%
%ADD15C,0.100000*%
%ADD16R,0.090000X0.090000*%
%ADD17C,0.090000*%
%ADD18R,0.080000X0.080000*%
%ADD19C,0.080000*%
%ADD20C,0.138100*%
%ADD21R,0.079100X0.079100*%
%ADD22C,0.079100*%
%ADD23C,0.085000*%
%ADD24C,0.220000*%
G04 APERTURE END LIST*
G54D10*
X04000Y-04000D02*
X161350Y-04000D01*
X161350Y-113000D01*
X04000Y-113000D01*
X04000Y-04000D01*
X04700Y-04700D02*
X160650Y-04700D01*
X160650Y-112300D01*
X04700Y-112300D01*
X04700Y-04700D01*
X26470Y-04000D02*
X26470Y-04700D01*
X15383Y-04552D02*
X15097Y-04552D01*
X15240Y-04552D02*
X15240Y-04052D01*
X15192Y-04124D01*
X15145Y-04171D01*
X15097Y-04195D01*
X26470Y-113000D02*
X26470Y-112300D01*
X15383Y-112852D02*
X15097Y-112852D01*
X15240Y-112852D02*
X15240Y-112352D01*
X15192Y-112424D01*
X15145Y-112471D01*
X15097Y-112495D01*
X48940Y-04000D02*
X48940Y-04700D01*
X37567Y-04100D02*
X37591Y-04076D01*
X37639Y-04052D01*
X37758Y-04052D01*
X37805Y-04076D01*
X37829Y-04100D01*
X37853Y-04148D01*
X37853Y-04195D01*
X37829Y-04267D01*
X37543Y-04552D01*
X37853Y-04552D01*
X48940Y-113000D02*
X48940Y-112300D01*
X37567Y-112400D02*
X37591Y-112376D01*
X37639Y-112352D01*
X37758Y-112352D01*
X37805Y-112376D01*
X37829Y-112400D01*
X37853Y-112448D01*
X37853Y-112495D01*
X37829Y-112567D01*
X37543Y-112852D01*
X37853Y-112852D01*
X71410Y-04000D02*
X71410Y-04700D01*
X60013Y-04052D02*
X60323Y-04052D01*
X60156Y-04243D01*
X60228Y-04243D01*
X60275Y-04267D01*
X60299Y-04290D01*
X60323Y-04338D01*
X60323Y-04457D01*
X60299Y-04505D01*
X60275Y-04529D01*
X60228Y-04552D01*
X60085Y-04552D01*
X60037Y-04529D01*
X60013Y-04505D01*
X71410Y-113000D02*
X71410Y-112300D01*
X60013Y-112352D02*
X60323Y-112352D01*
X60156Y-112543D01*
X60228Y-112543D01*
X60275Y-112567D01*
X60299Y-112590D01*
X60323Y-112638D01*
X60323Y-112757D01*
X60299Y-112805D01*
X60275Y-112829D01*
X60228Y-112852D01*
X60085Y-112852D01*
X60037Y-112829D01*
X60013Y-112805D01*
X93880Y-04000D02*
X93880Y-04700D01*
X82745Y-04219D02*
X82745Y-04552D01*
X82626Y-04029D02*
X82507Y-04386D01*
X82817Y-04386D01*
X93880Y-113000D02*
X93880Y-112300D01*
X82745Y-112519D02*
X82745Y-112852D01*
X82626Y-112329D02*
X82507Y-112686D01*
X82817Y-112686D01*
X116350Y-04000D02*
X116350Y-04700D01*
X105239Y-04052D02*
X105001Y-04052D01*
X104977Y-04290D01*
X105001Y-04267D01*
X105049Y-04243D01*
X105168Y-04243D01*
X105215Y-04267D01*
X105239Y-04290D01*
X105263Y-04338D01*
X105263Y-04457D01*
X105239Y-04505D01*
X105215Y-04529D01*
X105168Y-04552D01*
X105049Y-04552D01*
X105001Y-04529D01*
X104977Y-04505D01*
X116350Y-113000D02*
X116350Y-112300D01*
X105239Y-112352D02*
X105001Y-112352D01*
X104977Y-112590D01*
X105001Y-112567D01*
X105049Y-112543D01*
X105168Y-112543D01*
X105215Y-112567D01*
X105239Y-112590D01*
X105263Y-112638D01*
X105263Y-112757D01*
X105239Y-112805D01*
X105215Y-112829D01*
X105168Y-112852D01*
X105049Y-112852D01*
X105001Y-112829D01*
X104977Y-112805D01*
X138820Y-04000D02*
X138820Y-04700D01*
X127685Y-04052D02*
X127590Y-04052D01*
X127542Y-04076D01*
X127519Y-04100D01*
X127471Y-04171D01*
X127447Y-04267D01*
X127447Y-04457D01*
X127471Y-04505D01*
X127495Y-04529D01*
X127542Y-04552D01*
X127638Y-04552D01*
X127685Y-04529D01*
X127709Y-04505D01*
X127733Y-04457D01*
X127733Y-04338D01*
X127709Y-04290D01*
X127685Y-04267D01*
X127638Y-04243D01*
X127542Y-04243D01*
X127495Y-04267D01*
X127471Y-04290D01*
X127447Y-04338D01*
X138820Y-113000D02*
X138820Y-112300D01*
X127685Y-112352D02*
X127590Y-112352D01*
X127542Y-112376D01*
X127519Y-112400D01*
X127471Y-112471D01*
X127447Y-112567D01*
X127447Y-112757D01*
X127471Y-112805D01*
X127495Y-112829D01*
X127542Y-112852D01*
X127638Y-112852D01*
X127685Y-112829D01*
X127709Y-112805D01*
X127733Y-112757D01*
X127733Y-112638D01*
X127709Y-112590D01*
X127685Y-112567D01*
X127638Y-112543D01*
X127542Y-112543D01*
X127495Y-112567D01*
X127471Y-112590D01*
X127447Y-112638D01*
X149893Y-04052D02*
X150227Y-04052D01*
X150012Y-04552D01*
X149893Y-112352D02*
X150227Y-112352D01*
X150012Y-112852D01*
X04000Y-25800D02*
X04700Y-25800D01*
X04231Y-14960D02*
X04469Y-14960D01*
X04184Y-15102D02*
X04350Y-14602D01*
X04517Y-15102D01*
X161350Y-25800D02*
X160650Y-25800D01*
X160881Y-14960D02*
X161119Y-14960D01*
X160834Y-15102D02*
X161000Y-14602D01*
X161167Y-15102D01*
X04000Y-47600D02*
X04700Y-47600D01*
X04386Y-36640D02*
X04457Y-36664D01*
X04481Y-36688D01*
X04505Y-36736D01*
X04505Y-36807D01*
X04481Y-36855D01*
X04457Y-36879D01*
X04410Y-36902D01*
X04219Y-36902D01*
X04219Y-36402D01*
X04386Y-36402D01*
X04433Y-36426D01*
X04457Y-36450D01*
X04481Y-36498D01*
X04481Y-36545D01*
X04457Y-36593D01*
X04433Y-36617D01*
X04386Y-36640D01*
X04219Y-36640D01*
X161350Y-47600D02*
X160650Y-47600D01*
X161036Y-36640D02*
X161107Y-36664D01*
X161131Y-36688D01*
X161155Y-36736D01*
X161155Y-36807D01*
X161131Y-36855D01*
X161107Y-36879D01*
X161060Y-36902D01*
X160869Y-36902D01*
X160869Y-36402D01*
X161036Y-36402D01*
X161083Y-36426D01*
X161107Y-36450D01*
X161131Y-36498D01*
X161131Y-36545D01*
X161107Y-36593D01*
X161083Y-36617D01*
X161036Y-36640D01*
X160869Y-36640D01*
X04000Y-69400D02*
X04700Y-69400D01*
X04505Y-58655D02*
X04481Y-58679D01*
X04410Y-58702D01*
X04362Y-58702D01*
X04290Y-58679D01*
X04243Y-58631D01*
X04219Y-58583D01*
X04195Y-58488D01*
X04195Y-58417D01*
X04219Y-58321D01*
X04243Y-58274D01*
X04290Y-58226D01*
X04362Y-58202D01*
X04410Y-58202D01*
X04481Y-58226D01*
X04505Y-58250D01*
X161350Y-69400D02*
X160650Y-69400D01*
X161155Y-58655D02*
X161131Y-58679D01*
X161060Y-58702D01*
X161012Y-58702D01*
X160940Y-58679D01*
X160893Y-58631D01*
X160869Y-58583D01*
X160845Y-58488D01*
X160845Y-58417D01*
X160869Y-58321D01*
X160893Y-58274D01*
X160940Y-58226D01*
X161012Y-58202D01*
X161060Y-58202D01*
X161131Y-58226D01*
X161155Y-58250D01*
X04000Y-91200D02*
X04700Y-91200D01*
X04219Y-80502D02*
X04219Y-80002D01*
X04338Y-80002D01*
X04410Y-80026D01*
X04457Y-80074D01*
X04481Y-80121D01*
X04505Y-80217D01*
X04505Y-80288D01*
X04481Y-80383D01*
X04457Y-80431D01*
X04410Y-80479D01*
X04338Y-80502D01*
X04219Y-80502D01*
X161350Y-91200D02*
X160650Y-91200D01*
X160869Y-80502D02*
X160869Y-80002D01*
X160988Y-80002D01*
X161060Y-80026D01*
X161107Y-80074D01*
X161131Y-80121D01*
X161155Y-80217D01*
X161155Y-80288D01*
X161131Y-80383D01*
X161107Y-80431D01*
X161060Y-80479D01*
X160988Y-80502D01*
X160869Y-80502D01*
X04243Y-102040D02*
X04410Y-102040D01*
X04481Y-102302D02*
X04243Y-102302D01*
X04243Y-101802D01*
X04481Y-101802D01*
X160893Y-102040D02*
X161060Y-102040D01*
X161131Y-102302D02*
X160893Y-102302D01*
X160893Y-101802D01*
X161131Y-101802D01*
G54D11*
X127793Y-110743D02*
X127793Y-110143D01*
X127936Y-110143D01*
X128021Y-110171D01*
X128079Y-110229D01*
X128107Y-110286D01*
X128136Y-110400D01*
X128136Y-110486D01*
X128107Y-110600D01*
X128079Y-110657D01*
X128021Y-110714D01*
X127936Y-110743D01*
X127793Y-110743D01*
X128650Y-110743D02*
X128650Y-110429D01*
X128621Y-110371D01*
X128564Y-110343D01*
X128450Y-110343D01*
X128393Y-110371D01*
X128650Y-110714D02*
X128593Y-110743D01*
X128450Y-110743D01*
X128393Y-110714D01*
X128364Y-110657D01*
X128364Y-110600D01*
X128393Y-110543D01*
X128450Y-110514D01*
X128593Y-110514D01*
X128650Y-110486D01*
X128850Y-110343D02*
X129079Y-110343D01*
X128936Y-110143D02*
X128936Y-110657D01*
X128964Y-110714D01*
X129022Y-110743D01*
X129079Y-110743D01*
X129507Y-110714D02*
X129450Y-110743D01*
X129336Y-110743D01*
X129279Y-110714D01*
X129250Y-110657D01*
X129250Y-110429D01*
X129279Y-110371D01*
X129336Y-110343D01*
X129450Y-110343D01*
X129507Y-110371D01*
X129536Y-110429D01*
X129536Y-110486D01*
X129250Y-110543D01*
X129793Y-110686D02*
X129821Y-110714D01*
X129793Y-110743D01*
X129764Y-110714D01*
X129793Y-110686D01*
X129793Y-110743D01*
X129793Y-110371D02*
X129821Y-110400D01*
X129793Y-110429D01*
X129764Y-110400D01*
X129793Y-110371D01*
X129793Y-110429D01*
X130479Y-110143D02*
X130879Y-110143D01*
X130622Y-110743D01*
X131650Y-110743D02*
X131592Y-110714D01*
X131564Y-110686D01*
X131535Y-110629D01*
X131535Y-110457D01*
X131564Y-110400D01*
X131592Y-110371D01*
X131650Y-110343D01*
X131735Y-110343D01*
X131792Y-110371D01*
X131821Y-110400D01*
X131850Y-110457D01*
X131850Y-110629D01*
X131821Y-110686D01*
X131792Y-110714D01*
X131735Y-110743D01*
X131650Y-110743D01*
X132364Y-110714D02*
X132307Y-110743D01*
X132193Y-110743D01*
X132135Y-110714D01*
X132107Y-110686D01*
X132078Y-110629D01*
X132078Y-110457D01*
X132107Y-110400D01*
X132135Y-110371D01*
X132193Y-110343D01*
X132307Y-110343D01*
X132364Y-110371D01*
X132535Y-110343D02*
X132764Y-110343D01*
X132621Y-110143D02*
X132621Y-110657D01*
X132649Y-110714D01*
X132707Y-110743D01*
X132764Y-110743D01*
X133392Y-110200D02*
X133421Y-110171D01*
X133478Y-110143D01*
X133621Y-110143D01*
X133678Y-110171D01*
X133707Y-110200D01*
X133735Y-110257D01*
X133735Y-110314D01*
X133707Y-110400D01*
X133364Y-110743D01*
X133735Y-110743D01*
X134106Y-110143D02*
X134163Y-110143D01*
X134220Y-110171D01*
X134249Y-110200D01*
X134278Y-110257D01*
X134306Y-110371D01*
X134306Y-110514D01*
X134278Y-110629D01*
X134249Y-110686D01*
X134220Y-110714D01*
X134163Y-110743D01*
X134106Y-110743D01*
X134049Y-110714D01*
X134020Y-110686D01*
X133992Y-110629D01*
X133963Y-110514D01*
X133963Y-110371D01*
X133992Y-110257D01*
X134020Y-110200D01*
X134049Y-110171D01*
X134106Y-110143D01*
X134877Y-110743D02*
X134534Y-110743D01*
X134706Y-110743D02*
X134706Y-110143D01*
X134649Y-110229D01*
X134591Y-110286D01*
X134534Y-110314D01*
X135105Y-110200D02*
X135134Y-110171D01*
X135191Y-110143D01*
X135334Y-110143D01*
X135391Y-110171D01*
X135420Y-110200D01*
X135448Y-110257D01*
X135448Y-110314D01*
X135420Y-110400D01*
X135077Y-110743D01*
X135448Y-110743D01*
G54D10*
X119393Y-111943D02*
X119393Y-111343D01*
X119736Y-111943D02*
X119479Y-111600D01*
X119736Y-111343D02*
X119393Y-111686D01*
X119993Y-111943D02*
X119993Y-111543D01*
X119993Y-111343D02*
X119964Y-111371D01*
X119993Y-111400D01*
X120021Y-111371D01*
X119993Y-111343D01*
X119993Y-111400D01*
X120622Y-111886D02*
X120593Y-111914D01*
X120507Y-111943D01*
X120450Y-111943D01*
X120365Y-111914D01*
X120307Y-111857D01*
X120279Y-111800D01*
X120250Y-111686D01*
X120250Y-111600D01*
X120279Y-111486D01*
X120307Y-111429D01*
X120365Y-111371D01*
X120450Y-111343D01*
X120507Y-111343D01*
X120593Y-111371D01*
X120622Y-111400D01*
X121136Y-111943D02*
X121136Y-111629D01*
X121107Y-111571D01*
X121050Y-111543D01*
X120936Y-111543D01*
X120879Y-111571D01*
X121136Y-111914D02*
X121079Y-111943D01*
X120936Y-111943D01*
X120879Y-111914D01*
X120850Y-111857D01*
X120850Y-111800D01*
X120879Y-111743D01*
X120936Y-111714D01*
X121079Y-111714D01*
X121136Y-111686D01*
X121679Y-111943D02*
X121679Y-111343D01*
X121679Y-111914D02*
X121622Y-111943D01*
X121508Y-111943D01*
X121450Y-111914D01*
X121422Y-111886D01*
X121393Y-111829D01*
X121393Y-111657D01*
X121422Y-111600D01*
X121450Y-111571D01*
X121508Y-111543D01*
X121622Y-111543D01*
X121679Y-111571D01*
X122422Y-111629D02*
X122622Y-111629D01*
X122708Y-111943D02*
X122422Y-111943D01*
X122422Y-111343D01*
X122708Y-111343D01*
X122965Y-111886D02*
X122993Y-111914D01*
X122965Y-111943D01*
X122936Y-111914D01*
X122965Y-111886D01*
X122965Y-111943D01*
X123251Y-111943D02*
X123251Y-111343D01*
X123394Y-111343D01*
X123479Y-111371D01*
X123537Y-111429D01*
X123565Y-111486D01*
X123594Y-111600D01*
X123594Y-111686D01*
X123565Y-111800D01*
X123537Y-111857D01*
X123479Y-111914D01*
X123394Y-111943D01*
X123251Y-111943D01*
X123851Y-111886D02*
X123879Y-111914D01*
X123851Y-111943D01*
X123822Y-111914D01*
X123851Y-111886D01*
X123851Y-111943D01*
X124108Y-111771D02*
X124394Y-111771D01*
X124051Y-111943D02*
X124251Y-111343D01*
X124451Y-111943D01*
X124651Y-111886D02*
X124679Y-111914D01*
X124651Y-111943D01*
X124622Y-111914D01*
X124651Y-111886D01*
X124651Y-111943D01*
G54D11*
X152936Y-110743D02*
X152736Y-110457D01*
X152593Y-110743D02*
X152593Y-110143D01*
X152821Y-110143D01*
X152879Y-110171D01*
X152907Y-110200D01*
X152936Y-110257D01*
X152936Y-110343D01*
X152907Y-110400D01*
X152879Y-110429D01*
X152821Y-110457D01*
X152593Y-110457D01*
X153421Y-110714D02*
X153364Y-110743D01*
X153250Y-110743D01*
X153193Y-110714D01*
X153164Y-110657D01*
X153164Y-110429D01*
X153193Y-110371D01*
X153250Y-110343D01*
X153364Y-110343D01*
X153421Y-110371D01*
X153450Y-110429D01*
X153450Y-110486D01*
X153164Y-110543D01*
X153650Y-110343D02*
X153793Y-110743D01*
X153935Y-110343D01*
X154164Y-110686D02*
X154192Y-110714D01*
X154164Y-110743D01*
X154135Y-110714D01*
X154164Y-110686D01*
X154164Y-110743D01*
X154164Y-110371D02*
X154192Y-110400D01*
X154164Y-110429D01*
X154135Y-110400D01*
X154164Y-110371D01*
X154164Y-110429D01*
G54D10*
X119364Y-110714D02*
X119450Y-110743D01*
X119593Y-110743D01*
X119650Y-110714D01*
X119679Y-110686D01*
X119707Y-110629D01*
X119707Y-110571D01*
X119679Y-110514D01*
X119650Y-110486D01*
X119593Y-110457D01*
X119479Y-110429D01*
X119421Y-110400D01*
X119393Y-110371D01*
X119364Y-110314D01*
X119364Y-110257D01*
X119393Y-110200D01*
X119421Y-110171D01*
X119479Y-110143D01*
X119621Y-110143D01*
X119707Y-110171D01*
X119964Y-110743D02*
X119964Y-110343D01*
X119964Y-110143D02*
X119935Y-110171D01*
X119964Y-110200D01*
X119992Y-110171D01*
X119964Y-110143D01*
X119964Y-110200D01*
X120193Y-110343D02*
X120507Y-110343D01*
X120193Y-110743D01*
X120507Y-110743D01*
X120964Y-110714D02*
X120907Y-110743D01*
X120793Y-110743D01*
X120736Y-110714D01*
X120707Y-110657D01*
X120707Y-110429D01*
X120736Y-110371D01*
X120793Y-110343D01*
X120907Y-110343D01*
X120964Y-110371D01*
X120993Y-110429D01*
X120993Y-110486D01*
X120707Y-110543D01*
X121250Y-110686D02*
X121278Y-110714D01*
X121250Y-110743D01*
X121221Y-110714D01*
X121250Y-110686D01*
X121250Y-110743D01*
X121250Y-110371D02*
X121278Y-110400D01*
X121250Y-110429D01*
X121221Y-110400D01*
X121250Y-110371D01*
X121250Y-110429D01*
X121964Y-110571D02*
X122250Y-110571D01*
X121907Y-110743D02*
X122107Y-110143D01*
X122307Y-110743D01*
X122450Y-110143D02*
X122821Y-110143D01*
X122621Y-110371D01*
X122707Y-110371D01*
X122764Y-110400D01*
X122793Y-110429D01*
X122821Y-110486D01*
X122821Y-110629D01*
X122793Y-110686D01*
X122764Y-110714D01*
X122707Y-110743D01*
X122535Y-110743D01*
X122478Y-110714D01*
X122450Y-110686D01*
X152593Y-111943D02*
X152593Y-111343D01*
X153136Y-111943D02*
X153136Y-111343D01*
X153136Y-111914D02*
X153079Y-111943D01*
X152965Y-111943D01*
X152907Y-111914D01*
X152879Y-111886D01*
X152850Y-111829D01*
X152850Y-111657D01*
X152879Y-111600D01*
X152907Y-111571D01*
X152965Y-111543D01*
X153079Y-111543D01*
X153136Y-111571D01*
X153422Y-111886D02*
X153450Y-111914D01*
X153422Y-111943D01*
X153393Y-111914D01*
X153422Y-111886D01*
X153422Y-111943D01*
X153422Y-111571D02*
X153450Y-111600D01*
X153422Y-111629D01*
X153393Y-111600D01*
X153422Y-111571D01*
X153422Y-111629D01*
X154479Y-111943D02*
X154136Y-111943D01*
X154308Y-111943D02*
X154308Y-111343D01*
X154251Y-111429D01*
X154193Y-111486D01*
X154136Y-111514D01*
X155164Y-111314D02*
X154650Y-112086D01*
X155679Y-111943D02*
X155336Y-111943D01*
X155508Y-111943D02*
X155508Y-111343D01*
X155451Y-111429D01*
X155393Y-111486D01*
X155336Y-111514D01*
G54D11*
X119307Y-108943D02*
X119650Y-108943D01*
X119479Y-109543D02*
X119479Y-108943D01*
X119850Y-109543D02*
X119850Y-109143D01*
X119850Y-108943D02*
X119821Y-108971D01*
X119850Y-109000D01*
X119878Y-108971D01*
X119850Y-108943D01*
X119850Y-109000D01*
X120050Y-109143D02*
X120279Y-109143D01*
X120136Y-108943D02*
X120136Y-109457D01*
X120164Y-109514D01*
X120222Y-109543D01*
X120279Y-109543D01*
X120565Y-109543D02*
X120507Y-109514D01*
X120479Y-109457D01*
X120479Y-108943D01*
X121021Y-109514D02*
X120964Y-109543D01*
X120850Y-109543D01*
X120793Y-109514D01*
X120764Y-109457D01*
X120764Y-109229D01*
X120793Y-109171D01*
X120850Y-109143D01*
X120964Y-109143D01*
X121021Y-109171D01*
X121050Y-109229D01*
X121050Y-109286D01*
X120764Y-109343D01*
X121307Y-109486D02*
X121335Y-109514D01*
X121307Y-109543D01*
X121278Y-109514D01*
X121307Y-109486D01*
X121307Y-109543D01*
X121307Y-109171D02*
X121335Y-109200D01*
X121307Y-109229D01*
X121278Y-109200D01*
X121307Y-109171D01*
X121307Y-109229D01*
G54D10*
X119593Y-106829D02*
X119393Y-106829D01*
X119393Y-107143D02*
X119393Y-106543D01*
X119679Y-106543D01*
X119907Y-107143D02*
X119907Y-106743D01*
X119907Y-106543D02*
X119878Y-106571D01*
X119907Y-106600D01*
X119935Y-106571D01*
X119907Y-106543D01*
X119907Y-106600D01*
X120279Y-107143D02*
X120221Y-107114D01*
X120193Y-107057D01*
X120193Y-106543D01*
X120735Y-107114D02*
X120678Y-107143D01*
X120564Y-107143D01*
X120507Y-107114D01*
X120478Y-107057D01*
X120478Y-106829D01*
X120507Y-106771D01*
X120564Y-106743D01*
X120678Y-106743D01*
X120735Y-106771D01*
X120764Y-106829D01*
X120764Y-106886D01*
X120478Y-106943D01*
X121021Y-107086D02*
X121049Y-107114D01*
X121021Y-107143D01*
X120992Y-107114D01*
X121021Y-107086D01*
X121021Y-107143D01*
X121021Y-106771D02*
X121049Y-106800D01*
X121021Y-106829D01*
X120992Y-106800D01*
X121021Y-106771D01*
X121021Y-106829D01*
X122021Y-106543D02*
X121907Y-106543D01*
X121850Y-106571D01*
X121821Y-106600D01*
X121764Y-106686D01*
X121735Y-106800D01*
X121735Y-107029D01*
X121764Y-107086D01*
X121792Y-107114D01*
X121850Y-107143D01*
X121964Y-107143D01*
X122021Y-107114D01*
X122050Y-107086D01*
X122078Y-107029D01*
X122078Y-106886D01*
X122050Y-106829D01*
X122021Y-106800D01*
X121964Y-106771D01*
X121850Y-106771D01*
X121792Y-106800D01*
X121764Y-106829D01*
X121735Y-106886D01*
X122592Y-106743D02*
X122592Y-107143D01*
X122449Y-106514D02*
X122306Y-106943D01*
X122678Y-106943D01*
X122763Y-107200D02*
X123220Y-107200D01*
X123334Y-106600D02*
X123363Y-106571D01*
X123420Y-106543D01*
X123563Y-106543D01*
X123620Y-106571D01*
X123649Y-106600D01*
X123677Y-106657D01*
X123677Y-106714D01*
X123649Y-106800D01*
X123306Y-107143D01*
X123677Y-107143D01*
X124220Y-106543D02*
X123934Y-106543D01*
X123905Y-106829D01*
X123934Y-106800D01*
X123991Y-106771D01*
X124134Y-106771D01*
X124191Y-106800D01*
X124220Y-106829D01*
X124248Y-106886D01*
X124248Y-107029D01*
X124220Y-107086D01*
X124191Y-107114D01*
X124134Y-107143D01*
X123991Y-107143D01*
X123934Y-107114D01*
X123905Y-107086D01*
X124762Y-106543D02*
X124648Y-106543D01*
X124591Y-106571D01*
X124562Y-106600D01*
X124505Y-106686D01*
X124476Y-106800D01*
X124476Y-107029D01*
X124505Y-107086D01*
X124533Y-107114D01*
X124591Y-107143D01*
X124705Y-107143D01*
X124762Y-107114D01*
X124791Y-107086D01*
X124819Y-107029D01*
X124819Y-106886D01*
X124791Y-106829D01*
X124762Y-106800D01*
X124705Y-106771D01*
X124591Y-106771D01*
X124533Y-106800D01*
X124505Y-106829D01*
X124476Y-106886D01*
X125076Y-107143D02*
X125076Y-106543D01*
X125419Y-107143D02*
X125162Y-106800D01*
X125419Y-106543D02*
X125076Y-106886D01*
X125876Y-106829D02*
X125962Y-106857D01*
X125990Y-106886D01*
X126019Y-106943D01*
X126019Y-107029D01*
X125990Y-107086D01*
X125962Y-107114D01*
X125904Y-107143D01*
X125676Y-107143D01*
X125676Y-106543D01*
X125876Y-106543D01*
X125933Y-106571D01*
X125962Y-106600D01*
X125990Y-106657D01*
X125990Y-106714D01*
X125962Y-106771D01*
X125933Y-106800D01*
X125876Y-106829D01*
X125676Y-106829D01*
X126133Y-107200D02*
X126590Y-107200D01*
X126704Y-107114D02*
X126790Y-107143D01*
X126933Y-107143D01*
X126990Y-107114D01*
X127019Y-107086D01*
X127047Y-107029D01*
X127047Y-106971D01*
X127019Y-106914D01*
X126990Y-106886D01*
X126933Y-106857D01*
X126819Y-106829D01*
X126761Y-106800D01*
X126733Y-106771D01*
X126704Y-106714D01*
X126704Y-106657D01*
X126733Y-106600D01*
X126761Y-106571D01*
X126819Y-106543D01*
X126961Y-106543D01*
X127047Y-106571D01*
X127418Y-106857D02*
X127418Y-107143D01*
X127218Y-106543D02*
X127418Y-106857D01*
X127618Y-106543D01*
X127789Y-107114D02*
X127875Y-107143D01*
X128018Y-107143D01*
X128075Y-107114D01*
X128104Y-107086D01*
X128132Y-107029D01*
X128132Y-106971D01*
X128104Y-106914D01*
X128075Y-106886D01*
X128018Y-106857D01*
X127904Y-106829D01*
X127846Y-106800D01*
X127818Y-106771D01*
X127789Y-106714D01*
X127789Y-106657D01*
X127818Y-106600D01*
X127846Y-106571D01*
X127904Y-106543D01*
X128046Y-106543D01*
X128132Y-106571D01*
X128303Y-106543D02*
X128646Y-106543D01*
X128475Y-107143D02*
X128475Y-106543D01*
X128846Y-106829D02*
X129046Y-106829D01*
X129132Y-107143D02*
X128846Y-107143D01*
X128846Y-106543D01*
X129132Y-106543D01*
X129389Y-107143D02*
X129389Y-106543D01*
X129589Y-106971D01*
X129789Y-106543D01*
X129789Y-107143D01*
X129932Y-107200D02*
X130389Y-107200D01*
X130732Y-106829D02*
X130818Y-106857D01*
X130846Y-106886D01*
X130875Y-106943D01*
X130875Y-107029D01*
X130846Y-107086D01*
X130818Y-107114D01*
X130760Y-107143D01*
X130532Y-107143D01*
X130532Y-106543D01*
X130732Y-106543D01*
X130789Y-106571D01*
X130818Y-106600D01*
X130846Y-106657D01*
X130846Y-106714D01*
X130818Y-106771D01*
X130789Y-106800D01*
X130732Y-106829D01*
X130532Y-106829D01*
X131246Y-106543D02*
X131360Y-106543D01*
X131418Y-106571D01*
X131475Y-106629D01*
X131503Y-106743D01*
X131503Y-106943D01*
X131475Y-107057D01*
X131418Y-107114D01*
X131360Y-107143D01*
X131246Y-107143D01*
X131189Y-107114D01*
X131132Y-107057D01*
X131103Y-106943D01*
X131103Y-106743D01*
X131132Y-106629D01*
X131189Y-106571D01*
X131246Y-106543D01*
X131732Y-106971D02*
X132018Y-106971D01*
X131675Y-107143D02*
X131875Y-106543D01*
X132075Y-107143D01*
X132618Y-107143D02*
X132418Y-106857D01*
X132275Y-107143D02*
X132275Y-106543D01*
X132503Y-106543D01*
X132561Y-106571D01*
X132589Y-106600D01*
X132618Y-106657D01*
X132618Y-106743D01*
X132589Y-106800D01*
X132561Y-106829D01*
X132503Y-106857D01*
X132275Y-106857D01*
X132875Y-107143D02*
X132875Y-106543D01*
X133018Y-106543D01*
X133103Y-106571D01*
X133161Y-106629D01*
X133189Y-106686D01*
X133218Y-106800D01*
X133218Y-106886D01*
X133189Y-107000D01*
X133161Y-107057D01*
X133103Y-107114D01*
X133018Y-107143D01*
X132875Y-107143D01*
X133332Y-107200D02*
X133789Y-107200D01*
X133932Y-107143D02*
X133932Y-106743D01*
X133932Y-106857D02*
X133960Y-106800D01*
X133989Y-106771D01*
X134046Y-106743D01*
X134103Y-106743D01*
X134531Y-107114D02*
X134474Y-107143D01*
X134360Y-107143D01*
X134303Y-107114D01*
X134274Y-107057D01*
X134274Y-106829D01*
X134303Y-106771D01*
X134360Y-106743D01*
X134474Y-106743D01*
X134531Y-106771D01*
X134560Y-106829D01*
X134560Y-106886D01*
X134274Y-106943D01*
X134760Y-106743D02*
X134903Y-107143D01*
X135045Y-106743D01*
X135588Y-107143D02*
X135245Y-107143D01*
X135417Y-107143D02*
X135417Y-106543D01*
X135360Y-106629D01*
X135302Y-106686D01*
X135245Y-106714D01*
X135702Y-107200D02*
X136159Y-107200D01*
X136416Y-106543D02*
X136473Y-106543D01*
X136530Y-106571D01*
X136559Y-106600D01*
X136588Y-106657D01*
X136616Y-106771D01*
X136616Y-106914D01*
X136588Y-107029D01*
X136559Y-107086D01*
X136530Y-107114D01*
X136473Y-107143D01*
X136416Y-107143D01*
X136359Y-107114D01*
X136330Y-107086D01*
X136302Y-107029D01*
X136273Y-106914D01*
X136273Y-106771D01*
X136302Y-106657D01*
X136330Y-106600D01*
X136359Y-106571D01*
X136416Y-106543D01*
X137130Y-107143D02*
X137130Y-106829D01*
X137101Y-106771D01*
X137044Y-106743D01*
X136930Y-106743D01*
X136873Y-106771D01*
X137130Y-107114D02*
X137073Y-107143D01*
X136930Y-107143D01*
X136873Y-107114D01*
X136844Y-107057D01*
X136844Y-107000D01*
X136873Y-106943D01*
X136930Y-106914D01*
X137073Y-106914D01*
X137130Y-106886D01*
X137416Y-107086D02*
X137444Y-107114D01*
X137416Y-107143D01*
X137387Y-107114D01*
X137416Y-107086D01*
X137416Y-107143D01*
X137702Y-107143D02*
X137702Y-106543D01*
X137702Y-106771D02*
X137759Y-106743D01*
X137873Y-106743D01*
X137930Y-106771D01*
X137959Y-106800D01*
X137988Y-106857D01*
X137988Y-107029D01*
X137959Y-107086D01*
X137930Y-107114D01*
X137873Y-107143D01*
X137759Y-107143D01*
X137702Y-107114D01*
X138245Y-107143D02*
X138245Y-106743D01*
X138245Y-106857D02*
X138273Y-106800D01*
X138302Y-106771D01*
X138359Y-106743D01*
X138416Y-106743D01*
X138873Y-107143D02*
X138873Y-106543D01*
X138873Y-107114D02*
X138816Y-107143D01*
X138702Y-107143D01*
X138644Y-107114D01*
X138616Y-107086D01*
X138587Y-107029D01*
X138587Y-106857D01*
X138616Y-106800D01*
X138644Y-106771D01*
X138702Y-106743D01*
X138816Y-106743D01*
X138873Y-106771D01*
X119364Y-108314D02*
X119450Y-108343D01*
X119593Y-108343D01*
X119650Y-108314D01*
X119679Y-108286D01*
X119707Y-108229D01*
X119707Y-108171D01*
X119679Y-108114D01*
X119650Y-108086D01*
X119593Y-108057D01*
X119479Y-108029D01*
X119421Y-108000D01*
X119393Y-107971D01*
X119364Y-107914D01*
X119364Y-107857D01*
X119393Y-107800D01*
X119421Y-107771D01*
X119479Y-107743D01*
X119621Y-107743D01*
X119707Y-107771D01*
X119964Y-108343D02*
X119964Y-107743D01*
X120221Y-108343D02*
X120221Y-108029D01*
X120192Y-107971D01*
X120135Y-107943D01*
X120050Y-107943D01*
X119992Y-107971D01*
X119964Y-108000D01*
X120735Y-108314D02*
X120678Y-108343D01*
X120564Y-108343D01*
X120507Y-108314D01*
X120478Y-108257D01*
X120478Y-108029D01*
X120507Y-107971D01*
X120564Y-107943D01*
X120678Y-107943D01*
X120735Y-107971D01*
X120764Y-108029D01*
X120764Y-108086D01*
X120478Y-108143D01*
X121249Y-108314D02*
X121192Y-108343D01*
X121078Y-108343D01*
X121021Y-108314D01*
X120992Y-108257D01*
X120992Y-108029D01*
X121021Y-107971D01*
X121078Y-107943D01*
X121192Y-107943D01*
X121249Y-107971D01*
X121278Y-108029D01*
X121278Y-108086D01*
X120992Y-108143D01*
X121449Y-107943D02*
X121678Y-107943D01*
X121535Y-107743D02*
X121535Y-108257D01*
X121563Y-108314D01*
X121621Y-108343D01*
X121678Y-108343D01*
X121878Y-108286D02*
X121906Y-108314D01*
X121878Y-108343D01*
X121849Y-108314D01*
X121878Y-108286D01*
X121878Y-108343D01*
X121878Y-107971D02*
X121906Y-108000D01*
X121878Y-108029D01*
X121849Y-108000D01*
X121878Y-107971D01*
X121878Y-108029D01*
X122935Y-108343D02*
X122592Y-108343D01*
X122764Y-108343D02*
X122764Y-107743D01*
X122707Y-107829D01*
X122649Y-107886D01*
X122592Y-107914D01*
X123620Y-107714D02*
X123106Y-108486D01*
X124135Y-108343D02*
X123792Y-108343D01*
X123964Y-108343D02*
X123964Y-107743D01*
X123907Y-107829D01*
X123849Y-107886D01*
X123792Y-107914D01*
X118650Y-106300D02*
X118650Y-112300D01*
X118650Y-106300D02*
X160650Y-106300D01*
X118650Y-106300D02*
X160650Y-106300D01*
X118650Y-108700D02*
X160650Y-108700D01*
X151850Y-109900D02*
X151850Y-112300D01*
X118650Y-111100D02*
X160650Y-111100D01*
X118650Y-109900D02*
X160650Y-109900D01*
X125250Y-109900D02*
X125250Y-111100D01*
G54D12*
X118000Y-35000D03*
G54D13*
X119000Y-35000D03*
X120000Y-35000D03*
X121000Y-35000D03*
X121000Y-32000D03*
X120000Y-32000D03*
X119000Y-32000D03*
X118000Y-32000D03*
G54D14*
X15000Y-28953D03*
G54D15*
X15000Y-26000D03*
X15000Y-23047D03*
X15984Y-24031D03*
X15984Y-27969D03*
X11063Y-24031D03*
X11063Y-26000D03*
X11063Y-27969D03*
G54D14*
X15000Y-37953D03*
G54D15*
X15000Y-35000D03*
X15000Y-32047D03*
X15984Y-33031D03*
X15984Y-36969D03*
X11063Y-33031D03*
X11063Y-35000D03*
X11063Y-36969D03*
G54D16*
X128000Y-34000D03*
G54D17*
X128000Y-26000D03*
G54D18*
X128250Y-44250D03*
G54D19*
X128250Y-43250D03*
X128000Y-37000D03*
X123000Y-37000D03*
X128000Y-39000D03*
X123000Y-39000D03*
X128000Y-40000D03*
X123000Y-40000D03*
X125500Y-46000D03*
X125500Y-41000D03*
G54D18*
X127000Y-49000D03*
G54D19*
X128000Y-49000D03*
X127000Y-50000D03*
X128000Y-50000D03*
G54D13*
X116500Y-51000D03*
X116500Y-49000D03*
X116500Y-50000D03*
X126500Y-55000D03*
X126500Y-53000D03*
X126500Y-54000D03*
X126500Y-63000D03*
X126500Y-61000D03*
X126500Y-62000D03*
G54D16*
X128000Y-64000D03*
G54D17*
X128000Y-72000D03*
G54D13*
X116500Y-59000D03*
X116500Y-57000D03*
X116500Y-58000D03*
X116500Y-67000D03*
X116500Y-65000D03*
X116500Y-66000D03*
X116500Y-75000D03*
X116500Y-73000D03*
X116500Y-74000D03*
X126500Y-79000D03*
X126500Y-77000D03*
X126500Y-78000D03*
G54D18*
X125500Y-84750D03*
G54D19*
X125500Y-83750D03*
X125500Y-82750D03*
X125500Y-81750D03*
G54D13*
X120000Y-91000D03*
X118000Y-91000D03*
X119000Y-91000D03*
X116500Y-88000D03*
X116500Y-86000D03*
X116500Y-87000D03*
X96500Y-88000D03*
X96500Y-86000D03*
X96500Y-87000D03*
X106500Y-88000D03*
X106500Y-86000D03*
X106500Y-87000D03*
X110000Y-91000D03*
X108000Y-91000D03*
X109000Y-91000D03*
X100000Y-91000D03*
X98000Y-91000D03*
X99000Y-91000D03*
X106500Y-79000D03*
X106500Y-77000D03*
X106500Y-78000D03*
X106500Y-71000D03*
X106500Y-69000D03*
X106500Y-70000D03*
X106500Y-63000D03*
X106500Y-61000D03*
X106500Y-62000D03*
X106500Y-55000D03*
X106500Y-53000D03*
X106500Y-54000D03*
G54D12*
X98000Y-30000D03*
G54D13*
X99000Y-30000D03*
X100000Y-30000D03*
X101000Y-30000D03*
X102000Y-30000D03*
X103000Y-30000D03*
X104000Y-30000D03*
X105000Y-30000D03*
X105000Y-27000D03*
X104000Y-27000D03*
X103000Y-27000D03*
X102000Y-27000D03*
X101000Y-27000D03*
X100000Y-27000D03*
X99000Y-27000D03*
X98000Y-27000D03*
X104000Y-47000D03*
X102000Y-47000D03*
X103000Y-47000D03*
X96500Y-51000D03*
X96500Y-49000D03*
X96500Y-50000D03*
X96500Y-59000D03*
X96500Y-57000D03*
X96500Y-58000D03*
X96500Y-67000D03*
X96500Y-65000D03*
X96500Y-66000D03*
G54D12*
X88000Y-90000D03*
G54D13*
X89000Y-90000D03*
X90000Y-90000D03*
X91000Y-90000D03*
X92000Y-90000D03*
X93000Y-90000D03*
X94000Y-90000D03*
X95000Y-90000D03*
X95000Y-87000D03*
X94000Y-87000D03*
X93000Y-87000D03*
X92000Y-87000D03*
X91000Y-87000D03*
X90000Y-87000D03*
X89000Y-87000D03*
X88000Y-87000D03*
X90000Y-91000D03*
X88000Y-91000D03*
X89000Y-91000D03*
G54D12*
X88000Y-45000D03*
G54D13*
X89000Y-45000D03*
X90000Y-45000D03*
X91000Y-45000D03*
X92000Y-45000D03*
X93000Y-45000D03*
X94000Y-45000D03*
X95000Y-45000D03*
X95000Y-42000D03*
X94000Y-42000D03*
X93000Y-42000D03*
X92000Y-42000D03*
X91000Y-42000D03*
X90000Y-42000D03*
X89000Y-42000D03*
X88000Y-42000D03*
G54D12*
X88000Y-35000D03*
G54D13*
X89000Y-35000D03*
X90000Y-35000D03*
X91000Y-35000D03*
X92000Y-35000D03*
X93000Y-35000D03*
X94000Y-35000D03*
X95000Y-35000D03*
X95000Y-32000D03*
X94000Y-32000D03*
X93000Y-32000D03*
X92000Y-32000D03*
X91000Y-32000D03*
X90000Y-32000D03*
X89000Y-32000D03*
X88000Y-32000D03*
G54D12*
X89000Y-30000D03*
G54D13*
X90000Y-30000D03*
X91000Y-30000D03*
X92000Y-30000D03*
X93000Y-30000D03*
X94000Y-30000D03*
X95000Y-30000D03*
X95000Y-27000D03*
X94000Y-27000D03*
X93000Y-27000D03*
X92000Y-27000D03*
X91000Y-27000D03*
X90000Y-27000D03*
X89000Y-27000D03*
X83750Y-12000D03*
X85750Y-12000D03*
X84750Y-12000D03*
G54D12*
X89000Y-20000D03*
G54D13*
X90000Y-20000D03*
X91000Y-20000D03*
X92000Y-20000D03*
X93000Y-20000D03*
X94000Y-20000D03*
X95000Y-20000D03*
X95000Y-17000D03*
X94000Y-17000D03*
X93000Y-17000D03*
X92000Y-17000D03*
X91000Y-17000D03*
X90000Y-17000D03*
X89000Y-17000D03*
G54D18*
X83000Y-14000D03*
G54D19*
X84000Y-14000D03*
X86000Y-14000D03*
G54D13*
X77000Y-12000D03*
X79000Y-12000D03*
X78000Y-12000D03*
G54D19*
X80000Y-14000D03*
X75000Y-14000D03*
X75000Y-15000D03*
X80000Y-15000D03*
G54D12*
X68000Y-30000D03*
G54D13*
X69000Y-30000D03*
X70000Y-30000D03*
X71000Y-30000D03*
X72000Y-30000D03*
X73000Y-30000D03*
X74000Y-30000D03*
X75000Y-30000D03*
X76000Y-30000D03*
X77000Y-30000D03*
X78000Y-30000D03*
X79000Y-30000D03*
X80000Y-30000D03*
X81000Y-30000D03*
X82000Y-30000D03*
X83000Y-30000D03*
X84000Y-30000D03*
X85000Y-30000D03*
X86000Y-30000D03*
X87000Y-30000D03*
X87000Y-24000D03*
X86000Y-24000D03*
X85000Y-24000D03*
X84000Y-24000D03*
X83000Y-24000D03*
X82000Y-24000D03*
X81000Y-24000D03*
X80000Y-24000D03*
X79000Y-24000D03*
X78000Y-24000D03*
X77000Y-24000D03*
X76000Y-24000D03*
X75000Y-24000D03*
X74000Y-24000D03*
X73000Y-24000D03*
X72000Y-24000D03*
X71000Y-24000D03*
X70000Y-24000D03*
X69000Y-24000D03*
X68000Y-24000D03*
G54D12*
X68000Y-22000D03*
G54D13*
X69000Y-22000D03*
X70000Y-22000D03*
X71000Y-22000D03*
X72000Y-22000D03*
X73000Y-22000D03*
X74000Y-22000D03*
X75000Y-22000D03*
X76000Y-22000D03*
X77000Y-22000D03*
X78000Y-22000D03*
X79000Y-22000D03*
X80000Y-22000D03*
X81000Y-22000D03*
X82000Y-22000D03*
X83000Y-22000D03*
X84000Y-22000D03*
X85000Y-22000D03*
X86000Y-22000D03*
X87000Y-22000D03*
X87000Y-16000D03*
X86000Y-16000D03*
X85000Y-16000D03*
X84000Y-16000D03*
X83000Y-16000D03*
X82000Y-16000D03*
X81000Y-16000D03*
X80000Y-16000D03*
X79000Y-16000D03*
X78000Y-16000D03*
X77000Y-16000D03*
X76000Y-16000D03*
X75000Y-16000D03*
X74000Y-16000D03*
X73000Y-16000D03*
X72000Y-16000D03*
X71000Y-16000D03*
X70000Y-16000D03*
X69000Y-16000D03*
X68000Y-16000D03*
G54D12*
X74000Y-40000D03*
G54D13*
X75000Y-40000D03*
X76000Y-40000D03*
X77000Y-40000D03*
X78000Y-40000D03*
X79000Y-40000D03*
X80000Y-40000D03*
X81000Y-40000D03*
X82000Y-40000D03*
X83000Y-40000D03*
X84000Y-40000D03*
X85000Y-40000D03*
X85000Y-34000D03*
X84000Y-34000D03*
X83000Y-34000D03*
X82000Y-34000D03*
X81000Y-34000D03*
X80000Y-34000D03*
X79000Y-34000D03*
X78000Y-34000D03*
X77000Y-34000D03*
X76000Y-34000D03*
X75000Y-34000D03*
X74000Y-34000D03*
G54D12*
X74000Y-50000D03*
G54D13*
X75000Y-50000D03*
X76000Y-50000D03*
X77000Y-50000D03*
X78000Y-50000D03*
X79000Y-50000D03*
X80000Y-50000D03*
X81000Y-50000D03*
X82000Y-50000D03*
X83000Y-50000D03*
X84000Y-50000D03*
X85000Y-50000D03*
X85000Y-44000D03*
X84000Y-44000D03*
X83000Y-44000D03*
X82000Y-44000D03*
X81000Y-44000D03*
X80000Y-44000D03*
X79000Y-44000D03*
X78000Y-44000D03*
X77000Y-44000D03*
X76000Y-44000D03*
X75000Y-44000D03*
X74000Y-44000D03*
X70000Y-52000D03*
X72000Y-52000D03*
X71000Y-52000D03*
G54D12*
X74000Y-58000D03*
G54D13*
X75000Y-58000D03*
X76000Y-58000D03*
X77000Y-58000D03*
X78000Y-58000D03*
X79000Y-58000D03*
X80000Y-58000D03*
X81000Y-58000D03*
X82000Y-58000D03*
X83000Y-58000D03*
X84000Y-58000D03*
X85000Y-58000D03*
X85000Y-52000D03*
X84000Y-52000D03*
X83000Y-52000D03*
X82000Y-52000D03*
X81000Y-52000D03*
X80000Y-52000D03*
X79000Y-52000D03*
X78000Y-52000D03*
X77000Y-52000D03*
X76000Y-52000D03*
X75000Y-52000D03*
X74000Y-52000D03*
G54D12*
X74000Y-65000D03*
G54D13*
X75000Y-65000D03*
X76000Y-65000D03*
X77000Y-65000D03*
X78000Y-65000D03*
X79000Y-65000D03*
X80000Y-65000D03*
X81000Y-65000D03*
X82000Y-65000D03*
X83000Y-65000D03*
X84000Y-65000D03*
X85000Y-65000D03*
X85000Y-59000D03*
X84000Y-59000D03*
X83000Y-59000D03*
X82000Y-59000D03*
X81000Y-59000D03*
X80000Y-59000D03*
X79000Y-59000D03*
X78000Y-59000D03*
X77000Y-59000D03*
X76000Y-59000D03*
X75000Y-59000D03*
X74000Y-59000D03*
G54D12*
X74000Y-73000D03*
G54D13*
X75000Y-73000D03*
X76000Y-73000D03*
X77000Y-73000D03*
X78000Y-73000D03*
X79000Y-73000D03*
X80000Y-73000D03*
X81000Y-73000D03*
X82000Y-73000D03*
X83000Y-73000D03*
X84000Y-73000D03*
X85000Y-73000D03*
X85000Y-67000D03*
X84000Y-67000D03*
X83000Y-67000D03*
X82000Y-67000D03*
X81000Y-67000D03*
X80000Y-67000D03*
X79000Y-67000D03*
X78000Y-67000D03*
X77000Y-67000D03*
X76000Y-67000D03*
X75000Y-67000D03*
X74000Y-67000D03*
G54D12*
X74000Y-80000D03*
G54D13*
X75000Y-80000D03*
X76000Y-80000D03*
X77000Y-80000D03*
X78000Y-80000D03*
X79000Y-80000D03*
X80000Y-80000D03*
X81000Y-80000D03*
X82000Y-80000D03*
X83000Y-80000D03*
X84000Y-80000D03*
X85000Y-80000D03*
X85000Y-74000D03*
X84000Y-74000D03*
X83000Y-74000D03*
X82000Y-74000D03*
X81000Y-74000D03*
X80000Y-74000D03*
X79000Y-74000D03*
X78000Y-74000D03*
X77000Y-74000D03*
X76000Y-74000D03*
X75000Y-74000D03*
X74000Y-74000D03*
G54D12*
X74000Y-91000D03*
G54D13*
X75000Y-91000D03*
X76000Y-91000D03*
X77000Y-91000D03*
X78000Y-91000D03*
X79000Y-91000D03*
X80000Y-91000D03*
X81000Y-91000D03*
X82000Y-91000D03*
X83000Y-91000D03*
X84000Y-91000D03*
X85000Y-91000D03*
X85000Y-85000D03*
X84000Y-85000D03*
X83000Y-85000D03*
X82000Y-85000D03*
X81000Y-85000D03*
X80000Y-85000D03*
X79000Y-85000D03*
X78000Y-85000D03*
X77000Y-85000D03*
X76000Y-85000D03*
X75000Y-85000D03*
X74000Y-85000D03*
X69000Y-65000D03*
X71000Y-65000D03*
X70000Y-65000D03*
G54D12*
X20000Y-21000D03*
G54D13*
X21000Y-21000D03*
X22000Y-21000D03*
X23000Y-21000D03*
X24000Y-21000D03*
X25000Y-21000D03*
X26000Y-21000D03*
X26000Y-18000D03*
X25000Y-18000D03*
X24000Y-18000D03*
X23000Y-18000D03*
X22000Y-18000D03*
X21000Y-18000D03*
X20000Y-18000D03*
G54D19*
X24500Y-23000D03*
X19500Y-23000D03*
G54D13*
X24000Y-22000D03*
X26000Y-22000D03*
X25000Y-22000D03*
G54D19*
X36000Y-17000D03*
X41000Y-17000D03*
G54D20*
X43000Y-13000D03*
X46000Y-14500D03*
X43000Y-16000D03*
G54D19*
X45000Y-11000D03*
X50000Y-11000D03*
X44000Y-11000D03*
X39000Y-11000D03*
X52000Y-17250D03*
X52000Y-22250D03*
X53000Y-21000D03*
X53000Y-26000D03*
X34000Y-22000D03*
X29000Y-22000D03*
X50000Y-22250D03*
X45000Y-22250D03*
G54D12*
X43000Y-27000D03*
G54D13*
X44000Y-27000D03*
X45000Y-27000D03*
X46000Y-27000D03*
X47000Y-27000D03*
X48000Y-27000D03*
X49000Y-27000D03*
X50000Y-27000D03*
X51000Y-27000D03*
X52000Y-27000D03*
X52000Y-24000D03*
X51000Y-24000D03*
X50000Y-24000D03*
X49000Y-24000D03*
X48000Y-24000D03*
X47000Y-24000D03*
X46000Y-24000D03*
X45000Y-24000D03*
X44000Y-24000D03*
X43000Y-24000D03*
G54D12*
X43000Y-40000D03*
G54D13*
X44000Y-40000D03*
X45000Y-40000D03*
X46000Y-40000D03*
X47000Y-40000D03*
X48000Y-40000D03*
X49000Y-40000D03*
X50000Y-40000D03*
X51000Y-40000D03*
X52000Y-40000D03*
X52000Y-37000D03*
X51000Y-37000D03*
X50000Y-37000D03*
X49000Y-37000D03*
X48000Y-37000D03*
X47000Y-37000D03*
X46000Y-37000D03*
X45000Y-37000D03*
X44000Y-37000D03*
X43000Y-37000D03*
G54D12*
X43000Y-47000D03*
G54D13*
X44000Y-47000D03*
X45000Y-47000D03*
X46000Y-47000D03*
X47000Y-47000D03*
X48000Y-47000D03*
X49000Y-47000D03*
X50000Y-47000D03*
X51000Y-47000D03*
X52000Y-47000D03*
X52000Y-44000D03*
X51000Y-44000D03*
X50000Y-44000D03*
X49000Y-44000D03*
X48000Y-44000D03*
X47000Y-44000D03*
X46000Y-44000D03*
X45000Y-44000D03*
X44000Y-44000D03*
X43000Y-44000D03*
X50000Y-49000D03*
X52000Y-49000D03*
X51000Y-49000D03*
G54D12*
X48000Y-12750D03*
G54D13*
X48000Y-14750D03*
X52000Y-11750D03*
X52000Y-15750D03*
G54D12*
X56000Y-25000D03*
G54D13*
X57000Y-25000D03*
X58000Y-25000D03*
X59000Y-25000D03*
X60000Y-25000D03*
X61000Y-25000D03*
X62000Y-25000D03*
X63000Y-25000D03*
X64000Y-25000D03*
X65000Y-25000D03*
X65000Y-22000D03*
X64000Y-22000D03*
X63000Y-22000D03*
X62000Y-22000D03*
X61000Y-22000D03*
X60000Y-22000D03*
X59000Y-22000D03*
X58000Y-22000D03*
X57000Y-22000D03*
X56000Y-22000D03*
G54D12*
X56000Y-30000D03*
G54D13*
X57000Y-30000D03*
X58000Y-30000D03*
X59000Y-30000D03*
X60000Y-30000D03*
X61000Y-30000D03*
X62000Y-30000D03*
X63000Y-30000D03*
X64000Y-30000D03*
X65000Y-30000D03*
X65000Y-27000D03*
X64000Y-27000D03*
X63000Y-27000D03*
X62000Y-27000D03*
X61000Y-27000D03*
X60000Y-27000D03*
X59000Y-27000D03*
X58000Y-27000D03*
X57000Y-27000D03*
X56000Y-27000D03*
G54D12*
X56000Y-55000D03*
G54D13*
X57000Y-55000D03*
X58000Y-55000D03*
X59000Y-55000D03*
X60000Y-55000D03*
X61000Y-55000D03*
X62000Y-55000D03*
X63000Y-55000D03*
X64000Y-55000D03*
X65000Y-55000D03*
X65000Y-52000D03*
X64000Y-52000D03*
X63000Y-52000D03*
X62000Y-52000D03*
X61000Y-52000D03*
X60000Y-52000D03*
X59000Y-52000D03*
X58000Y-52000D03*
X57000Y-52000D03*
X56000Y-52000D03*
G54D12*
X56000Y-60000D03*
G54D13*
X57000Y-60000D03*
X58000Y-60000D03*
X59000Y-60000D03*
X60000Y-60000D03*
X61000Y-60000D03*
X62000Y-60000D03*
X63000Y-60000D03*
X64000Y-60000D03*
X65000Y-60000D03*
X65000Y-57000D03*
X64000Y-57000D03*
X63000Y-57000D03*
X62000Y-57000D03*
X61000Y-57000D03*
X60000Y-57000D03*
X59000Y-57000D03*
X58000Y-57000D03*
X57000Y-57000D03*
X56000Y-57000D03*
G54D12*
X56000Y-65000D03*
G54D13*
X57000Y-65000D03*
X58000Y-65000D03*
X59000Y-65000D03*
X60000Y-65000D03*
X61000Y-65000D03*
X62000Y-65000D03*
X63000Y-65000D03*
X64000Y-65000D03*
X65000Y-65000D03*
X65000Y-62000D03*
X64000Y-62000D03*
X63000Y-62000D03*
X62000Y-62000D03*
X61000Y-62000D03*
X60000Y-62000D03*
X59000Y-62000D03*
X58000Y-62000D03*
X57000Y-62000D03*
X56000Y-62000D03*
G54D19*
X53500Y-68000D03*
X53500Y-73000D03*
G54D12*
X56000Y-70000D03*
G54D13*
X57000Y-70000D03*
X58000Y-70000D03*
X59000Y-70000D03*
X60000Y-70000D03*
X61000Y-70000D03*
X62000Y-70000D03*
X63000Y-70000D03*
X64000Y-70000D03*
X65000Y-70000D03*
X65000Y-67000D03*
X64000Y-67000D03*
X63000Y-67000D03*
X62000Y-67000D03*
X61000Y-67000D03*
X60000Y-67000D03*
X59000Y-67000D03*
X58000Y-67000D03*
X57000Y-67000D03*
X56000Y-67000D03*
G54D12*
X56000Y-75000D03*
G54D13*
X57000Y-75000D03*
X58000Y-75000D03*
X59000Y-75000D03*
X60000Y-75000D03*
X61000Y-75000D03*
X62000Y-75000D03*
X63000Y-75000D03*
X64000Y-75000D03*
X65000Y-75000D03*
X65000Y-72000D03*
X64000Y-72000D03*
X63000Y-72000D03*
X62000Y-72000D03*
X61000Y-72000D03*
X60000Y-72000D03*
X59000Y-72000D03*
X58000Y-72000D03*
X57000Y-72000D03*
X56000Y-72000D03*
G54D12*
X56000Y-80000D03*
G54D13*
X57000Y-80000D03*
X58000Y-80000D03*
X59000Y-80000D03*
X60000Y-80000D03*
X61000Y-80000D03*
X62000Y-80000D03*
X63000Y-80000D03*
X64000Y-80000D03*
X65000Y-80000D03*
X65000Y-77000D03*
X64000Y-77000D03*
X63000Y-77000D03*
X62000Y-77000D03*
X61000Y-77000D03*
X60000Y-77000D03*
X59000Y-77000D03*
X58000Y-77000D03*
X57000Y-77000D03*
X56000Y-77000D03*
G54D12*
X56000Y-86000D03*
G54D13*
X57000Y-86000D03*
X58000Y-86000D03*
X59000Y-86000D03*
X60000Y-86000D03*
X61000Y-86000D03*
X62000Y-86000D03*
X63000Y-86000D03*
X64000Y-86000D03*
X65000Y-86000D03*
X65000Y-83000D03*
X64000Y-83000D03*
X63000Y-83000D03*
X62000Y-83000D03*
X61000Y-83000D03*
X60000Y-83000D03*
X59000Y-83000D03*
X58000Y-83000D03*
X57000Y-83000D03*
X56000Y-83000D03*
G54D12*
X56000Y-90000D03*
G54D13*
X57000Y-90000D03*
X58000Y-90000D03*
X59000Y-90000D03*
X60000Y-90000D03*
X61000Y-90000D03*
X62000Y-90000D03*
X63000Y-90000D03*
X64000Y-90000D03*
X65000Y-90000D03*
X65000Y-87000D03*
X64000Y-87000D03*
X63000Y-87000D03*
X62000Y-87000D03*
X61000Y-87000D03*
X60000Y-87000D03*
X59000Y-87000D03*
X58000Y-87000D03*
X57000Y-87000D03*
X56000Y-87000D03*
G54D12*
X20000Y-52000D03*
G54D13*
X21000Y-52000D03*
X22000Y-52000D03*
X23000Y-52000D03*
X24000Y-52000D03*
X25000Y-52000D03*
X26000Y-52000D03*
X27000Y-52000D03*
X28000Y-52000D03*
X29000Y-52000D03*
X30000Y-52000D03*
X31000Y-52000D03*
X32000Y-52000D03*
X33000Y-52000D03*
X34000Y-52000D03*
X35000Y-52000D03*
X36000Y-52000D03*
X37000Y-52000D03*
X38000Y-52000D03*
X39000Y-52000D03*
X40000Y-52000D03*
X41000Y-52000D03*
X42000Y-52000D03*
X43000Y-52000D03*
X44000Y-52000D03*
X45000Y-52000D03*
X46000Y-52000D03*
X47000Y-52000D03*
X48000Y-52000D03*
X49000Y-52000D03*
X50000Y-52000D03*
X50000Y-54000D03*
X49000Y-54000D03*
X48000Y-54000D03*
X47000Y-54000D03*
X46000Y-54000D03*
X45000Y-54000D03*
X44000Y-54000D03*
X43000Y-54000D03*
X42000Y-54000D03*
X41000Y-54000D03*
X40000Y-54000D03*
X39000Y-54000D03*
X38000Y-54000D03*
X37000Y-54000D03*
X36000Y-54000D03*
X35000Y-54000D03*
X34000Y-54000D03*
X33000Y-54000D03*
X32000Y-54000D03*
X31000Y-54000D03*
X30000Y-54000D03*
X29000Y-54000D03*
X28000Y-54000D03*
X27000Y-54000D03*
X26000Y-54000D03*
X25000Y-54000D03*
X24000Y-54000D03*
X23000Y-54000D03*
X22000Y-54000D03*
X21000Y-54000D03*
X20000Y-54000D03*
G54D16*
X22000Y-66000D03*
G54D17*
X30000Y-66000D03*
G54D12*
X20000Y-62000D03*
G54D13*
X21000Y-62000D03*
X22000Y-62000D03*
X23000Y-62000D03*
X24000Y-62000D03*
X25000Y-62000D03*
X26000Y-62000D03*
X27000Y-62000D03*
X28000Y-62000D03*
X29000Y-62000D03*
X30000Y-62000D03*
X31000Y-62000D03*
X32000Y-62000D03*
X33000Y-62000D03*
X34000Y-62000D03*
X35000Y-62000D03*
X36000Y-62000D03*
X37000Y-62000D03*
X38000Y-62000D03*
X39000Y-62000D03*
X40000Y-62000D03*
X41000Y-62000D03*
X42000Y-62000D03*
X43000Y-62000D03*
X44000Y-62000D03*
X45000Y-62000D03*
X46000Y-62000D03*
X47000Y-62000D03*
X48000Y-62000D03*
X49000Y-62000D03*
X50000Y-62000D03*
X50000Y-64000D03*
X49000Y-64000D03*
X48000Y-64000D03*
X47000Y-64000D03*
X46000Y-64000D03*
X45000Y-64000D03*
X44000Y-64000D03*
X43000Y-64000D03*
X42000Y-64000D03*
X41000Y-64000D03*
X40000Y-64000D03*
X39000Y-64000D03*
X38000Y-64000D03*
X37000Y-64000D03*
X36000Y-64000D03*
X35000Y-64000D03*
X34000Y-64000D03*
X33000Y-64000D03*
X32000Y-64000D03*
X31000Y-64000D03*
X30000Y-64000D03*
X29000Y-64000D03*
X28000Y-64000D03*
X27000Y-64000D03*
X26000Y-64000D03*
X25000Y-64000D03*
X24000Y-64000D03*
X23000Y-64000D03*
X22000Y-64000D03*
X21000Y-64000D03*
X20000Y-64000D03*
G54D12*
X20000Y-72000D03*
G54D13*
X21000Y-72000D03*
X22000Y-72000D03*
X23000Y-72000D03*
X24000Y-72000D03*
X25000Y-72000D03*
X26000Y-72000D03*
X27000Y-72000D03*
X28000Y-72000D03*
X29000Y-72000D03*
X30000Y-72000D03*
X31000Y-72000D03*
X32000Y-72000D03*
X33000Y-72000D03*
X34000Y-72000D03*
X35000Y-72000D03*
X36000Y-72000D03*
X37000Y-72000D03*
X38000Y-72000D03*
X39000Y-72000D03*
X40000Y-72000D03*
X41000Y-72000D03*
X42000Y-72000D03*
X43000Y-72000D03*
X44000Y-72000D03*
X45000Y-72000D03*
X46000Y-72000D03*
X47000Y-72000D03*
X48000Y-72000D03*
X49000Y-72000D03*
X50000Y-72000D03*
X50000Y-74000D03*
X49000Y-74000D03*
X48000Y-74000D03*
X47000Y-74000D03*
X46000Y-74000D03*
X45000Y-74000D03*
X44000Y-74000D03*
X43000Y-74000D03*
X42000Y-74000D03*
X41000Y-74000D03*
X40000Y-74000D03*
X39000Y-74000D03*
X38000Y-74000D03*
X37000Y-74000D03*
X36000Y-74000D03*
X35000Y-74000D03*
X34000Y-74000D03*
X33000Y-74000D03*
X32000Y-74000D03*
X31000Y-74000D03*
X30000Y-74000D03*
X29000Y-74000D03*
X28000Y-74000D03*
X27000Y-74000D03*
X26000Y-74000D03*
X25000Y-74000D03*
X24000Y-74000D03*
X23000Y-74000D03*
X22000Y-74000D03*
X21000Y-74000D03*
X20000Y-74000D03*
G54D19*
X12250Y-69000D03*
X12250Y-74000D03*
G54D12*
X20000Y-82000D03*
G54D13*
X21000Y-82000D03*
X22000Y-82000D03*
X23000Y-82000D03*
X24000Y-82000D03*
X25000Y-82000D03*
X26000Y-82000D03*
X27000Y-82000D03*
X28000Y-82000D03*
X29000Y-82000D03*
X30000Y-82000D03*
X31000Y-82000D03*
X32000Y-82000D03*
X33000Y-82000D03*
X34000Y-82000D03*
X35000Y-82000D03*
X36000Y-82000D03*
X37000Y-82000D03*
X38000Y-82000D03*
X39000Y-82000D03*
X40000Y-82000D03*
X41000Y-82000D03*
X42000Y-82000D03*
X43000Y-82000D03*
X44000Y-82000D03*
X45000Y-82000D03*
X46000Y-82000D03*
X47000Y-82000D03*
X48000Y-82000D03*
X49000Y-82000D03*
X50000Y-82000D03*
X50000Y-84000D03*
X49000Y-84000D03*
X48000Y-84000D03*
X47000Y-84000D03*
X46000Y-84000D03*
X45000Y-84000D03*
X44000Y-84000D03*
X43000Y-84000D03*
X42000Y-84000D03*
X41000Y-84000D03*
X40000Y-84000D03*
X39000Y-84000D03*
X38000Y-84000D03*
X37000Y-84000D03*
X36000Y-84000D03*
X35000Y-84000D03*
X34000Y-84000D03*
X33000Y-84000D03*
X32000Y-84000D03*
X31000Y-84000D03*
X30000Y-84000D03*
X29000Y-84000D03*
X28000Y-84000D03*
X27000Y-84000D03*
X26000Y-84000D03*
X25000Y-84000D03*
X24000Y-84000D03*
X23000Y-84000D03*
X22000Y-84000D03*
X21000Y-84000D03*
X20000Y-84000D03*
G54D12*
X20000Y-92000D03*
G54D13*
X21000Y-92000D03*
X22000Y-92000D03*
X23000Y-92000D03*
X24000Y-92000D03*
X25000Y-92000D03*
X26000Y-92000D03*
X27000Y-92000D03*
X28000Y-92000D03*
X29000Y-92000D03*
X30000Y-92000D03*
X31000Y-92000D03*
X32000Y-92000D03*
X33000Y-92000D03*
X34000Y-92000D03*
X35000Y-92000D03*
X36000Y-92000D03*
X37000Y-92000D03*
X38000Y-92000D03*
X39000Y-92000D03*
X40000Y-92000D03*
X41000Y-92000D03*
X42000Y-92000D03*
X43000Y-92000D03*
X44000Y-92000D03*
X45000Y-92000D03*
X46000Y-92000D03*
X47000Y-92000D03*
X48000Y-92000D03*
X49000Y-92000D03*
X50000Y-92000D03*
X50000Y-94000D03*
X49000Y-94000D03*
X48000Y-94000D03*
X47000Y-94000D03*
X46000Y-94000D03*
X45000Y-94000D03*
X44000Y-94000D03*
X43000Y-94000D03*
X42000Y-94000D03*
X41000Y-94000D03*
X40000Y-94000D03*
X39000Y-94000D03*
X38000Y-94000D03*
X37000Y-94000D03*
X36000Y-94000D03*
X35000Y-94000D03*
X34000Y-94000D03*
X33000Y-94000D03*
X32000Y-94000D03*
X31000Y-94000D03*
X30000Y-94000D03*
X29000Y-94000D03*
X28000Y-94000D03*
X27000Y-94000D03*
X26000Y-94000D03*
X25000Y-94000D03*
X24000Y-94000D03*
X23000Y-94000D03*
X22000Y-94000D03*
X21000Y-94000D03*
X20000Y-94000D03*
G54D19*
X18000Y-66000D03*
X13000Y-66000D03*
X18250Y-69000D03*
X13250Y-69000D03*
G54D17*
X11000Y-74000D03*
G54D16*
X11000Y-69000D03*
G54D12*
X98000Y-40000D03*
G54D13*
X99000Y-40000D03*
X100000Y-40000D03*
X101000Y-40000D03*
X102000Y-40000D03*
X103000Y-40000D03*
X104000Y-40000D03*
X104000Y-37000D03*
X103000Y-37000D03*
X102000Y-37000D03*
X101000Y-37000D03*
X100000Y-37000D03*
X99000Y-37000D03*
X98000Y-37000D03*
G54D12*
X26000Y-47000D03*
G54D13*
X27000Y-47000D03*
X28000Y-47000D03*
X29000Y-47000D03*
X30000Y-47000D03*
X31000Y-47000D03*
X32000Y-47000D03*
X33000Y-47000D03*
X34000Y-47000D03*
X35000Y-47000D03*
X36000Y-47000D03*
X37000Y-47000D03*
X38000Y-47000D03*
X39000Y-47000D03*
X39000Y-41000D03*
X38000Y-41000D03*
X37000Y-41000D03*
X36000Y-41000D03*
X35000Y-41000D03*
X34000Y-41000D03*
X33000Y-41000D03*
X32000Y-41000D03*
X31000Y-41000D03*
X30000Y-41000D03*
X29000Y-41000D03*
X28000Y-41000D03*
X27000Y-41000D03*
X26000Y-41000D03*
G54D12*
X20000Y-38000D03*
G54D13*
X21000Y-38000D03*
X22000Y-38000D03*
X23000Y-38000D03*
X24000Y-38000D03*
X25000Y-38000D03*
X26000Y-38000D03*
X27000Y-38000D03*
X28000Y-38000D03*
X29000Y-38000D03*
X30000Y-38000D03*
X31000Y-38000D03*
X32000Y-38000D03*
X33000Y-38000D03*
X34000Y-38000D03*
X35000Y-38000D03*
X36000Y-38000D03*
X37000Y-38000D03*
X38000Y-38000D03*
X39000Y-38000D03*
X39000Y-32000D03*
X38000Y-32000D03*
X37000Y-32000D03*
X36000Y-32000D03*
X35000Y-32000D03*
X34000Y-32000D03*
X33000Y-32000D03*
X32000Y-32000D03*
X31000Y-32000D03*
X30000Y-32000D03*
X29000Y-32000D03*
X28000Y-32000D03*
X27000Y-32000D03*
X26000Y-32000D03*
X25000Y-32000D03*
X24000Y-32000D03*
X23000Y-32000D03*
X22000Y-32000D03*
X21000Y-32000D03*
X20000Y-32000D03*
G54D12*
X20000Y-30000D03*
G54D13*
X21000Y-30000D03*
X22000Y-30000D03*
X23000Y-30000D03*
X24000Y-30000D03*
X25000Y-30000D03*
X26000Y-30000D03*
X27000Y-30000D03*
X28000Y-30000D03*
X29000Y-30000D03*
X30000Y-30000D03*
X31000Y-30000D03*
X32000Y-30000D03*
X33000Y-30000D03*
X34000Y-30000D03*
X35000Y-30000D03*
X36000Y-30000D03*
X37000Y-30000D03*
X38000Y-30000D03*
X39000Y-30000D03*
X39000Y-24000D03*
X38000Y-24000D03*
X37000Y-24000D03*
X36000Y-24000D03*
X35000Y-24000D03*
X34000Y-24000D03*
X33000Y-24000D03*
X32000Y-24000D03*
X31000Y-24000D03*
X30000Y-24000D03*
X29000Y-24000D03*
X28000Y-24000D03*
X27000Y-24000D03*
X26000Y-24000D03*
X25000Y-24000D03*
X24000Y-24000D03*
X23000Y-24000D03*
X22000Y-24000D03*
X21000Y-24000D03*
X20000Y-24000D03*
G54D12*
X30000Y-21000D03*
G54D13*
X31000Y-21000D03*
X32000Y-21000D03*
X33000Y-21000D03*
X34000Y-21000D03*
X35000Y-21000D03*
X36000Y-21000D03*
X37000Y-21000D03*
X38000Y-21000D03*
X39000Y-21000D03*
X39000Y-18000D03*
X38000Y-18000D03*
X37000Y-18000D03*
X36000Y-18000D03*
X35000Y-18000D03*
X34000Y-18000D03*
X33000Y-18000D03*
X32000Y-18000D03*
X31000Y-18000D03*
X30000Y-18000D03*
G54D12*
X118000Y-40000D03*
G54D13*
X119000Y-40000D03*
X120000Y-40000D03*
X121000Y-40000D03*
X121000Y-37000D03*
X120000Y-37000D03*
X119000Y-37000D03*
X118000Y-37000D03*
G54D12*
X98000Y-90000D03*
G54D13*
X99000Y-90000D03*
X100000Y-90000D03*
X101000Y-90000D03*
X102000Y-90000D03*
X103000Y-90000D03*
X104000Y-90000D03*
X105000Y-90000D03*
X105000Y-87000D03*
X104000Y-87000D03*
X103000Y-87000D03*
X102000Y-87000D03*
X101000Y-87000D03*
X100000Y-87000D03*
X99000Y-87000D03*
X98000Y-87000D03*
G54D12*
X108000Y-90000D03*
G54D13*
X109000Y-90000D03*
X110000Y-90000D03*
X111000Y-90000D03*
X112000Y-90000D03*
X113000Y-90000D03*
X114000Y-90000D03*
X115000Y-90000D03*
X115000Y-87000D03*
X114000Y-87000D03*
X113000Y-87000D03*
X112000Y-87000D03*
X111000Y-87000D03*
X110000Y-87000D03*
X109000Y-87000D03*
X108000Y-87000D03*
G54D12*
X118000Y-90000D03*
G54D13*
X119000Y-90000D03*
X120000Y-90000D03*
X121000Y-90000D03*
X122000Y-90000D03*
X123000Y-90000D03*
X124000Y-90000D03*
X125000Y-90000D03*
X125000Y-87000D03*
X124000Y-87000D03*
X123000Y-87000D03*
X122000Y-87000D03*
X121000Y-87000D03*
X120000Y-87000D03*
X119000Y-87000D03*
X118000Y-87000D03*
G54D12*
X88000Y-80000D03*
G54D13*
X89000Y-80000D03*
X90000Y-80000D03*
X91000Y-80000D03*
X92000Y-80000D03*
X93000Y-80000D03*
X94000Y-80000D03*
X95000Y-80000D03*
X95000Y-77000D03*
X94000Y-77000D03*
X93000Y-77000D03*
X92000Y-77000D03*
X91000Y-77000D03*
X90000Y-77000D03*
X89000Y-77000D03*
X88000Y-77000D03*
G54D12*
X88000Y-76000D03*
G54D13*
X89000Y-76000D03*
X90000Y-76000D03*
X91000Y-76000D03*
X92000Y-76000D03*
X93000Y-76000D03*
X94000Y-76000D03*
X95000Y-76000D03*
X95000Y-73000D03*
X94000Y-73000D03*
X93000Y-73000D03*
X92000Y-73000D03*
X91000Y-73000D03*
X90000Y-73000D03*
X89000Y-73000D03*
X88000Y-73000D03*
G54D12*
X88000Y-72000D03*
G54D13*
X89000Y-72000D03*
X90000Y-72000D03*
X91000Y-72000D03*
X92000Y-72000D03*
X93000Y-72000D03*
X94000Y-72000D03*
X95000Y-72000D03*
X95000Y-69000D03*
X94000Y-69000D03*
X93000Y-69000D03*
X92000Y-69000D03*
X91000Y-69000D03*
X90000Y-69000D03*
X89000Y-69000D03*
X88000Y-69000D03*
G54D12*
X88000Y-68000D03*
G54D13*
X89000Y-68000D03*
X90000Y-68000D03*
X91000Y-68000D03*
X92000Y-68000D03*
X93000Y-68000D03*
X94000Y-68000D03*
X95000Y-68000D03*
X95000Y-65000D03*
X94000Y-65000D03*
X93000Y-65000D03*
X92000Y-65000D03*
X91000Y-65000D03*
X90000Y-65000D03*
X89000Y-65000D03*
X88000Y-65000D03*
G54D12*
X88000Y-64000D03*
G54D13*
X89000Y-64000D03*
X90000Y-64000D03*
X91000Y-64000D03*
X92000Y-64000D03*
X93000Y-64000D03*
X94000Y-64000D03*
X95000Y-64000D03*
X95000Y-61000D03*
X94000Y-61000D03*
X93000Y-61000D03*
X92000Y-61000D03*
X91000Y-61000D03*
X90000Y-61000D03*
X89000Y-61000D03*
X88000Y-61000D03*
G54D12*
X88000Y-60000D03*
G54D13*
X89000Y-60000D03*
X90000Y-60000D03*
X91000Y-60000D03*
X92000Y-60000D03*
X93000Y-60000D03*
X94000Y-60000D03*
X95000Y-60000D03*
X95000Y-57000D03*
X94000Y-57000D03*
X93000Y-57000D03*
X92000Y-57000D03*
X91000Y-57000D03*
X90000Y-57000D03*
X89000Y-57000D03*
X88000Y-57000D03*
G54D12*
X88000Y-56000D03*
G54D13*
X89000Y-56000D03*
X90000Y-56000D03*
X91000Y-56000D03*
X92000Y-56000D03*
X93000Y-56000D03*
X94000Y-56000D03*
X95000Y-56000D03*
X95000Y-53000D03*
X94000Y-53000D03*
X93000Y-53000D03*
X92000Y-53000D03*
X91000Y-53000D03*
X90000Y-53000D03*
X89000Y-53000D03*
X88000Y-53000D03*
G54D12*
X88000Y-52000D03*
G54D13*
X89000Y-52000D03*
X90000Y-52000D03*
X91000Y-52000D03*
X92000Y-52000D03*
X93000Y-52000D03*
X94000Y-52000D03*
X95000Y-52000D03*
X95000Y-49000D03*
X94000Y-49000D03*
X93000Y-49000D03*
X92000Y-49000D03*
X91000Y-49000D03*
X90000Y-49000D03*
X89000Y-49000D03*
X88000Y-49000D03*
G54D12*
X98000Y-80000D03*
G54D13*
X99000Y-80000D03*
X100000Y-80000D03*
X101000Y-80000D03*
X102000Y-80000D03*
X103000Y-80000D03*
X104000Y-80000D03*
X105000Y-80000D03*
X105000Y-77000D03*
X104000Y-77000D03*
X103000Y-77000D03*
X102000Y-77000D03*
X101000Y-77000D03*
X100000Y-77000D03*
X99000Y-77000D03*
X98000Y-77000D03*
G54D12*
X98000Y-76000D03*
G54D13*
X99000Y-76000D03*
X100000Y-76000D03*
X101000Y-76000D03*
X102000Y-76000D03*
X103000Y-76000D03*
X104000Y-76000D03*
X105000Y-76000D03*
X105000Y-73000D03*
X104000Y-73000D03*
X103000Y-73000D03*
X102000Y-73000D03*
X101000Y-73000D03*
X100000Y-73000D03*
X99000Y-73000D03*
X98000Y-73000D03*
G54D12*
X98000Y-72000D03*
G54D13*
X99000Y-72000D03*
X100000Y-72000D03*
X101000Y-72000D03*
X102000Y-72000D03*
X103000Y-72000D03*
X104000Y-72000D03*
X105000Y-72000D03*
X105000Y-69000D03*
X104000Y-69000D03*
X103000Y-69000D03*
X102000Y-69000D03*
X101000Y-69000D03*
X100000Y-69000D03*
X99000Y-69000D03*
X98000Y-69000D03*
G54D12*
X98000Y-68000D03*
G54D13*
X99000Y-68000D03*
X100000Y-68000D03*
X101000Y-68000D03*
X102000Y-68000D03*
X103000Y-68000D03*
X104000Y-68000D03*
X105000Y-68000D03*
X105000Y-65000D03*
X104000Y-65000D03*
X103000Y-65000D03*
X102000Y-65000D03*
X101000Y-65000D03*
X100000Y-65000D03*
X99000Y-65000D03*
X98000Y-65000D03*
G54D12*
X98000Y-64000D03*
G54D13*
X99000Y-64000D03*
X100000Y-64000D03*
X101000Y-64000D03*
X102000Y-64000D03*
X103000Y-64000D03*
X104000Y-64000D03*
X105000Y-64000D03*
X105000Y-61000D03*
X104000Y-61000D03*
X103000Y-61000D03*
X102000Y-61000D03*
X101000Y-61000D03*
X100000Y-61000D03*
X99000Y-61000D03*
X98000Y-61000D03*
G54D12*
X98000Y-60000D03*
G54D13*
X99000Y-60000D03*
X100000Y-60000D03*
X101000Y-60000D03*
X102000Y-60000D03*
X103000Y-60000D03*
X104000Y-60000D03*
X105000Y-60000D03*
X105000Y-57000D03*
X104000Y-57000D03*
X103000Y-57000D03*
X102000Y-57000D03*
X101000Y-57000D03*
X100000Y-57000D03*
X99000Y-57000D03*
X98000Y-57000D03*
G54D12*
X98000Y-56000D03*
G54D13*
X99000Y-56000D03*
X100000Y-56000D03*
X101000Y-56000D03*
X102000Y-56000D03*
X103000Y-56000D03*
X104000Y-56000D03*
X105000Y-56000D03*
X105000Y-53000D03*
X104000Y-53000D03*
X103000Y-53000D03*
X102000Y-53000D03*
X101000Y-53000D03*
X100000Y-53000D03*
X99000Y-53000D03*
X98000Y-53000D03*
G54D12*
X98000Y-52000D03*
G54D13*
X99000Y-52000D03*
X100000Y-52000D03*
X101000Y-52000D03*
X102000Y-52000D03*
X103000Y-52000D03*
X104000Y-52000D03*
X105000Y-52000D03*
X105000Y-49000D03*
X104000Y-49000D03*
X103000Y-49000D03*
X102000Y-49000D03*
X101000Y-49000D03*
X100000Y-49000D03*
X99000Y-49000D03*
X98000Y-49000D03*
G54D12*
X108000Y-80000D03*
G54D13*
X109000Y-80000D03*
X110000Y-80000D03*
X111000Y-80000D03*
X112000Y-80000D03*
X113000Y-80000D03*
X114000Y-80000D03*
X115000Y-80000D03*
X115000Y-77000D03*
X114000Y-77000D03*
X113000Y-77000D03*
X112000Y-77000D03*
X111000Y-77000D03*
X110000Y-77000D03*
X109000Y-77000D03*
X108000Y-77000D03*
G54D12*
X108000Y-76000D03*
G54D13*
X109000Y-76000D03*
X110000Y-76000D03*
X111000Y-76000D03*
X112000Y-76000D03*
X113000Y-76000D03*
X114000Y-76000D03*
X115000Y-76000D03*
X115000Y-73000D03*
X114000Y-73000D03*
X113000Y-73000D03*
X112000Y-73000D03*
X111000Y-73000D03*
X110000Y-73000D03*
X109000Y-73000D03*
X108000Y-73000D03*
G54D12*
X108000Y-72000D03*
G54D13*
X109000Y-72000D03*
X110000Y-72000D03*
X111000Y-72000D03*
X112000Y-72000D03*
X113000Y-72000D03*
X114000Y-72000D03*
X115000Y-72000D03*
X115000Y-69000D03*
X114000Y-69000D03*
X113000Y-69000D03*
X112000Y-69000D03*
X111000Y-69000D03*
X110000Y-69000D03*
X109000Y-69000D03*
X108000Y-69000D03*
G54D12*
X108000Y-68000D03*
G54D13*
X109000Y-68000D03*
X110000Y-68000D03*
X111000Y-68000D03*
X112000Y-68000D03*
X113000Y-68000D03*
X114000Y-68000D03*
X115000Y-68000D03*
X115000Y-65000D03*
X114000Y-65000D03*
X113000Y-65000D03*
X112000Y-65000D03*
X111000Y-65000D03*
X110000Y-65000D03*
X109000Y-65000D03*
X108000Y-65000D03*
G54D12*
X108000Y-64000D03*
G54D13*
X109000Y-64000D03*
X110000Y-64000D03*
X111000Y-64000D03*
X112000Y-64000D03*
X113000Y-64000D03*
X114000Y-64000D03*
X115000Y-64000D03*
X115000Y-61000D03*
X114000Y-61000D03*
X113000Y-61000D03*
X112000Y-61000D03*
X111000Y-61000D03*
X110000Y-61000D03*
X109000Y-61000D03*
X108000Y-61000D03*
G54D12*
X108000Y-60000D03*
G54D13*
X109000Y-60000D03*
X110000Y-60000D03*
X111000Y-60000D03*
X112000Y-60000D03*
X113000Y-60000D03*
X114000Y-60000D03*
X115000Y-60000D03*
X115000Y-57000D03*
X114000Y-57000D03*
X113000Y-57000D03*
X112000Y-57000D03*
X111000Y-57000D03*
X110000Y-57000D03*
X109000Y-57000D03*
X108000Y-57000D03*
G54D12*
X108000Y-56000D03*
G54D13*
X109000Y-56000D03*
X110000Y-56000D03*
X111000Y-56000D03*
X112000Y-56000D03*
X113000Y-56000D03*
X114000Y-56000D03*
X115000Y-56000D03*
X115000Y-53000D03*
X114000Y-53000D03*
X113000Y-53000D03*
X112000Y-53000D03*
X111000Y-53000D03*
X110000Y-53000D03*
X109000Y-53000D03*
X108000Y-53000D03*
G54D12*
X108000Y-52000D03*
G54D13*
X109000Y-52000D03*
X110000Y-52000D03*
X111000Y-52000D03*
X112000Y-52000D03*
X113000Y-52000D03*
X114000Y-52000D03*
X115000Y-52000D03*
X115000Y-49000D03*
X114000Y-49000D03*
X113000Y-49000D03*
X112000Y-49000D03*
X111000Y-49000D03*
X110000Y-49000D03*
X109000Y-49000D03*
X108000Y-49000D03*
G54D12*
X118000Y-80000D03*
G54D13*
X119000Y-80000D03*
X120000Y-80000D03*
X121000Y-80000D03*
X122000Y-80000D03*
X123000Y-80000D03*
X124000Y-80000D03*
X125000Y-80000D03*
X125000Y-77000D03*
X124000Y-77000D03*
X123000Y-77000D03*
X122000Y-77000D03*
X121000Y-77000D03*
X120000Y-77000D03*
X119000Y-77000D03*
X118000Y-77000D03*
G54D12*
X118000Y-76000D03*
G54D13*
X119000Y-76000D03*
X120000Y-76000D03*
X121000Y-76000D03*
X122000Y-76000D03*
X123000Y-76000D03*
X124000Y-76000D03*
X125000Y-76000D03*
X125000Y-73000D03*
X124000Y-73000D03*
X123000Y-73000D03*
X122000Y-73000D03*
X121000Y-73000D03*
X120000Y-73000D03*
X119000Y-73000D03*
X118000Y-73000D03*
G54D12*
X118000Y-72000D03*
G54D13*
X119000Y-72000D03*
X120000Y-72000D03*
X121000Y-72000D03*
X122000Y-72000D03*
X123000Y-72000D03*
X124000Y-72000D03*
X125000Y-72000D03*
X125000Y-69000D03*
X124000Y-69000D03*
X123000Y-69000D03*
X122000Y-69000D03*
X121000Y-69000D03*
X120000Y-69000D03*
X119000Y-69000D03*
X118000Y-69000D03*
G54D12*
X118000Y-68000D03*
G54D13*
X119000Y-68000D03*
X120000Y-68000D03*
X121000Y-68000D03*
X122000Y-68000D03*
X123000Y-68000D03*
X124000Y-68000D03*
X125000Y-68000D03*
X125000Y-65000D03*
X124000Y-65000D03*
X123000Y-65000D03*
X122000Y-65000D03*
X121000Y-65000D03*
X120000Y-65000D03*
X119000Y-65000D03*
X118000Y-65000D03*
G54D12*
X118000Y-64000D03*
G54D13*
X119000Y-64000D03*
X120000Y-64000D03*
X121000Y-64000D03*
X122000Y-64000D03*
X123000Y-64000D03*
X124000Y-64000D03*
X125000Y-64000D03*
X125000Y-61000D03*
X124000Y-61000D03*
X123000Y-61000D03*
X122000Y-61000D03*
X121000Y-61000D03*
X120000Y-61000D03*
X119000Y-61000D03*
X118000Y-61000D03*
G54D12*
X118000Y-60000D03*
G54D13*
X119000Y-60000D03*
X120000Y-60000D03*
X121000Y-60000D03*
X122000Y-60000D03*
X123000Y-60000D03*
X124000Y-60000D03*
X125000Y-60000D03*
X125000Y-57000D03*
X124000Y-57000D03*
X123000Y-57000D03*
X122000Y-57000D03*
X121000Y-57000D03*
X120000Y-57000D03*
X119000Y-57000D03*
X118000Y-57000D03*
G54D12*
X118000Y-56000D03*
G54D13*
X119000Y-56000D03*
X120000Y-56000D03*
X121000Y-56000D03*
X122000Y-56000D03*
X123000Y-56000D03*
X124000Y-56000D03*
X125000Y-56000D03*
X125000Y-53000D03*
X124000Y-53000D03*
X123000Y-53000D03*
X122000Y-53000D03*
X121000Y-53000D03*
X120000Y-53000D03*
X119000Y-53000D03*
X118000Y-53000D03*
G54D12*
X118000Y-52000D03*
G54D13*
X119000Y-52000D03*
X120000Y-52000D03*
X121000Y-52000D03*
X122000Y-52000D03*
X123000Y-52000D03*
X124000Y-52000D03*
X125000Y-52000D03*
X125000Y-49000D03*
X124000Y-49000D03*
X123000Y-49000D03*
X122000Y-49000D03*
X121000Y-49000D03*
X120000Y-49000D03*
X119000Y-49000D03*
X118000Y-49000D03*
X96500Y-75000D03*
X96500Y-73000D03*
X96500Y-74000D03*
X126400Y-17000D03*
X126400Y-15000D03*
X126400Y-16000D03*
X124000Y-47000D03*
X126000Y-47000D03*
X125000Y-47000D03*
G54D12*
X17000Y-80000D03*
G54D13*
X17000Y-79000D03*
X17000Y-78000D03*
X17000Y-77000D03*
X14000Y-77000D03*
X14000Y-78000D03*
X14000Y-79000D03*
X14000Y-80000D03*
G54D19*
X123000Y-38000D03*
X128000Y-38000D03*
X123000Y-36000D03*
X128000Y-36000D03*
X36000Y-22000D03*
X41000Y-22000D03*
X41500Y-20000D03*
X41500Y-15000D03*
X13250Y-70000D03*
X18250Y-70000D03*
X13000Y-67000D03*
X18000Y-67000D03*
G54D13*
X20000Y-43000D03*
X20000Y-41000D03*
X20000Y-42000D03*
G54D12*
X88000Y-40000D03*
G54D13*
X89000Y-40000D03*
X90000Y-40000D03*
X91000Y-40000D03*
X92000Y-40000D03*
X93000Y-40000D03*
X94000Y-40000D03*
X95000Y-40000D03*
X95000Y-37000D03*
X94000Y-37000D03*
X93000Y-37000D03*
X92000Y-37000D03*
X91000Y-37000D03*
X90000Y-37000D03*
X89000Y-37000D03*
X88000Y-37000D03*
G54D12*
X98000Y-25000D03*
G54D13*
X99000Y-25000D03*
X100000Y-25000D03*
X101000Y-25000D03*
X102000Y-25000D03*
X103000Y-25000D03*
X104000Y-25000D03*
X105000Y-25000D03*
X105000Y-22000D03*
X104000Y-22000D03*
X103000Y-22000D03*
X102000Y-22000D03*
X101000Y-22000D03*
X100000Y-22000D03*
X99000Y-22000D03*
X98000Y-22000D03*
G54D12*
X118000Y-20000D03*
G54D13*
X119000Y-20000D03*
X120000Y-20000D03*
X121000Y-20000D03*
X122000Y-20000D03*
X123000Y-20000D03*
X124000Y-20000D03*
X125000Y-20000D03*
X125000Y-17000D03*
X124000Y-17000D03*
X123000Y-17000D03*
X122000Y-17000D03*
X121000Y-17000D03*
X120000Y-17000D03*
X119000Y-17000D03*
X118000Y-17000D03*
G54D12*
X98000Y-45000D03*
G54D13*
X99000Y-45000D03*
X100000Y-45000D03*
X101000Y-45000D03*
X102000Y-45000D03*
X103000Y-45000D03*
X104000Y-45000D03*
X105000Y-45000D03*
X105000Y-42000D03*
X104000Y-42000D03*
X103000Y-42000D03*
X102000Y-42000D03*
X101000Y-42000D03*
X100000Y-42000D03*
X99000Y-42000D03*
X98000Y-42000D03*
G54D12*
X108000Y-45000D03*
G54D13*
X109000Y-45000D03*
X110000Y-45000D03*
X111000Y-45000D03*
X112000Y-45000D03*
X113000Y-45000D03*
X114000Y-45000D03*
X115000Y-45000D03*
X115000Y-42000D03*
X114000Y-42000D03*
X113000Y-42000D03*
X112000Y-42000D03*
X111000Y-42000D03*
X110000Y-42000D03*
X109000Y-42000D03*
X108000Y-42000D03*
G54D12*
X108000Y-40000D03*
G54D13*
X109000Y-40000D03*
X110000Y-40000D03*
X111000Y-40000D03*
X112000Y-40000D03*
X113000Y-40000D03*
X114000Y-40000D03*
X115000Y-40000D03*
X115000Y-37000D03*
X114000Y-37000D03*
X113000Y-37000D03*
X112000Y-37000D03*
X111000Y-37000D03*
X110000Y-37000D03*
X109000Y-37000D03*
X108000Y-37000D03*
G54D12*
X89000Y-25000D03*
G54D13*
X90000Y-25000D03*
X91000Y-25000D03*
X92000Y-25000D03*
X93000Y-25000D03*
X94000Y-25000D03*
X95000Y-25000D03*
X95000Y-22000D03*
X94000Y-22000D03*
X93000Y-22000D03*
X92000Y-22000D03*
X91000Y-22000D03*
X90000Y-22000D03*
X89000Y-22000D03*
G54D12*
X89000Y-15000D03*
G54D13*
X90000Y-15000D03*
X91000Y-15000D03*
X92000Y-15000D03*
X93000Y-15000D03*
X94000Y-15000D03*
X95000Y-15000D03*
X95000Y-12000D03*
X94000Y-12000D03*
X93000Y-12000D03*
X92000Y-12000D03*
X91000Y-12000D03*
X90000Y-12000D03*
X89000Y-12000D03*
G54D12*
X118000Y-15000D03*
G54D13*
X119000Y-15000D03*
X120000Y-15000D03*
X121000Y-15000D03*
X122000Y-15000D03*
X123000Y-15000D03*
X124000Y-15000D03*
X124000Y-12000D03*
X123000Y-12000D03*
X122000Y-12000D03*
X121000Y-12000D03*
X120000Y-12000D03*
X119000Y-12000D03*
X118000Y-12000D03*
G54D12*
X118000Y-25000D03*
G54D13*
X119000Y-25000D03*
X120000Y-25000D03*
X121000Y-25000D03*
X122000Y-25000D03*
X123000Y-25000D03*
X124000Y-25000D03*
X124000Y-22000D03*
X123000Y-22000D03*
X122000Y-22000D03*
X121000Y-22000D03*
X120000Y-22000D03*
X119000Y-22000D03*
X118000Y-22000D03*
G54D12*
X118000Y-30000D03*
G54D13*
X119000Y-30000D03*
X120000Y-30000D03*
X121000Y-30000D03*
X122000Y-30000D03*
X123000Y-30000D03*
X124000Y-30000D03*
X124000Y-27000D03*
X123000Y-27000D03*
X122000Y-27000D03*
X121000Y-27000D03*
X120000Y-27000D03*
X119000Y-27000D03*
X118000Y-27000D03*
G54D12*
X98000Y-35000D03*
G54D13*
X99000Y-35000D03*
X100000Y-35000D03*
X101000Y-35000D03*
X102000Y-35000D03*
X103000Y-35000D03*
X104000Y-35000D03*
X104000Y-32000D03*
X103000Y-32000D03*
X102000Y-32000D03*
X101000Y-32000D03*
X100000Y-32000D03*
X99000Y-32000D03*
X98000Y-32000D03*
G54D12*
X108000Y-35000D03*
G54D13*
X109000Y-35000D03*
X110000Y-35000D03*
X111000Y-35000D03*
X112000Y-35000D03*
X113000Y-35000D03*
X114000Y-35000D03*
X114000Y-32000D03*
X113000Y-32000D03*
X112000Y-32000D03*
X111000Y-32000D03*
X110000Y-32000D03*
X109000Y-32000D03*
X108000Y-32000D03*
G54D12*
X108000Y-30000D03*
G54D13*
X109000Y-30000D03*
X110000Y-30000D03*
X111000Y-30000D03*
X112000Y-30000D03*
X113000Y-30000D03*
X114000Y-30000D03*
X114000Y-27000D03*
X113000Y-27000D03*
X112000Y-27000D03*
X111000Y-27000D03*
X110000Y-27000D03*
X109000Y-27000D03*
X108000Y-27000D03*
G54D12*
X108000Y-25000D03*
G54D13*
X109000Y-25000D03*
X110000Y-25000D03*
X111000Y-25000D03*
X112000Y-25000D03*
X113000Y-25000D03*
X114000Y-25000D03*
X114000Y-22000D03*
X113000Y-22000D03*
X112000Y-22000D03*
X111000Y-22000D03*
X110000Y-22000D03*
X109000Y-22000D03*
X108000Y-22000D03*
G54D12*
X108000Y-20000D03*
G54D13*
X109000Y-20000D03*
X110000Y-20000D03*
X111000Y-20000D03*
X112000Y-20000D03*
X113000Y-20000D03*
X114000Y-20000D03*
X114000Y-17000D03*
X113000Y-17000D03*
X112000Y-17000D03*
X111000Y-17000D03*
X110000Y-17000D03*
X109000Y-17000D03*
X108000Y-17000D03*
G54D12*
X108000Y-15000D03*
G54D13*
X109000Y-15000D03*
X110000Y-15000D03*
X111000Y-15000D03*
X112000Y-15000D03*
X113000Y-15000D03*
X114000Y-15000D03*
X114000Y-12000D03*
X113000Y-12000D03*
X112000Y-12000D03*
X111000Y-12000D03*
X110000Y-12000D03*
X109000Y-12000D03*
X108000Y-12000D03*
G54D12*
X98000Y-20000D03*
G54D13*
X99000Y-20000D03*
X100000Y-20000D03*
X101000Y-20000D03*
X102000Y-20000D03*
X103000Y-20000D03*
X104000Y-20000D03*
X104000Y-17000D03*
X103000Y-17000D03*
X102000Y-17000D03*
X101000Y-17000D03*
X100000Y-17000D03*
X99000Y-17000D03*
X98000Y-17000D03*
G54D12*
X43000Y-21000D03*
G54D13*
X44000Y-21000D03*
X45000Y-21000D03*
X46000Y-21000D03*
X47000Y-21000D03*
X48000Y-21000D03*
X49000Y-21000D03*
X50000Y-21000D03*
X51000Y-21000D03*
X51000Y-18000D03*
X50000Y-18000D03*
X49000Y-18000D03*
X48000Y-18000D03*
X47000Y-18000D03*
X46000Y-18000D03*
X45000Y-18000D03*
X44000Y-18000D03*
X43000Y-18000D03*
G54D12*
X43000Y-33000D03*
G54D13*
X44000Y-33000D03*
X45000Y-33000D03*
X46000Y-33000D03*
X47000Y-33000D03*
X48000Y-33000D03*
X49000Y-33000D03*
X50000Y-33000D03*
X51000Y-33000D03*
X52000Y-33000D03*
X52000Y-30000D03*
X51000Y-30000D03*
X50000Y-30000D03*
X49000Y-30000D03*
X48000Y-30000D03*
X47000Y-30000D03*
X46000Y-30000D03*
X45000Y-30000D03*
X44000Y-30000D03*
X43000Y-30000D03*
G54D12*
X56000Y-45000D03*
G54D13*
X57000Y-45000D03*
X58000Y-45000D03*
X59000Y-45000D03*
X60000Y-45000D03*
X61000Y-45000D03*
X62000Y-45000D03*
X63000Y-45000D03*
X63000Y-42000D03*
X62000Y-42000D03*
X61000Y-42000D03*
X60000Y-42000D03*
X59000Y-42000D03*
X58000Y-42000D03*
X57000Y-42000D03*
X56000Y-42000D03*
G54D12*
X56000Y-40000D03*
G54D13*
X57000Y-40000D03*
X58000Y-40000D03*
X59000Y-40000D03*
X60000Y-40000D03*
X61000Y-40000D03*
X62000Y-40000D03*
X63000Y-40000D03*
X63000Y-37000D03*
X62000Y-37000D03*
X61000Y-37000D03*
X60000Y-37000D03*
X59000Y-37000D03*
X58000Y-37000D03*
X57000Y-37000D03*
X56000Y-37000D03*
G54D12*
X56000Y-35000D03*
G54D13*
X57000Y-35000D03*
X58000Y-35000D03*
X59000Y-35000D03*
X60000Y-35000D03*
X61000Y-35000D03*
X62000Y-35000D03*
X63000Y-35000D03*
X63000Y-32000D03*
X62000Y-32000D03*
X61000Y-32000D03*
X60000Y-32000D03*
X59000Y-32000D03*
X58000Y-32000D03*
X57000Y-32000D03*
X56000Y-32000D03*
G54D12*
X56000Y-50000D03*
G54D13*
X57000Y-50000D03*
X58000Y-50000D03*
X59000Y-50000D03*
X60000Y-50000D03*
X61000Y-50000D03*
X62000Y-50000D03*
X63000Y-50000D03*
X63000Y-47000D03*
X62000Y-47000D03*
X61000Y-47000D03*
X60000Y-47000D03*
X59000Y-47000D03*
X58000Y-47000D03*
X57000Y-47000D03*
X56000Y-47000D03*
G54D12*
X71000Y-85000D03*
G54D13*
X71000Y-84000D03*
X71000Y-83000D03*
X71000Y-82000D03*
X71000Y-81000D03*
X71000Y-80000D03*
X71000Y-79000D03*
X68000Y-79000D03*
X68000Y-80000D03*
X68000Y-81000D03*
X68000Y-82000D03*
X68000Y-83000D03*
X68000Y-84000D03*
X68000Y-85000D03*
G54D12*
X71000Y-75000D03*
G54D13*
X71000Y-74000D03*
X71000Y-73000D03*
X71000Y-72000D03*
X71000Y-71000D03*
X71000Y-70000D03*
X71000Y-69000D03*
X68000Y-69000D03*
X68000Y-70000D03*
X68000Y-71000D03*
X68000Y-72000D03*
X68000Y-73000D03*
X68000Y-74000D03*
X68000Y-75000D03*
G54D12*
X56000Y-20000D03*
G54D13*
X57000Y-20000D03*
X58000Y-20000D03*
X59000Y-20000D03*
X60000Y-20000D03*
X61000Y-20000D03*
X62000Y-20000D03*
X63000Y-20000D03*
X63000Y-17000D03*
X62000Y-17000D03*
X61000Y-17000D03*
X60000Y-17000D03*
X59000Y-17000D03*
X58000Y-17000D03*
X57000Y-17000D03*
X56000Y-17000D03*
G54D12*
X58000Y-14000D03*
G54D13*
X59000Y-14000D03*
X60000Y-14000D03*
X61000Y-14000D03*
X62000Y-14000D03*
X63000Y-14000D03*
X64000Y-14000D03*
X65000Y-14000D03*
X65000Y-11000D03*
X64000Y-11000D03*
X63000Y-11000D03*
X62000Y-11000D03*
X61000Y-11000D03*
X60000Y-11000D03*
X59000Y-11000D03*
X58000Y-11000D03*
G54D12*
X118000Y-45000D03*
G54D13*
X119000Y-45000D03*
X120000Y-45000D03*
X121000Y-45000D03*
X122000Y-45000D03*
X123000Y-45000D03*
X124000Y-45000D03*
X124000Y-42000D03*
X123000Y-42000D03*
X122000Y-42000D03*
X121000Y-42000D03*
X120000Y-42000D03*
X119000Y-42000D03*
X118000Y-42000D03*
G54D21*
X17000Y-49000D03*
G54D22*
X17000Y-46000D03*
X17000Y-44000D03*
X17000Y-42000D03*
X14000Y-42000D03*
X14000Y-44000D03*
X14000Y-46000D03*
X14000Y-49000D03*
G54D12*
X98000Y-15000D03*
G54D13*
X99000Y-15000D03*
X100000Y-15000D03*
X101000Y-15000D03*
X102000Y-15000D03*
X103000Y-15000D03*
X104000Y-15000D03*
X105000Y-15000D03*
X105000Y-12000D03*
X104000Y-12000D03*
X103000Y-12000D03*
X102000Y-12000D03*
X101000Y-12000D03*
X100000Y-12000D03*
X99000Y-12000D03*
X98000Y-12000D03*
G54D20*
X37000Y-12500D03*
X35441Y-12500D03*
X30764Y-12500D03*
X33882Y-12500D03*
X32323Y-12500D03*
X29205Y-12500D03*
G54D23*
X33098Y-11500D03*
G54D20*
X27500Y-12500D03*
X25941Y-12500D03*
X21264Y-12500D03*
X24382Y-12500D03*
X22823Y-12500D03*
X19705Y-12500D03*
G54D23*
X23598Y-11500D03*
G54D24*
X13750Y-12000D03*
X70000Y-12000D03*
X70000Y-58000D03*
X70000Y-88000D03*
X13750Y-58000D03*
X13750Y-88000D03*
X128000Y-88000D03*
X128000Y-58000D03*
X128000Y-12000D03*
G54D13*
X11000Y-16500D03*
X13000Y-16500D03*
X12000Y-16500D03*
X21000Y-17000D03*
X23000Y-17000D03*
X22000Y-17000D03*
X20000Y-22000D03*
X22000Y-22000D03*
X21000Y-22000D03*
X25000Y-16250D03*
X27000Y-16250D03*
X26000Y-16250D03*
X17250Y-28500D03*
X17250Y-26500D03*
X17250Y-27500D03*
X17250Y-25000D03*
X17250Y-23000D03*
X17250Y-24000D03*
X29000Y-16250D03*
X31000Y-16250D03*
X30000Y-16250D03*
M02*
