G04 (created by PCBNEW-RS274X (2011-04-29 BZR 2986)-stable) date 2012-10-07 12:58:47*
G01*
G70*
G90*
%MOIN*%
G04 Gerber Fmt 3.4, Leading zero omitted, Abs format*
%FSLAX34Y34*%
G04 APERTURE LIST*
%ADD10C,0.001000*%
%ADD11C,0.012000*%
%ADD12C,0.015000*%
G04 APERTURE END LIST*
G54D10*
X04000Y-04000D02*
X161350Y-04000D01*
X161350Y-113000D01*
X04000Y-113000D01*
X04000Y-04000D01*
X04700Y-04700D02*
X160650Y-04700D01*
X160650Y-112300D01*
X04700Y-112300D01*
X04700Y-04700D01*
X26470Y-04000D02*
X26470Y-04700D01*
X15383Y-04552D02*
X15097Y-04552D01*
X15240Y-04552D02*
X15240Y-04052D01*
X15192Y-04124D01*
X15145Y-04171D01*
X15097Y-04195D01*
X26470Y-113000D02*
X26470Y-112300D01*
X15383Y-112852D02*
X15097Y-112852D01*
X15240Y-112852D02*
X15240Y-112352D01*
X15192Y-112424D01*
X15145Y-112471D01*
X15097Y-112495D01*
X48940Y-04000D02*
X48940Y-04700D01*
X37567Y-04100D02*
X37591Y-04076D01*
X37639Y-04052D01*
X37758Y-04052D01*
X37805Y-04076D01*
X37829Y-04100D01*
X37853Y-04148D01*
X37853Y-04195D01*
X37829Y-04267D01*
X37543Y-04552D01*
X37853Y-04552D01*
X48940Y-113000D02*
X48940Y-112300D01*
X37567Y-112400D02*
X37591Y-112376D01*
X37639Y-112352D01*
X37758Y-112352D01*
X37805Y-112376D01*
X37829Y-112400D01*
X37853Y-112448D01*
X37853Y-112495D01*
X37829Y-112567D01*
X37543Y-112852D01*
X37853Y-112852D01*
X71410Y-04000D02*
X71410Y-04700D01*
X60013Y-04052D02*
X60323Y-04052D01*
X60156Y-04243D01*
X60228Y-04243D01*
X60275Y-04267D01*
X60299Y-04290D01*
X60323Y-04338D01*
X60323Y-04457D01*
X60299Y-04505D01*
X60275Y-04529D01*
X60228Y-04552D01*
X60085Y-04552D01*
X60037Y-04529D01*
X60013Y-04505D01*
X71410Y-113000D02*
X71410Y-112300D01*
X60013Y-112352D02*
X60323Y-112352D01*
X60156Y-112543D01*
X60228Y-112543D01*
X60275Y-112567D01*
X60299Y-112590D01*
X60323Y-112638D01*
X60323Y-112757D01*
X60299Y-112805D01*
X60275Y-112829D01*
X60228Y-112852D01*
X60085Y-112852D01*
X60037Y-112829D01*
X60013Y-112805D01*
X93880Y-04000D02*
X93880Y-04700D01*
X82745Y-04219D02*
X82745Y-04552D01*
X82626Y-04029D02*
X82507Y-04386D01*
X82817Y-04386D01*
X93880Y-113000D02*
X93880Y-112300D01*
X82745Y-112519D02*
X82745Y-112852D01*
X82626Y-112329D02*
X82507Y-112686D01*
X82817Y-112686D01*
X116350Y-04000D02*
X116350Y-04700D01*
X105239Y-04052D02*
X105001Y-04052D01*
X104977Y-04290D01*
X105001Y-04267D01*
X105049Y-04243D01*
X105168Y-04243D01*
X105215Y-04267D01*
X105239Y-04290D01*
X105263Y-04338D01*
X105263Y-04457D01*
X105239Y-04505D01*
X105215Y-04529D01*
X105168Y-04552D01*
X105049Y-04552D01*
X105001Y-04529D01*
X104977Y-04505D01*
X116350Y-113000D02*
X116350Y-112300D01*
X105239Y-112352D02*
X105001Y-112352D01*
X104977Y-112590D01*
X105001Y-112567D01*
X105049Y-112543D01*
X105168Y-112543D01*
X105215Y-112567D01*
X105239Y-112590D01*
X105263Y-112638D01*
X105263Y-112757D01*
X105239Y-112805D01*
X105215Y-112829D01*
X105168Y-112852D01*
X105049Y-112852D01*
X105001Y-112829D01*
X104977Y-112805D01*
X138820Y-04000D02*
X138820Y-04700D01*
X127685Y-04052D02*
X127590Y-04052D01*
X127542Y-04076D01*
X127519Y-04100D01*
X127471Y-04171D01*
X127447Y-04267D01*
X127447Y-04457D01*
X127471Y-04505D01*
X127495Y-04529D01*
X127542Y-04552D01*
X127638Y-04552D01*
X127685Y-04529D01*
X127709Y-04505D01*
X127733Y-04457D01*
X127733Y-04338D01*
X127709Y-04290D01*
X127685Y-04267D01*
X127638Y-04243D01*
X127542Y-04243D01*
X127495Y-04267D01*
X127471Y-04290D01*
X127447Y-04338D01*
X138820Y-113000D02*
X138820Y-112300D01*
X127685Y-112352D02*
X127590Y-112352D01*
X127542Y-112376D01*
X127519Y-112400D01*
X127471Y-112471D01*
X127447Y-112567D01*
X127447Y-112757D01*
X127471Y-112805D01*
X127495Y-112829D01*
X127542Y-112852D01*
X127638Y-112852D01*
X127685Y-112829D01*
X127709Y-112805D01*
X127733Y-112757D01*
X127733Y-112638D01*
X127709Y-112590D01*
X127685Y-112567D01*
X127638Y-112543D01*
X127542Y-112543D01*
X127495Y-112567D01*
X127471Y-112590D01*
X127447Y-112638D01*
X149893Y-04052D02*
X150227Y-04052D01*
X150012Y-04552D01*
X149893Y-112352D02*
X150227Y-112352D01*
X150012Y-112852D01*
X04000Y-25800D02*
X04700Y-25800D01*
X04231Y-14960D02*
X04469Y-14960D01*
X04184Y-15102D02*
X04350Y-14602D01*
X04517Y-15102D01*
X161350Y-25800D02*
X160650Y-25800D01*
X160881Y-14960D02*
X161119Y-14960D01*
X160834Y-15102D02*
X161000Y-14602D01*
X161167Y-15102D01*
X04000Y-47600D02*
X04700Y-47600D01*
X04386Y-36640D02*
X04457Y-36664D01*
X04481Y-36688D01*
X04505Y-36736D01*
X04505Y-36807D01*
X04481Y-36855D01*
X04457Y-36879D01*
X04410Y-36902D01*
X04219Y-36902D01*
X04219Y-36402D01*
X04386Y-36402D01*
X04433Y-36426D01*
X04457Y-36450D01*
X04481Y-36498D01*
X04481Y-36545D01*
X04457Y-36593D01*
X04433Y-36617D01*
X04386Y-36640D01*
X04219Y-36640D01*
X161350Y-47600D02*
X160650Y-47600D01*
X161036Y-36640D02*
X161107Y-36664D01*
X161131Y-36688D01*
X161155Y-36736D01*
X161155Y-36807D01*
X161131Y-36855D01*
X161107Y-36879D01*
X161060Y-36902D01*
X160869Y-36902D01*
X160869Y-36402D01*
X161036Y-36402D01*
X161083Y-36426D01*
X161107Y-36450D01*
X161131Y-36498D01*
X161131Y-36545D01*
X161107Y-36593D01*
X161083Y-36617D01*
X161036Y-36640D01*
X160869Y-36640D01*
X04000Y-69400D02*
X04700Y-69400D01*
X04505Y-58655D02*
X04481Y-58679D01*
X04410Y-58702D01*
X04362Y-58702D01*
X04290Y-58679D01*
X04243Y-58631D01*
X04219Y-58583D01*
X04195Y-58488D01*
X04195Y-58417D01*
X04219Y-58321D01*
X04243Y-58274D01*
X04290Y-58226D01*
X04362Y-58202D01*
X04410Y-58202D01*
X04481Y-58226D01*
X04505Y-58250D01*
X161350Y-69400D02*
X160650Y-69400D01*
X161155Y-58655D02*
X161131Y-58679D01*
X161060Y-58702D01*
X161012Y-58702D01*
X160940Y-58679D01*
X160893Y-58631D01*
X160869Y-58583D01*
X160845Y-58488D01*
X160845Y-58417D01*
X160869Y-58321D01*
X160893Y-58274D01*
X160940Y-58226D01*
X161012Y-58202D01*
X161060Y-58202D01*
X161131Y-58226D01*
X161155Y-58250D01*
X04000Y-91200D02*
X04700Y-91200D01*
X04219Y-80502D02*
X04219Y-80002D01*
X04338Y-80002D01*
X04410Y-80026D01*
X04457Y-80074D01*
X04481Y-80121D01*
X04505Y-80217D01*
X04505Y-80288D01*
X04481Y-80383D01*
X04457Y-80431D01*
X04410Y-80479D01*
X04338Y-80502D01*
X04219Y-80502D01*
X161350Y-91200D02*
X160650Y-91200D01*
X160869Y-80502D02*
X160869Y-80002D01*
X160988Y-80002D01*
X161060Y-80026D01*
X161107Y-80074D01*
X161131Y-80121D01*
X161155Y-80217D01*
X161155Y-80288D01*
X161131Y-80383D01*
X161107Y-80431D01*
X161060Y-80479D01*
X160988Y-80502D01*
X160869Y-80502D01*
X04243Y-102040D02*
X04410Y-102040D01*
X04481Y-102302D02*
X04243Y-102302D01*
X04243Y-101802D01*
X04481Y-101802D01*
X160893Y-102040D02*
X161060Y-102040D01*
X161131Y-102302D02*
X160893Y-102302D01*
X160893Y-101802D01*
X161131Y-101802D01*
G54D11*
X127793Y-110743D02*
X127793Y-110143D01*
X127936Y-110143D01*
X128021Y-110171D01*
X128079Y-110229D01*
X128107Y-110286D01*
X128136Y-110400D01*
X128136Y-110486D01*
X128107Y-110600D01*
X128079Y-110657D01*
X128021Y-110714D01*
X127936Y-110743D01*
X127793Y-110743D01*
X128650Y-110743D02*
X128650Y-110429D01*
X128621Y-110371D01*
X128564Y-110343D01*
X128450Y-110343D01*
X128393Y-110371D01*
X128650Y-110714D02*
X128593Y-110743D01*
X128450Y-110743D01*
X128393Y-110714D01*
X128364Y-110657D01*
X128364Y-110600D01*
X128393Y-110543D01*
X128450Y-110514D01*
X128593Y-110514D01*
X128650Y-110486D01*
X128850Y-110343D02*
X129079Y-110343D01*
X128936Y-110143D02*
X128936Y-110657D01*
X128964Y-110714D01*
X129022Y-110743D01*
X129079Y-110743D01*
X129507Y-110714D02*
X129450Y-110743D01*
X129336Y-110743D01*
X129279Y-110714D01*
X129250Y-110657D01*
X129250Y-110429D01*
X129279Y-110371D01*
X129336Y-110343D01*
X129450Y-110343D01*
X129507Y-110371D01*
X129536Y-110429D01*
X129536Y-110486D01*
X129250Y-110543D01*
X129793Y-110686D02*
X129821Y-110714D01*
X129793Y-110743D01*
X129764Y-110714D01*
X129793Y-110686D01*
X129793Y-110743D01*
X129793Y-110371D02*
X129821Y-110400D01*
X129793Y-110429D01*
X129764Y-110400D01*
X129793Y-110371D01*
X129793Y-110429D01*
X130479Y-110143D02*
X130879Y-110143D01*
X130622Y-110743D01*
X131650Y-110743D02*
X131592Y-110714D01*
X131564Y-110686D01*
X131535Y-110629D01*
X131535Y-110457D01*
X131564Y-110400D01*
X131592Y-110371D01*
X131650Y-110343D01*
X131735Y-110343D01*
X131792Y-110371D01*
X131821Y-110400D01*
X131850Y-110457D01*
X131850Y-110629D01*
X131821Y-110686D01*
X131792Y-110714D01*
X131735Y-110743D01*
X131650Y-110743D01*
X132364Y-110714D02*
X132307Y-110743D01*
X132193Y-110743D01*
X132135Y-110714D01*
X132107Y-110686D01*
X132078Y-110629D01*
X132078Y-110457D01*
X132107Y-110400D01*
X132135Y-110371D01*
X132193Y-110343D01*
X132307Y-110343D01*
X132364Y-110371D01*
X132535Y-110343D02*
X132764Y-110343D01*
X132621Y-110143D02*
X132621Y-110657D01*
X132649Y-110714D01*
X132707Y-110743D01*
X132764Y-110743D01*
X133392Y-110200D02*
X133421Y-110171D01*
X133478Y-110143D01*
X133621Y-110143D01*
X133678Y-110171D01*
X133707Y-110200D01*
X133735Y-110257D01*
X133735Y-110314D01*
X133707Y-110400D01*
X133364Y-110743D01*
X133735Y-110743D01*
X134106Y-110143D02*
X134163Y-110143D01*
X134220Y-110171D01*
X134249Y-110200D01*
X134278Y-110257D01*
X134306Y-110371D01*
X134306Y-110514D01*
X134278Y-110629D01*
X134249Y-110686D01*
X134220Y-110714D01*
X134163Y-110743D01*
X134106Y-110743D01*
X134049Y-110714D01*
X134020Y-110686D01*
X133992Y-110629D01*
X133963Y-110514D01*
X133963Y-110371D01*
X133992Y-110257D01*
X134020Y-110200D01*
X134049Y-110171D01*
X134106Y-110143D01*
X134877Y-110743D02*
X134534Y-110743D01*
X134706Y-110743D02*
X134706Y-110143D01*
X134649Y-110229D01*
X134591Y-110286D01*
X134534Y-110314D01*
X135105Y-110200D02*
X135134Y-110171D01*
X135191Y-110143D01*
X135334Y-110143D01*
X135391Y-110171D01*
X135420Y-110200D01*
X135448Y-110257D01*
X135448Y-110314D01*
X135420Y-110400D01*
X135077Y-110743D01*
X135448Y-110743D01*
G54D10*
X119393Y-111943D02*
X119393Y-111343D01*
X119736Y-111943D02*
X119479Y-111600D01*
X119736Y-111343D02*
X119393Y-111686D01*
X119993Y-111943D02*
X119993Y-111543D01*
X119993Y-111343D02*
X119964Y-111371D01*
X119993Y-111400D01*
X120021Y-111371D01*
X119993Y-111343D01*
X119993Y-111400D01*
X120622Y-111886D02*
X120593Y-111914D01*
X120507Y-111943D01*
X120450Y-111943D01*
X120365Y-111914D01*
X120307Y-111857D01*
X120279Y-111800D01*
X120250Y-111686D01*
X120250Y-111600D01*
X120279Y-111486D01*
X120307Y-111429D01*
X120365Y-111371D01*
X120450Y-111343D01*
X120507Y-111343D01*
X120593Y-111371D01*
X120622Y-111400D01*
X121136Y-111943D02*
X121136Y-111629D01*
X121107Y-111571D01*
X121050Y-111543D01*
X120936Y-111543D01*
X120879Y-111571D01*
X121136Y-111914D02*
X121079Y-111943D01*
X120936Y-111943D01*
X120879Y-111914D01*
X120850Y-111857D01*
X120850Y-111800D01*
X120879Y-111743D01*
X120936Y-111714D01*
X121079Y-111714D01*
X121136Y-111686D01*
X121679Y-111943D02*
X121679Y-111343D01*
X121679Y-111914D02*
X121622Y-111943D01*
X121508Y-111943D01*
X121450Y-111914D01*
X121422Y-111886D01*
X121393Y-111829D01*
X121393Y-111657D01*
X121422Y-111600D01*
X121450Y-111571D01*
X121508Y-111543D01*
X121622Y-111543D01*
X121679Y-111571D01*
X122422Y-111629D02*
X122622Y-111629D01*
X122708Y-111943D02*
X122422Y-111943D01*
X122422Y-111343D01*
X122708Y-111343D01*
X122965Y-111886D02*
X122993Y-111914D01*
X122965Y-111943D01*
X122936Y-111914D01*
X122965Y-111886D01*
X122965Y-111943D01*
X123251Y-111943D02*
X123251Y-111343D01*
X123394Y-111343D01*
X123479Y-111371D01*
X123537Y-111429D01*
X123565Y-111486D01*
X123594Y-111600D01*
X123594Y-111686D01*
X123565Y-111800D01*
X123537Y-111857D01*
X123479Y-111914D01*
X123394Y-111943D01*
X123251Y-111943D01*
X123851Y-111886D02*
X123879Y-111914D01*
X123851Y-111943D01*
X123822Y-111914D01*
X123851Y-111886D01*
X123851Y-111943D01*
X124108Y-111771D02*
X124394Y-111771D01*
X124051Y-111943D02*
X124251Y-111343D01*
X124451Y-111943D01*
X124651Y-111886D02*
X124679Y-111914D01*
X124651Y-111943D01*
X124622Y-111914D01*
X124651Y-111886D01*
X124651Y-111943D01*
G54D11*
X152936Y-110743D02*
X152736Y-110457D01*
X152593Y-110743D02*
X152593Y-110143D01*
X152821Y-110143D01*
X152879Y-110171D01*
X152907Y-110200D01*
X152936Y-110257D01*
X152936Y-110343D01*
X152907Y-110400D01*
X152879Y-110429D01*
X152821Y-110457D01*
X152593Y-110457D01*
X153421Y-110714D02*
X153364Y-110743D01*
X153250Y-110743D01*
X153193Y-110714D01*
X153164Y-110657D01*
X153164Y-110429D01*
X153193Y-110371D01*
X153250Y-110343D01*
X153364Y-110343D01*
X153421Y-110371D01*
X153450Y-110429D01*
X153450Y-110486D01*
X153164Y-110543D01*
X153650Y-110343D02*
X153793Y-110743D01*
X153935Y-110343D01*
X154164Y-110686D02*
X154192Y-110714D01*
X154164Y-110743D01*
X154135Y-110714D01*
X154164Y-110686D01*
X154164Y-110743D01*
X154164Y-110371D02*
X154192Y-110400D01*
X154164Y-110429D01*
X154135Y-110400D01*
X154164Y-110371D01*
X154164Y-110429D01*
G54D10*
X119364Y-110714D02*
X119450Y-110743D01*
X119593Y-110743D01*
X119650Y-110714D01*
X119679Y-110686D01*
X119707Y-110629D01*
X119707Y-110571D01*
X119679Y-110514D01*
X119650Y-110486D01*
X119593Y-110457D01*
X119479Y-110429D01*
X119421Y-110400D01*
X119393Y-110371D01*
X119364Y-110314D01*
X119364Y-110257D01*
X119393Y-110200D01*
X119421Y-110171D01*
X119479Y-110143D01*
X119621Y-110143D01*
X119707Y-110171D01*
X119964Y-110743D02*
X119964Y-110343D01*
X119964Y-110143D02*
X119935Y-110171D01*
X119964Y-110200D01*
X119992Y-110171D01*
X119964Y-110143D01*
X119964Y-110200D01*
X120193Y-110343D02*
X120507Y-110343D01*
X120193Y-110743D01*
X120507Y-110743D01*
X120964Y-110714D02*
X120907Y-110743D01*
X120793Y-110743D01*
X120736Y-110714D01*
X120707Y-110657D01*
X120707Y-110429D01*
X120736Y-110371D01*
X120793Y-110343D01*
X120907Y-110343D01*
X120964Y-110371D01*
X120993Y-110429D01*
X120993Y-110486D01*
X120707Y-110543D01*
X121250Y-110686D02*
X121278Y-110714D01*
X121250Y-110743D01*
X121221Y-110714D01*
X121250Y-110686D01*
X121250Y-110743D01*
X121250Y-110371D02*
X121278Y-110400D01*
X121250Y-110429D01*
X121221Y-110400D01*
X121250Y-110371D01*
X121250Y-110429D01*
X121964Y-110571D02*
X122250Y-110571D01*
X121907Y-110743D02*
X122107Y-110143D01*
X122307Y-110743D01*
X122450Y-110143D02*
X122821Y-110143D01*
X122621Y-110371D01*
X122707Y-110371D01*
X122764Y-110400D01*
X122793Y-110429D01*
X122821Y-110486D01*
X122821Y-110629D01*
X122793Y-110686D01*
X122764Y-110714D01*
X122707Y-110743D01*
X122535Y-110743D01*
X122478Y-110714D01*
X122450Y-110686D01*
X152593Y-111943D02*
X152593Y-111343D01*
X153136Y-111943D02*
X153136Y-111343D01*
X153136Y-111914D02*
X153079Y-111943D01*
X152965Y-111943D01*
X152907Y-111914D01*
X152879Y-111886D01*
X152850Y-111829D01*
X152850Y-111657D01*
X152879Y-111600D01*
X152907Y-111571D01*
X152965Y-111543D01*
X153079Y-111543D01*
X153136Y-111571D01*
X153422Y-111886D02*
X153450Y-111914D01*
X153422Y-111943D01*
X153393Y-111914D01*
X153422Y-111886D01*
X153422Y-111943D01*
X153422Y-111571D02*
X153450Y-111600D01*
X153422Y-111629D01*
X153393Y-111600D01*
X153422Y-111571D01*
X153422Y-111629D01*
X154479Y-111943D02*
X154136Y-111943D01*
X154308Y-111943D02*
X154308Y-111343D01*
X154251Y-111429D01*
X154193Y-111486D01*
X154136Y-111514D01*
X155164Y-111314D02*
X154650Y-112086D01*
X155679Y-111943D02*
X155336Y-111943D01*
X155508Y-111943D02*
X155508Y-111343D01*
X155451Y-111429D01*
X155393Y-111486D01*
X155336Y-111514D01*
G54D11*
X119307Y-108943D02*
X119650Y-108943D01*
X119479Y-109543D02*
X119479Y-108943D01*
X119850Y-109543D02*
X119850Y-109143D01*
X119850Y-108943D02*
X119821Y-108971D01*
X119850Y-109000D01*
X119878Y-108971D01*
X119850Y-108943D01*
X119850Y-109000D01*
X120050Y-109143D02*
X120279Y-109143D01*
X120136Y-108943D02*
X120136Y-109457D01*
X120164Y-109514D01*
X120222Y-109543D01*
X120279Y-109543D01*
X120565Y-109543D02*
X120507Y-109514D01*
X120479Y-109457D01*
X120479Y-108943D01*
X121021Y-109514D02*
X120964Y-109543D01*
X120850Y-109543D01*
X120793Y-109514D01*
X120764Y-109457D01*
X120764Y-109229D01*
X120793Y-109171D01*
X120850Y-109143D01*
X120964Y-109143D01*
X121021Y-109171D01*
X121050Y-109229D01*
X121050Y-109286D01*
X120764Y-109343D01*
X121307Y-109486D02*
X121335Y-109514D01*
X121307Y-109543D01*
X121278Y-109514D01*
X121307Y-109486D01*
X121307Y-109543D01*
X121307Y-109171D02*
X121335Y-109200D01*
X121307Y-109229D01*
X121278Y-109200D01*
X121307Y-109171D01*
X121307Y-109229D01*
G54D10*
X119593Y-106829D02*
X119393Y-106829D01*
X119393Y-107143D02*
X119393Y-106543D01*
X119679Y-106543D01*
X119907Y-107143D02*
X119907Y-106743D01*
X119907Y-106543D02*
X119878Y-106571D01*
X119907Y-106600D01*
X119935Y-106571D01*
X119907Y-106543D01*
X119907Y-106600D01*
X120279Y-107143D02*
X120221Y-107114D01*
X120193Y-107057D01*
X120193Y-106543D01*
X120735Y-107114D02*
X120678Y-107143D01*
X120564Y-107143D01*
X120507Y-107114D01*
X120478Y-107057D01*
X120478Y-106829D01*
X120507Y-106771D01*
X120564Y-106743D01*
X120678Y-106743D01*
X120735Y-106771D01*
X120764Y-106829D01*
X120764Y-106886D01*
X120478Y-106943D01*
X121021Y-107086D02*
X121049Y-107114D01*
X121021Y-107143D01*
X120992Y-107114D01*
X121021Y-107086D01*
X121021Y-107143D01*
X121021Y-106771D02*
X121049Y-106800D01*
X121021Y-106829D01*
X120992Y-106800D01*
X121021Y-106771D01*
X121021Y-106829D01*
X122021Y-106543D02*
X121907Y-106543D01*
X121850Y-106571D01*
X121821Y-106600D01*
X121764Y-106686D01*
X121735Y-106800D01*
X121735Y-107029D01*
X121764Y-107086D01*
X121792Y-107114D01*
X121850Y-107143D01*
X121964Y-107143D01*
X122021Y-107114D01*
X122050Y-107086D01*
X122078Y-107029D01*
X122078Y-106886D01*
X122050Y-106829D01*
X122021Y-106800D01*
X121964Y-106771D01*
X121850Y-106771D01*
X121792Y-106800D01*
X121764Y-106829D01*
X121735Y-106886D01*
X122592Y-106743D02*
X122592Y-107143D01*
X122449Y-106514D02*
X122306Y-106943D01*
X122678Y-106943D01*
X122763Y-107200D02*
X123220Y-107200D01*
X123334Y-106600D02*
X123363Y-106571D01*
X123420Y-106543D01*
X123563Y-106543D01*
X123620Y-106571D01*
X123649Y-106600D01*
X123677Y-106657D01*
X123677Y-106714D01*
X123649Y-106800D01*
X123306Y-107143D01*
X123677Y-107143D01*
X124220Y-106543D02*
X123934Y-106543D01*
X123905Y-106829D01*
X123934Y-106800D01*
X123991Y-106771D01*
X124134Y-106771D01*
X124191Y-106800D01*
X124220Y-106829D01*
X124248Y-106886D01*
X124248Y-107029D01*
X124220Y-107086D01*
X124191Y-107114D01*
X124134Y-107143D01*
X123991Y-107143D01*
X123934Y-107114D01*
X123905Y-107086D01*
X124762Y-106543D02*
X124648Y-106543D01*
X124591Y-106571D01*
X124562Y-106600D01*
X124505Y-106686D01*
X124476Y-106800D01*
X124476Y-107029D01*
X124505Y-107086D01*
X124533Y-107114D01*
X124591Y-107143D01*
X124705Y-107143D01*
X124762Y-107114D01*
X124791Y-107086D01*
X124819Y-107029D01*
X124819Y-106886D01*
X124791Y-106829D01*
X124762Y-106800D01*
X124705Y-106771D01*
X124591Y-106771D01*
X124533Y-106800D01*
X124505Y-106829D01*
X124476Y-106886D01*
X125076Y-107143D02*
X125076Y-106543D01*
X125419Y-107143D02*
X125162Y-106800D01*
X125419Y-106543D02*
X125076Y-106886D01*
X125876Y-106829D02*
X125962Y-106857D01*
X125990Y-106886D01*
X126019Y-106943D01*
X126019Y-107029D01*
X125990Y-107086D01*
X125962Y-107114D01*
X125904Y-107143D01*
X125676Y-107143D01*
X125676Y-106543D01*
X125876Y-106543D01*
X125933Y-106571D01*
X125962Y-106600D01*
X125990Y-106657D01*
X125990Y-106714D01*
X125962Y-106771D01*
X125933Y-106800D01*
X125876Y-106829D01*
X125676Y-106829D01*
X126133Y-107200D02*
X126590Y-107200D01*
X126704Y-107114D02*
X126790Y-107143D01*
X126933Y-107143D01*
X126990Y-107114D01*
X127019Y-107086D01*
X127047Y-107029D01*
X127047Y-106971D01*
X127019Y-106914D01*
X126990Y-106886D01*
X126933Y-106857D01*
X126819Y-106829D01*
X126761Y-106800D01*
X126733Y-106771D01*
X126704Y-106714D01*
X126704Y-106657D01*
X126733Y-106600D01*
X126761Y-106571D01*
X126819Y-106543D01*
X126961Y-106543D01*
X127047Y-106571D01*
X127418Y-106857D02*
X127418Y-107143D01*
X127218Y-106543D02*
X127418Y-106857D01*
X127618Y-106543D01*
X127789Y-107114D02*
X127875Y-107143D01*
X128018Y-107143D01*
X128075Y-107114D01*
X128104Y-107086D01*
X128132Y-107029D01*
X128132Y-106971D01*
X128104Y-106914D01*
X128075Y-106886D01*
X128018Y-106857D01*
X127904Y-106829D01*
X127846Y-106800D01*
X127818Y-106771D01*
X127789Y-106714D01*
X127789Y-106657D01*
X127818Y-106600D01*
X127846Y-106571D01*
X127904Y-106543D01*
X128046Y-106543D01*
X128132Y-106571D01*
X128303Y-106543D02*
X128646Y-106543D01*
X128475Y-107143D02*
X128475Y-106543D01*
X128846Y-106829D02*
X129046Y-106829D01*
X129132Y-107143D02*
X128846Y-107143D01*
X128846Y-106543D01*
X129132Y-106543D01*
X129389Y-107143D02*
X129389Y-106543D01*
X129589Y-106971D01*
X129789Y-106543D01*
X129789Y-107143D01*
X129932Y-107200D02*
X130389Y-107200D01*
X130732Y-106829D02*
X130818Y-106857D01*
X130846Y-106886D01*
X130875Y-106943D01*
X130875Y-107029D01*
X130846Y-107086D01*
X130818Y-107114D01*
X130760Y-107143D01*
X130532Y-107143D01*
X130532Y-106543D01*
X130732Y-106543D01*
X130789Y-106571D01*
X130818Y-106600D01*
X130846Y-106657D01*
X130846Y-106714D01*
X130818Y-106771D01*
X130789Y-106800D01*
X130732Y-106829D01*
X130532Y-106829D01*
X131246Y-106543D02*
X131360Y-106543D01*
X131418Y-106571D01*
X131475Y-106629D01*
X131503Y-106743D01*
X131503Y-106943D01*
X131475Y-107057D01*
X131418Y-107114D01*
X131360Y-107143D01*
X131246Y-107143D01*
X131189Y-107114D01*
X131132Y-107057D01*
X131103Y-106943D01*
X131103Y-106743D01*
X131132Y-106629D01*
X131189Y-106571D01*
X131246Y-106543D01*
X131732Y-106971D02*
X132018Y-106971D01*
X131675Y-107143D02*
X131875Y-106543D01*
X132075Y-107143D01*
X132618Y-107143D02*
X132418Y-106857D01*
X132275Y-107143D02*
X132275Y-106543D01*
X132503Y-106543D01*
X132561Y-106571D01*
X132589Y-106600D01*
X132618Y-106657D01*
X132618Y-106743D01*
X132589Y-106800D01*
X132561Y-106829D01*
X132503Y-106857D01*
X132275Y-106857D01*
X132875Y-107143D02*
X132875Y-106543D01*
X133018Y-106543D01*
X133103Y-106571D01*
X133161Y-106629D01*
X133189Y-106686D01*
X133218Y-106800D01*
X133218Y-106886D01*
X133189Y-107000D01*
X133161Y-107057D01*
X133103Y-107114D01*
X133018Y-107143D01*
X132875Y-107143D01*
X133332Y-107200D02*
X133789Y-107200D01*
X133932Y-107143D02*
X133932Y-106743D01*
X133932Y-106857D02*
X133960Y-106800D01*
X133989Y-106771D01*
X134046Y-106743D01*
X134103Y-106743D01*
X134531Y-107114D02*
X134474Y-107143D01*
X134360Y-107143D01*
X134303Y-107114D01*
X134274Y-107057D01*
X134274Y-106829D01*
X134303Y-106771D01*
X134360Y-106743D01*
X134474Y-106743D01*
X134531Y-106771D01*
X134560Y-106829D01*
X134560Y-106886D01*
X134274Y-106943D01*
X134760Y-106743D02*
X134903Y-107143D01*
X135045Y-106743D01*
X135588Y-107143D02*
X135245Y-107143D01*
X135417Y-107143D02*
X135417Y-106543D01*
X135360Y-106629D01*
X135302Y-106686D01*
X135245Y-106714D01*
X135702Y-107200D02*
X136159Y-107200D01*
X136416Y-106543D02*
X136473Y-106543D01*
X136530Y-106571D01*
X136559Y-106600D01*
X136588Y-106657D01*
X136616Y-106771D01*
X136616Y-106914D01*
X136588Y-107029D01*
X136559Y-107086D01*
X136530Y-107114D01*
X136473Y-107143D01*
X136416Y-107143D01*
X136359Y-107114D01*
X136330Y-107086D01*
X136302Y-107029D01*
X136273Y-106914D01*
X136273Y-106771D01*
X136302Y-106657D01*
X136330Y-106600D01*
X136359Y-106571D01*
X136416Y-106543D01*
X137130Y-107143D02*
X137130Y-106829D01*
X137101Y-106771D01*
X137044Y-106743D01*
X136930Y-106743D01*
X136873Y-106771D01*
X137130Y-107114D02*
X137073Y-107143D01*
X136930Y-107143D01*
X136873Y-107114D01*
X136844Y-107057D01*
X136844Y-107000D01*
X136873Y-106943D01*
X136930Y-106914D01*
X137073Y-106914D01*
X137130Y-106886D01*
X137416Y-107086D02*
X137444Y-107114D01*
X137416Y-107143D01*
X137387Y-107114D01*
X137416Y-107086D01*
X137416Y-107143D01*
X137702Y-107143D02*
X137702Y-106543D01*
X137702Y-106771D02*
X137759Y-106743D01*
X137873Y-106743D01*
X137930Y-106771D01*
X137959Y-106800D01*
X137988Y-106857D01*
X137988Y-107029D01*
X137959Y-107086D01*
X137930Y-107114D01*
X137873Y-107143D01*
X137759Y-107143D01*
X137702Y-107114D01*
X138245Y-107143D02*
X138245Y-106743D01*
X138245Y-106857D02*
X138273Y-106800D01*
X138302Y-106771D01*
X138359Y-106743D01*
X138416Y-106743D01*
X138873Y-107143D02*
X138873Y-106543D01*
X138873Y-107114D02*
X138816Y-107143D01*
X138702Y-107143D01*
X138644Y-107114D01*
X138616Y-107086D01*
X138587Y-107029D01*
X138587Y-106857D01*
X138616Y-106800D01*
X138644Y-106771D01*
X138702Y-106743D01*
X138816Y-106743D01*
X138873Y-106771D01*
X119364Y-108314D02*
X119450Y-108343D01*
X119593Y-108343D01*
X119650Y-108314D01*
X119679Y-108286D01*
X119707Y-108229D01*
X119707Y-108171D01*
X119679Y-108114D01*
X119650Y-108086D01*
X119593Y-108057D01*
X119479Y-108029D01*
X119421Y-108000D01*
X119393Y-107971D01*
X119364Y-107914D01*
X119364Y-107857D01*
X119393Y-107800D01*
X119421Y-107771D01*
X119479Y-107743D01*
X119621Y-107743D01*
X119707Y-107771D01*
X119964Y-108343D02*
X119964Y-107743D01*
X120221Y-108343D02*
X120221Y-108029D01*
X120192Y-107971D01*
X120135Y-107943D01*
X120050Y-107943D01*
X119992Y-107971D01*
X119964Y-108000D01*
X120735Y-108314D02*
X120678Y-108343D01*
X120564Y-108343D01*
X120507Y-108314D01*
X120478Y-108257D01*
X120478Y-108029D01*
X120507Y-107971D01*
X120564Y-107943D01*
X120678Y-107943D01*
X120735Y-107971D01*
X120764Y-108029D01*
X120764Y-108086D01*
X120478Y-108143D01*
X121249Y-108314D02*
X121192Y-108343D01*
X121078Y-108343D01*
X121021Y-108314D01*
X120992Y-108257D01*
X120992Y-108029D01*
X121021Y-107971D01*
X121078Y-107943D01*
X121192Y-107943D01*
X121249Y-107971D01*
X121278Y-108029D01*
X121278Y-108086D01*
X120992Y-108143D01*
X121449Y-107943D02*
X121678Y-107943D01*
X121535Y-107743D02*
X121535Y-108257D01*
X121563Y-108314D01*
X121621Y-108343D01*
X121678Y-108343D01*
X121878Y-108286D02*
X121906Y-108314D01*
X121878Y-108343D01*
X121849Y-108314D01*
X121878Y-108286D01*
X121878Y-108343D01*
X121878Y-107971D02*
X121906Y-108000D01*
X121878Y-108029D01*
X121849Y-108000D01*
X121878Y-107971D01*
X121878Y-108029D01*
X122935Y-108343D02*
X122592Y-108343D01*
X122764Y-108343D02*
X122764Y-107743D01*
X122707Y-107829D01*
X122649Y-107886D01*
X122592Y-107914D01*
X123620Y-107714D02*
X123106Y-108486D01*
X124135Y-108343D02*
X123792Y-108343D01*
X123964Y-108343D02*
X123964Y-107743D01*
X123907Y-107829D01*
X123849Y-107886D01*
X123792Y-107914D01*
X118650Y-106300D02*
X118650Y-112300D01*
X118650Y-106300D02*
X160650Y-106300D01*
X118650Y-106300D02*
X160650Y-106300D01*
X118650Y-108700D02*
X160650Y-108700D01*
X151850Y-109900D02*
X151850Y-112300D01*
X118650Y-111100D02*
X160650Y-111100D01*
X118650Y-109900D02*
X160650Y-109900D01*
X125250Y-109900D02*
X125250Y-111100D01*
X128000Y-10000D02*
X130250Y-10000D01*
X128000Y-10000D02*
X130250Y-10000D01*
X70590Y-88307D02*
X70582Y-88383D01*
X70560Y-88456D01*
X70524Y-88524D01*
X70475Y-88583D01*
X70416Y-88632D01*
X70349Y-88669D01*
X70276Y-88691D01*
X70199Y-88699D01*
X70124Y-88693D01*
X70050Y-88671D01*
X69982Y-88635D01*
X69923Y-88587D01*
X69873Y-88529D01*
X69836Y-88461D01*
X69813Y-88388D01*
X69805Y-88312D01*
X69811Y-88237D01*
X69832Y-88163D01*
X69867Y-88095D01*
X69915Y-88034D01*
X69973Y-87985D01*
X70040Y-87947D01*
X70113Y-87924D01*
X70189Y-87915D01*
X70265Y-87920D01*
X70339Y-87941D01*
X70407Y-87976D01*
X70468Y-88023D01*
X70518Y-88081D01*
X70556Y-88148D01*
X70580Y-88220D01*
X70589Y-88297D01*
X70590Y-88307D01*
X69410Y-88307D02*
X70984Y-88307D01*
X70197Y-87520D02*
X70197Y-89094D01*
X14330Y-88307D02*
X14322Y-88383D01*
X14300Y-88456D01*
X14264Y-88524D01*
X14215Y-88583D01*
X14156Y-88632D01*
X14089Y-88669D01*
X14016Y-88691D01*
X13939Y-88699D01*
X13864Y-88693D01*
X13790Y-88671D01*
X13722Y-88635D01*
X13663Y-88587D01*
X13613Y-88529D01*
X13576Y-88461D01*
X13553Y-88388D01*
X13545Y-88312D01*
X13551Y-88237D01*
X13572Y-88163D01*
X13607Y-88095D01*
X13655Y-88034D01*
X13713Y-87985D01*
X13780Y-87947D01*
X13853Y-87924D01*
X13929Y-87915D01*
X14005Y-87920D01*
X14079Y-87941D01*
X14147Y-87976D01*
X14208Y-88023D01*
X14258Y-88081D01*
X14296Y-88148D01*
X14320Y-88220D01*
X14329Y-88297D01*
X14330Y-88307D01*
X13150Y-88307D02*
X14724Y-88307D01*
X13937Y-87520D02*
X13937Y-89094D01*
X14330Y-11969D02*
X14322Y-12045D01*
X14300Y-12118D01*
X14264Y-12186D01*
X14215Y-12245D01*
X14156Y-12294D01*
X14089Y-12331D01*
X14016Y-12353D01*
X13939Y-12361D01*
X13864Y-12355D01*
X13790Y-12333D01*
X13722Y-12297D01*
X13663Y-12249D01*
X13613Y-12191D01*
X13576Y-12123D01*
X13553Y-12050D01*
X13545Y-11974D01*
X13551Y-11899D01*
X13572Y-11825D01*
X13607Y-11757D01*
X13655Y-11696D01*
X13713Y-11647D01*
X13780Y-11609D01*
X13853Y-11586D01*
X13929Y-11577D01*
X14005Y-11582D01*
X14079Y-11603D01*
X14147Y-11638D01*
X14208Y-11685D01*
X14258Y-11743D01*
X14296Y-11810D01*
X14320Y-11882D01*
X14329Y-11959D01*
X14330Y-11969D01*
X13150Y-11969D02*
X14724Y-11969D01*
X13937Y-11182D02*
X13937Y-12756D01*
G54D12*
X10000Y-10000D02*
X10000Y-95000D01*
X130250Y-10000D02*
X10250Y-10000D01*
X130329Y-95039D02*
X130250Y-10000D01*
X10000Y-95000D02*
X130000Y-95000D01*
M02*
