M48
;DRILL file {PCBnew (2011-04-29 BZR 2986)-stable} date 2012-10-07 13:10:22
;FORMAT={-:-/ absolute / inch / decimal}
FMAT,2
INCH,TZ
T1C0.025
T2C0.032
T3C0.035
T4C0.039
T5C0.040
T6C0.045
T7C0.055
T8C0.065
T9C0.075
T10C0.079
T11C0.177
%
G90
G05
M72
T1
X1.300Y-3.500
T2
X1.100Y-1.650
X1.200Y-1.650
X1.225Y-6.900
X1.225Y-7.400
X1.300Y-1.650
X1.300Y-6.600
X1.300Y-6.700
X1.325Y-6.900
X1.325Y-7.000
X1.400Y-7.700
X1.400Y-7.800
X1.400Y-7.900
X1.400Y-8.000
X1.700Y-7.700
X1.700Y-7.800
X1.700Y-7.900
X1.700Y-8.000
X1.725Y-2.300
X1.725Y-2.400
X1.725Y-2.500
X1.725Y-2.650
X1.725Y-2.750
X1.725Y-2.850
X1.800Y-6.600
X1.800Y-6.700
X1.825Y-6.900
X1.825Y-7.000
X1.950Y-2.300
X2.000Y-1.800
X2.000Y-2.100
X2.000Y-2.200
X2.000Y-2.400
X2.000Y-3.000
X2.000Y-3.200
X2.000Y-3.800
X2.000Y-4.100
X2.000Y-4.200
X2.000Y-4.300
X2.000Y-5.200
X2.000Y-5.400
X2.000Y-6.200
X2.000Y-6.400
X2.000Y-7.200
X2.000Y-7.400
X2.000Y-8.200
X2.000Y-8.400
X2.000Y-9.200
X2.000Y-9.400
X2.100Y-1.700
X2.100Y-1.800
X2.100Y-2.100
X2.100Y-2.200
X2.100Y-2.400
X2.100Y-3.000
X2.100Y-3.200
X2.100Y-3.800
X2.100Y-5.200
X2.100Y-5.400
X2.100Y-6.200
X2.100Y-6.400
X2.100Y-7.200
X2.100Y-7.400
X2.100Y-8.200
X2.100Y-8.400
X2.100Y-9.200
X2.100Y-9.400
X2.200Y-1.700
X2.200Y-1.800
X2.200Y-2.100
X2.200Y-2.200
X2.200Y-2.400
X2.200Y-3.000
X2.200Y-3.200
X2.200Y-3.800
X2.200Y-5.200
X2.200Y-5.400
X2.200Y-6.200
X2.200Y-6.400
X2.200Y-6.600
X2.200Y-7.200
X2.200Y-7.400
X2.200Y-8.200
X2.200Y-8.400
X2.200Y-9.200
X2.200Y-9.400
X2.300Y-1.700
X2.300Y-1.800
X2.300Y-2.100
X2.300Y-2.400
X2.300Y-3.000
X2.300Y-3.200
X2.300Y-3.800
X2.300Y-5.200
X2.300Y-5.400
X2.300Y-6.200
X2.300Y-6.400
X2.300Y-7.200
X2.300Y-7.400
X2.300Y-8.200
X2.300Y-8.400
X2.300Y-9.200
X2.300Y-9.400
X2.400Y-1.800
X2.400Y-2.100
X2.400Y-2.200
X2.400Y-2.400
X2.400Y-3.000
X2.400Y-3.200
X2.400Y-3.800
X2.400Y-5.200
X2.400Y-5.400
X2.400Y-6.200
X2.400Y-6.400
X2.400Y-7.200
X2.400Y-7.400
X2.400Y-8.200
X2.400Y-8.400
X2.400Y-9.200
X2.400Y-9.400
X2.450Y-2.300
X2.500Y-1.625
X2.500Y-1.800
X2.500Y-2.100
X2.500Y-2.200
X2.500Y-2.400
X2.500Y-3.000
X2.500Y-3.200
X2.500Y-3.800
X2.500Y-5.200
X2.500Y-5.400
X2.500Y-6.200
X2.500Y-6.400
X2.500Y-7.200
X2.500Y-7.400
X2.500Y-8.200
X2.500Y-8.400
X2.500Y-9.200
X2.500Y-9.400
X2.600Y-1.625
X2.600Y-1.800
X2.600Y-2.100
X2.600Y-2.200
X2.600Y-2.400
X2.600Y-3.000
X2.600Y-3.200
X2.600Y-3.800
X2.600Y-4.100
X2.600Y-4.700
X2.600Y-5.200
X2.600Y-5.400
X2.600Y-6.200
X2.600Y-6.400
X2.600Y-7.200
X2.600Y-7.400
X2.600Y-8.200
X2.600Y-8.400
X2.600Y-9.200
X2.600Y-9.400
X2.700Y-1.625
X2.700Y-2.400
X2.700Y-3.000
X2.700Y-3.200
X2.700Y-3.800
X2.700Y-4.100
X2.700Y-4.700
X2.700Y-5.200
X2.700Y-5.400
X2.700Y-6.200
X2.700Y-6.400
X2.700Y-7.200
X2.700Y-7.400
X2.700Y-8.200
X2.700Y-8.400
X2.700Y-9.200
X2.700Y-9.400
X2.800Y-2.400
X2.800Y-3.000
X2.800Y-3.200
X2.800Y-3.800
X2.800Y-4.100
X2.800Y-4.700
X2.800Y-5.200
X2.800Y-5.400
X2.800Y-6.200
X2.800Y-6.400
X2.800Y-7.200
X2.800Y-7.400
X2.800Y-8.200
X2.800Y-8.400
X2.800Y-9.200
X2.800Y-9.400
X2.900Y-1.625
X2.900Y-2.200
X2.900Y-2.400
X2.900Y-3.000
X2.900Y-3.200
X2.900Y-3.800
X2.900Y-4.100
X2.900Y-4.700
X2.900Y-5.200
X2.900Y-5.400
X2.900Y-6.200
X2.900Y-6.400
X2.900Y-7.200
X2.900Y-7.400
X2.900Y-8.200
X2.900Y-8.400
X2.900Y-9.200
X2.900Y-9.400
X3.000Y-1.625
X3.000Y-1.800
X3.000Y-2.100
X3.000Y-2.400
X3.000Y-3.000
X3.000Y-3.200
X3.000Y-3.800
X3.000Y-4.100
X3.000Y-4.700
X3.000Y-5.200
X3.000Y-5.400
X3.000Y-6.200
X3.000Y-6.400
X3.000Y-6.600
X3.000Y-7.200
X3.000Y-7.400
X3.000Y-8.200
X3.000Y-8.400
X3.000Y-9.200
X3.000Y-9.400
X3.100Y-1.625
X3.100Y-1.800
X3.100Y-2.100
X3.100Y-2.400
X3.100Y-3.000
X3.100Y-3.200
X3.100Y-3.800
X3.100Y-4.100
X3.100Y-4.700
X3.100Y-5.200
X3.100Y-5.400
X3.100Y-6.200
X3.100Y-6.400
X3.100Y-7.200
X3.100Y-7.400
X3.100Y-8.200
X3.100Y-8.400
X3.100Y-9.200
X3.100Y-9.400
X3.200Y-1.800
X3.200Y-2.100
X3.200Y-2.400
X3.200Y-3.000
X3.200Y-3.200
X3.200Y-3.800
X3.200Y-4.100
X3.200Y-4.700
X3.200Y-5.200
X3.200Y-5.400
X3.200Y-6.200
X3.200Y-6.400
X3.200Y-7.200
X3.200Y-7.400
X3.200Y-8.200
X3.200Y-8.400
X3.200Y-9.200
X3.200Y-9.400
X3.300Y-1.800
X3.300Y-2.100
X3.300Y-2.400
X3.300Y-3.000
X3.300Y-3.200
X3.300Y-3.800
X3.300Y-4.100
X3.300Y-4.700
X3.300Y-5.200
X3.300Y-5.400
X3.300Y-6.200
X3.300Y-6.400
X3.300Y-7.200
X3.300Y-7.400
X3.300Y-8.200
X3.300Y-8.400
X3.300Y-9.200
X3.300Y-9.400
X3.400Y-1.800
X3.400Y-2.100
X3.400Y-2.200
X3.400Y-2.400
X3.400Y-3.000
X3.400Y-3.200
X3.400Y-3.800
X3.400Y-4.100
X3.400Y-4.700
X3.400Y-5.200
X3.400Y-5.400
X3.400Y-6.200
X3.400Y-6.400
X3.400Y-7.200
X3.400Y-7.400
X3.400Y-8.200
X3.400Y-8.400
X3.400Y-9.200
X3.400Y-9.400
X3.500Y-1.800
X3.500Y-2.100
X3.500Y-2.400
X3.500Y-3.000
X3.500Y-3.200
X3.500Y-3.800
X3.500Y-4.100
X3.500Y-4.700
X3.500Y-5.200
X3.500Y-5.400
X3.500Y-6.200
X3.500Y-6.400
X3.500Y-7.200
X3.500Y-7.400
X3.500Y-8.200
X3.500Y-8.400
X3.500Y-9.200
X3.500Y-9.400
X3.600Y-1.700
X3.600Y-1.800
X3.600Y-2.100
X3.600Y-2.200
X3.600Y-2.400
X3.600Y-3.000
X3.600Y-3.200
X3.600Y-3.800
X3.600Y-4.100
X3.600Y-4.700
X3.600Y-5.200
X3.600Y-5.400
X3.600Y-6.200
X3.600Y-6.400
X3.600Y-7.200
X3.600Y-7.400
X3.600Y-8.200
X3.600Y-8.400
X3.600Y-9.200
X3.600Y-9.400
X3.700Y-1.800
X3.700Y-2.100
X3.700Y-2.400
X3.700Y-3.000
X3.700Y-3.200
X3.700Y-3.800
X3.700Y-4.100
X3.700Y-4.700
X3.700Y-5.200
X3.700Y-5.400
X3.700Y-6.200
X3.700Y-6.400
X3.700Y-7.200
X3.700Y-7.400
X3.700Y-8.200
X3.700Y-8.400
X3.700Y-9.200
X3.700Y-9.400
X3.800Y-1.800
X3.800Y-2.100
X3.800Y-2.400
X3.800Y-3.000
X3.800Y-3.200
X3.800Y-3.800
X3.800Y-4.100
X3.800Y-4.700
X3.800Y-5.200
X3.800Y-5.400
X3.800Y-6.200
X3.800Y-6.400
X3.800Y-7.200
X3.800Y-7.400
X3.800Y-8.200
X3.800Y-8.400
X3.800Y-9.200
X3.800Y-9.400
X3.900Y-1.100
X3.900Y-1.800
X3.900Y-2.100
X3.900Y-2.400
X3.900Y-3.000
X3.900Y-3.200
X3.900Y-3.800
X3.900Y-4.100
X3.900Y-4.700
X3.900Y-5.200
X3.900Y-5.400
X3.900Y-6.200
X3.900Y-6.400
X3.900Y-7.200
X3.900Y-7.400
X3.900Y-8.200
X3.900Y-8.400
X3.900Y-9.200
X3.900Y-9.400
X4.000Y-5.200
X4.000Y-5.400
X4.000Y-6.200
X4.000Y-6.400
X4.000Y-7.200
X4.000Y-7.400
X4.000Y-8.200
X4.000Y-8.400
X4.000Y-9.200
X4.000Y-9.400
X4.100Y-1.700
X4.100Y-2.200
X4.100Y-5.200
X4.100Y-5.400
X4.100Y-6.200
X4.100Y-6.400
X4.100Y-7.200
X4.100Y-7.400
X4.100Y-8.200
X4.100Y-8.400
X4.100Y-9.200
X4.100Y-9.400
X4.150Y-1.500
X4.150Y-2.000
X4.200Y-5.200
X4.200Y-5.400
X4.200Y-6.200
X4.200Y-6.400
X4.200Y-7.200
X4.200Y-7.400
X4.200Y-8.200
X4.200Y-8.400
X4.200Y-9.200
X4.200Y-9.400
X4.300Y-1.800
X4.300Y-2.100
X4.300Y-2.400
X4.300Y-2.700
X4.300Y-3.000
X4.300Y-3.300
X4.300Y-3.700
X4.300Y-4.000
X4.300Y-4.400
X4.300Y-4.700
X4.300Y-5.200
X4.300Y-5.400
X4.300Y-6.200
X4.300Y-6.400
X4.300Y-7.200
X4.300Y-7.400
X4.300Y-8.200
X4.300Y-8.400
X4.300Y-9.200
X4.300Y-9.400
X4.400Y-1.100
X4.400Y-1.800
X4.400Y-2.100
X4.400Y-2.400
X4.400Y-2.700
X4.400Y-3.000
X4.400Y-3.300
X4.400Y-3.700
X4.400Y-4.000
X4.400Y-4.400
X4.400Y-4.700
X4.400Y-5.200
X4.400Y-5.400
X4.400Y-6.200
X4.400Y-6.400
X4.400Y-7.200
X4.400Y-7.400
X4.400Y-8.200
X4.400Y-8.400
X4.400Y-9.200
X4.400Y-9.400
X4.500Y-1.100
X4.500Y-1.800
X4.500Y-2.100
X4.500Y-2.225
X4.500Y-2.400
X4.500Y-2.700
X4.500Y-3.000
X4.500Y-3.300
X4.500Y-3.700
X4.500Y-4.000
X4.500Y-4.400
X4.500Y-4.700
X4.500Y-5.200
X4.500Y-5.400
X4.500Y-6.200
X4.500Y-6.400
X4.500Y-7.200
X4.500Y-7.400
X4.500Y-8.200
X4.500Y-8.400
X4.500Y-9.200
X4.500Y-9.400
X4.600Y-1.800
X4.600Y-2.100
X4.600Y-2.400
X4.600Y-2.700
X4.600Y-3.000
X4.600Y-3.300
X4.600Y-3.700
X4.600Y-4.000
X4.600Y-4.400
X4.600Y-4.700
X4.600Y-5.200
X4.600Y-5.400
X4.600Y-6.200
X4.600Y-6.400
X4.600Y-7.200
X4.600Y-7.400
X4.600Y-8.200
X4.600Y-8.400
X4.600Y-9.200
X4.600Y-9.400
X4.700Y-1.800
X4.700Y-2.100
X4.700Y-2.400
X4.700Y-2.700
X4.700Y-3.000
X4.700Y-3.300
X4.700Y-3.700
X4.700Y-4.000
X4.700Y-4.400
X4.700Y-4.700
X4.700Y-5.200
X4.700Y-5.400
X4.700Y-6.200
X4.700Y-6.400
X4.700Y-7.200
X4.700Y-7.400
X4.700Y-8.200
X4.700Y-8.400
X4.700Y-9.200
X4.700Y-9.400
X4.800Y-1.275
X4.800Y-1.475
X4.800Y-1.800
X4.800Y-2.100
X4.800Y-2.400
X4.800Y-2.700
X4.800Y-3.000
X4.800Y-3.300
X4.800Y-3.700
X4.800Y-4.000
X4.800Y-4.400
X4.800Y-4.700
X4.800Y-5.200
X4.800Y-5.400
X4.800Y-6.200
X4.800Y-6.400
X4.800Y-7.200
X4.800Y-7.400
X4.800Y-8.200
X4.800Y-8.400
X4.800Y-9.200
X4.800Y-9.400
X4.900Y-1.800
X4.900Y-2.100
X4.900Y-2.400
X4.900Y-2.700
X4.900Y-3.000
X4.900Y-3.300
X4.900Y-3.700
X4.900Y-4.000
X4.900Y-4.400
X4.900Y-4.700
X4.900Y-5.200
X4.900Y-5.400
X4.900Y-6.200
X4.900Y-6.400
X4.900Y-7.200
X4.900Y-7.400
X4.900Y-8.200
X4.900Y-8.400
X4.900Y-9.200
X4.900Y-9.400
X5.000Y-1.100
X5.000Y-1.800
X5.000Y-2.100
X5.000Y-2.225
X5.000Y-2.400
X5.000Y-2.700
X5.000Y-3.000
X5.000Y-3.300
X5.000Y-3.700
X5.000Y-4.000
X5.000Y-4.400
X5.000Y-4.700
X5.000Y-4.900
X5.000Y-5.200
X5.000Y-5.400
X5.000Y-6.200
X5.000Y-6.400
X5.000Y-7.200
X5.000Y-7.400
X5.000Y-8.200
X5.000Y-8.400
X5.000Y-9.200
X5.000Y-9.400
X5.100Y-1.800
X5.100Y-2.100
X5.100Y-2.400
X5.100Y-2.700
X5.100Y-3.000
X5.100Y-3.300
X5.100Y-3.700
X5.100Y-4.000
X5.100Y-4.400
X5.100Y-4.700
X5.100Y-4.900
X5.200Y-1.175
X5.200Y-1.575
X5.200Y-1.725
X5.200Y-2.225
X5.200Y-2.400
X5.200Y-2.700
X5.200Y-3.000
X5.200Y-3.300
X5.200Y-3.700
X5.200Y-4.000
X5.200Y-4.400
X5.200Y-4.700
X5.200Y-4.900
X5.300Y-2.100
X5.300Y-2.600
X5.350Y-6.800
X5.350Y-7.300
X5.600Y-1.700
X5.600Y-2.000
X5.600Y-2.200
X5.600Y-2.500
X5.600Y-2.700
X5.600Y-3.000
X5.600Y-3.200
X5.600Y-3.500
X5.600Y-3.700
X5.600Y-4.000
X5.600Y-4.200
X5.600Y-4.500
X5.600Y-4.700
X5.600Y-5.000
X5.600Y-5.200
X5.600Y-5.500
X5.600Y-5.700
X5.600Y-6.000
X5.600Y-6.200
X5.600Y-6.500
X5.600Y-6.700
X5.600Y-7.000
X5.600Y-7.200
X5.600Y-7.500
X5.600Y-7.700
X5.600Y-8.000
X5.600Y-8.300
X5.600Y-8.600
X5.600Y-8.700
X5.600Y-9.000
X5.700Y-1.700
X5.700Y-2.000
X5.700Y-2.200
X5.700Y-2.500
X5.700Y-2.700
X5.700Y-3.000
X5.700Y-3.200
X5.700Y-3.500
X5.700Y-3.700
X5.700Y-4.000
X5.700Y-4.200
X5.700Y-4.500
X5.700Y-4.700
X5.700Y-5.000
X5.700Y-5.200
X5.700Y-5.500
X5.700Y-5.700
X5.700Y-6.000
X5.700Y-6.200
X5.700Y-6.500
X5.700Y-6.700
X5.700Y-7.000
X5.700Y-7.200
X5.700Y-7.500
X5.700Y-7.700
X5.700Y-8.000
X5.700Y-8.300
X5.700Y-8.600
X5.700Y-8.700
X5.700Y-9.000
X5.800Y-1.100
X5.800Y-1.400
X5.800Y-1.700
X5.800Y-2.000
X5.800Y-2.200
X5.800Y-2.500
X5.800Y-2.700
X5.800Y-3.000
X5.800Y-3.200
X5.800Y-3.500
X5.800Y-3.700
X5.800Y-4.000
X5.800Y-4.200
X5.800Y-4.500
X5.800Y-4.700
X5.800Y-5.000
X5.800Y-5.200
X5.800Y-5.500
X5.800Y-5.700
X5.800Y-6.000
X5.800Y-6.200
X5.800Y-6.500
X5.800Y-6.700
X5.800Y-7.000
X5.800Y-7.200
X5.800Y-7.500
X5.800Y-7.700
X5.800Y-8.000
X5.800Y-8.300
X5.800Y-8.600
X5.800Y-8.700
X5.800Y-9.000
X5.900Y-1.100
X5.900Y-1.400
X5.900Y-1.700
X5.900Y-2.000
X5.900Y-2.200
X5.900Y-2.500
X5.900Y-2.700
X5.900Y-3.000
X5.900Y-3.200
X5.900Y-3.500
X5.900Y-3.700
X5.900Y-4.000
X5.900Y-4.200
X5.900Y-4.500
X5.900Y-4.700
X5.900Y-5.000
X5.900Y-5.200
X5.900Y-5.500
X5.900Y-5.700
X5.900Y-6.000
X5.900Y-6.200
X5.900Y-6.500
X5.900Y-6.700
X5.900Y-7.000
X5.900Y-7.200
X5.900Y-7.500
X5.900Y-7.700
X5.900Y-8.000
X5.900Y-8.300
X5.900Y-8.600
X5.900Y-8.700
X5.900Y-9.000
X6.000Y-1.100
X6.000Y-1.400
X6.000Y-1.700
X6.000Y-2.000
X6.000Y-2.200
X6.000Y-2.500
X6.000Y-2.700
X6.000Y-3.000
X6.000Y-3.200
X6.000Y-3.500
X6.000Y-3.700
X6.000Y-4.000
X6.000Y-4.200
X6.000Y-4.500
X6.000Y-4.700
X6.000Y-5.000
X6.000Y-5.200
X6.000Y-5.500
X6.000Y-5.700
X6.000Y-6.000
X6.000Y-6.200
X6.000Y-6.500
X6.000Y-6.700
X6.000Y-7.000
X6.000Y-7.200
X6.000Y-7.500
X6.000Y-7.700
X6.000Y-8.000
X6.000Y-8.300
X6.000Y-8.600
X6.000Y-8.700
X6.000Y-9.000
X6.100Y-1.100
X6.100Y-1.400
X6.100Y-1.700
X6.100Y-2.000
X6.100Y-2.200
X6.100Y-2.500
X6.100Y-2.700
X6.100Y-3.000
X6.100Y-3.200
X6.100Y-3.500
X6.100Y-3.700
X6.100Y-4.000
X6.100Y-4.200
X6.100Y-4.500
X6.100Y-4.700
X6.100Y-5.000
X6.100Y-5.200
X6.100Y-5.500
X6.100Y-5.700
X6.100Y-6.000
X6.100Y-6.200
X6.100Y-6.500
X6.100Y-6.700
X6.100Y-7.000
X6.100Y-7.200
X6.100Y-7.500
X6.100Y-7.700
X6.100Y-8.000
X6.100Y-8.300
X6.100Y-8.600
X6.100Y-8.700
X6.100Y-9.000
X6.200Y-1.100
X6.200Y-1.400
X6.200Y-1.700
X6.200Y-2.000
X6.200Y-2.200
X6.200Y-2.500
X6.200Y-2.700
X6.200Y-3.000
X6.200Y-3.200
X6.200Y-3.500
X6.200Y-3.700
X6.200Y-4.000
X6.200Y-4.200
X6.200Y-4.500
X6.200Y-4.700
X6.200Y-5.000
X6.200Y-5.200
X6.200Y-5.500
X6.200Y-5.700
X6.200Y-6.000
X6.200Y-6.200
X6.200Y-6.500
X6.200Y-6.700
X6.200Y-7.000
X6.200Y-7.200
X6.200Y-7.500
X6.200Y-7.700
X6.200Y-8.000
X6.200Y-8.300
X6.200Y-8.600
X6.200Y-8.700
X6.200Y-9.000
X6.300Y-1.100
X6.300Y-1.400
X6.300Y-1.700
X6.300Y-2.000
X6.300Y-2.200
X6.300Y-2.500
X6.300Y-2.700
X6.300Y-3.000
X6.300Y-3.200
X6.300Y-3.500
X6.300Y-3.700
X6.300Y-4.000
X6.300Y-4.200
X6.300Y-4.500
X6.300Y-4.700
X6.300Y-5.000
X6.300Y-5.200
X6.300Y-5.500
X6.300Y-5.700
X6.300Y-6.000
X6.300Y-6.200
X6.300Y-6.500
X6.300Y-6.700
X6.300Y-7.000
X6.300Y-7.200
X6.300Y-7.500
X6.300Y-7.700
X6.300Y-8.000
X6.300Y-8.300
X6.300Y-8.600
X6.300Y-8.700
X6.300Y-9.000
X6.400Y-1.100
X6.400Y-1.400
X6.400Y-2.200
X6.400Y-2.500
X6.400Y-2.700
X6.400Y-3.000
X6.400Y-5.200
X6.400Y-5.500
X6.400Y-5.700
X6.400Y-6.000
X6.400Y-6.200
X6.400Y-6.500
X6.400Y-6.700
X6.400Y-7.000
X6.400Y-7.200
X6.400Y-7.500
X6.400Y-7.700
X6.400Y-8.000
X6.400Y-8.300
X6.400Y-8.600
X6.400Y-8.700
X6.400Y-9.000
X6.500Y-1.100
X6.500Y-1.400
X6.500Y-2.200
X6.500Y-2.500
X6.500Y-2.700
X6.500Y-3.000
X6.500Y-5.200
X6.500Y-5.500
X6.500Y-5.700
X6.500Y-6.000
X6.500Y-6.200
X6.500Y-6.500
X6.500Y-6.700
X6.500Y-7.000
X6.500Y-7.200
X6.500Y-7.500
X6.500Y-7.700
X6.500Y-8.000
X6.500Y-8.300
X6.500Y-8.600
X6.500Y-8.700
X6.500Y-9.000
X6.800Y-1.600
X6.800Y-2.200
X6.800Y-2.400
X6.800Y-3.000
X6.800Y-6.900
X6.800Y-7.000
X6.800Y-7.100
X6.800Y-7.200
X6.800Y-7.300
X6.800Y-7.400
X6.800Y-7.500
X6.800Y-7.900
X6.800Y-8.000
X6.800Y-8.100
X6.800Y-8.200
X6.800Y-8.300
X6.800Y-8.400
X6.800Y-8.500
X6.900Y-1.600
X6.900Y-2.200
X6.900Y-2.400
X6.900Y-3.000
X6.900Y-6.500
X7.000Y-1.600
X7.000Y-2.200
X7.000Y-2.400
X7.000Y-3.000
X7.000Y-5.200
X7.000Y-6.500
X7.100Y-1.600
X7.100Y-2.200
X7.100Y-2.400
X7.100Y-3.000
X7.100Y-5.200
X7.100Y-6.500
X7.100Y-6.900
X7.100Y-7.000
X7.100Y-7.100
X7.100Y-7.200
X7.100Y-7.300
X7.100Y-7.400
X7.100Y-7.500
X7.100Y-7.900
X7.100Y-8.000
X7.100Y-8.100
X7.100Y-8.200
X7.100Y-8.300
X7.100Y-8.400
X7.100Y-8.500
X7.200Y-1.600
X7.200Y-2.200
X7.200Y-2.400
X7.200Y-3.000
X7.200Y-5.200
X7.300Y-1.600
X7.300Y-2.200
X7.300Y-2.400
X7.300Y-3.000
X7.400Y-1.600
X7.400Y-2.200
X7.400Y-2.400
X7.400Y-3.000
X7.400Y-3.400
X7.400Y-4.000
X7.400Y-4.400
X7.400Y-5.000
X7.400Y-5.200
X7.400Y-5.800
X7.400Y-5.900
X7.400Y-6.500
X7.400Y-6.700
X7.400Y-7.300
X7.400Y-7.400
X7.400Y-8.000
X7.400Y-8.500
X7.400Y-9.100
X7.500Y-1.400
X7.500Y-1.500
X7.500Y-1.600
X7.500Y-2.200
X7.500Y-2.400
X7.500Y-3.000
X7.500Y-3.400
X7.500Y-4.000
X7.500Y-4.400
X7.500Y-5.000
X7.500Y-5.200
X7.500Y-5.800
X7.500Y-5.900
X7.500Y-6.500
X7.500Y-6.700
X7.500Y-7.300
X7.500Y-7.400
X7.500Y-8.000
X7.500Y-8.500
X7.500Y-9.100
X7.600Y-1.600
X7.600Y-2.200
X7.600Y-2.400
X7.600Y-3.000
X7.600Y-3.400
X7.600Y-4.000
X7.600Y-4.400
X7.600Y-5.000
X7.600Y-5.200
X7.600Y-5.800
X7.600Y-5.900
X7.600Y-6.500
X7.600Y-6.700
X7.600Y-7.300
X7.600Y-7.400
X7.600Y-8.000
X7.600Y-8.500
X7.600Y-9.100
X7.700Y-1.200
X7.700Y-1.600
X7.700Y-2.200
X7.700Y-2.400
X7.700Y-3.000
X7.700Y-3.400
X7.700Y-4.000
X7.700Y-4.400
X7.700Y-5.000
X7.700Y-5.200
X7.700Y-5.800
X7.700Y-5.900
X7.700Y-6.500
X7.700Y-6.700
X7.700Y-7.300
X7.700Y-7.400
X7.700Y-8.000
X7.700Y-8.500
X7.700Y-9.100
X7.800Y-1.200
X7.800Y-1.600
X7.800Y-2.200
X7.800Y-2.400
X7.800Y-3.000
X7.800Y-3.400
X7.800Y-4.000
X7.800Y-4.400
X7.800Y-5.000
X7.800Y-5.200
X7.800Y-5.800
X7.800Y-5.900
X7.800Y-6.500
X7.800Y-6.700
X7.800Y-7.300
X7.800Y-7.400
X7.800Y-8.000
X7.800Y-8.500
X7.800Y-9.100
X7.900Y-1.200
X7.900Y-1.600
X7.900Y-2.200
X7.900Y-2.400
X7.900Y-3.000
X7.900Y-3.400
X7.900Y-4.000
X7.900Y-4.400
X7.900Y-5.000
X7.900Y-5.200
X7.900Y-5.800
X7.900Y-5.900
X7.900Y-6.500
X7.900Y-6.700
X7.900Y-7.300
X7.900Y-7.400
X7.900Y-8.000
X7.900Y-8.500
X7.900Y-9.100
X8.000Y-1.400
X8.000Y-1.500
X8.000Y-1.600
X8.000Y-2.200
X8.000Y-2.400
X8.000Y-3.000
X8.000Y-3.400
X8.000Y-4.000
X8.000Y-4.400
X8.000Y-5.000
X8.000Y-5.200
X8.000Y-5.800
X8.000Y-5.900
X8.000Y-6.500
X8.000Y-6.700
X8.000Y-7.300
X8.000Y-7.400
X8.000Y-8.000
X8.000Y-8.500
X8.000Y-9.100
X8.100Y-1.600
X8.100Y-2.200
X8.100Y-2.400
X8.100Y-3.000
X8.100Y-3.400
X8.100Y-4.000
X8.100Y-4.400
X8.100Y-5.000
X8.100Y-5.200
X8.100Y-5.800
X8.100Y-5.900
X8.100Y-6.500
X8.100Y-6.700
X8.100Y-7.300
X8.100Y-7.400
X8.100Y-8.000
X8.100Y-8.500
X8.100Y-9.100
X8.200Y-1.600
X8.200Y-2.200
X8.200Y-2.400
X8.200Y-3.000
X8.200Y-3.400
X8.200Y-4.000
X8.200Y-4.400
X8.200Y-5.000
X8.200Y-5.200
X8.200Y-5.800
X8.200Y-5.900
X8.200Y-6.500
X8.200Y-6.700
X8.200Y-7.300
X8.200Y-7.400
X8.200Y-8.000
X8.200Y-8.500
X8.200Y-9.100
X8.300Y-1.600
X8.300Y-2.200
X8.300Y-2.400
X8.300Y-3.000
X8.300Y-3.400
X8.300Y-4.000
X8.300Y-4.400
X8.300Y-5.000
X8.300Y-5.200
X8.300Y-5.800
X8.300Y-5.900
X8.300Y-6.500
X8.300Y-6.700
X8.300Y-7.300
X8.300Y-7.400
X8.300Y-8.000
X8.300Y-8.500
X8.300Y-9.100
X8.375Y-1.200
X8.400Y-1.600
X8.400Y-2.200
X8.400Y-2.400
X8.400Y-3.000
X8.400Y-3.400
X8.400Y-4.000
X8.400Y-4.400
X8.400Y-5.000
X8.400Y-5.200
X8.400Y-5.800
X8.400Y-5.900
X8.400Y-6.500
X8.400Y-6.700
X8.400Y-7.300
X8.400Y-7.400
X8.400Y-8.000
X8.400Y-8.500
X8.400Y-9.100
X8.475Y-1.200
X8.500Y-1.600
X8.500Y-2.200
X8.500Y-2.400
X8.500Y-3.000
X8.500Y-3.400
X8.500Y-4.000
X8.500Y-4.400
X8.500Y-5.000
X8.500Y-5.200
X8.500Y-5.800
X8.500Y-5.900
X8.500Y-6.500
X8.500Y-6.700
X8.500Y-7.300
X8.500Y-7.400
X8.500Y-8.000
X8.500Y-8.500
X8.500Y-9.100
X8.575Y-1.200
X8.600Y-1.600
X8.600Y-2.200
X8.600Y-2.400
X8.600Y-3.000
X8.700Y-1.600
X8.700Y-2.200
X8.700Y-2.400
X8.700Y-3.000
X8.800Y-3.200
X8.800Y-3.500
X8.800Y-3.700
X8.800Y-4.000
X8.800Y-4.200
X8.800Y-4.500
X8.800Y-4.900
X8.800Y-5.200
X8.800Y-5.300
X8.800Y-5.600
X8.800Y-5.700
X8.800Y-6.000
X8.800Y-6.100
X8.800Y-6.400
X8.800Y-6.500
X8.800Y-6.800
X8.800Y-6.900
X8.800Y-7.200
X8.800Y-7.300
X8.800Y-7.600
X8.800Y-7.700
X8.800Y-8.000
X8.800Y-8.700
X8.800Y-9.000
X8.800Y-9.100
X8.900Y-1.200
X8.900Y-1.500
X8.900Y-1.700
X8.900Y-2.000
X8.900Y-2.200
X8.900Y-2.500
X8.900Y-2.700
X8.900Y-3.000
X8.900Y-3.200
X8.900Y-3.500
X8.900Y-3.700
X8.900Y-4.000
X8.900Y-4.200
X8.900Y-4.500
X8.900Y-4.900
X8.900Y-5.200
X8.900Y-5.300
X8.900Y-5.600
X8.900Y-5.700
X8.900Y-6.000
X8.900Y-6.100
X8.900Y-6.400
X8.900Y-6.500
X8.900Y-6.800
X8.900Y-6.900
X8.900Y-7.200
X8.900Y-7.300
X8.900Y-7.600
X8.900Y-7.700
X8.900Y-8.000
X8.900Y-8.700
X8.900Y-9.000
X8.900Y-9.100
X9.000Y-1.200
X9.000Y-1.500
X9.000Y-1.700
X9.000Y-2.000
X9.000Y-2.200
X9.000Y-2.500
X9.000Y-2.700
X9.000Y-3.000
X9.000Y-3.200
X9.000Y-3.500
X9.000Y-3.700
X9.000Y-4.000
X9.000Y-4.200
X9.000Y-4.500
X9.000Y-4.900
X9.000Y-5.200
X9.000Y-5.300
X9.000Y-5.600
X9.000Y-5.700
X9.000Y-6.000
X9.000Y-6.100
X9.000Y-6.400
X9.000Y-6.500
X9.000Y-6.800
X9.000Y-6.900
X9.000Y-7.200
X9.000Y-7.300
X9.000Y-7.600
X9.000Y-7.700
X9.000Y-8.000
X9.000Y-8.700
X9.000Y-9.000
X9.000Y-9.100
X9.100Y-1.200
X9.100Y-1.500
X9.100Y-1.700
X9.100Y-2.000
X9.100Y-2.200
X9.100Y-2.500
X9.100Y-2.700
X9.100Y-3.000
X9.100Y-3.200
X9.100Y-3.500
X9.100Y-3.700
X9.100Y-4.000
X9.100Y-4.200
X9.100Y-4.500
X9.100Y-4.900
X9.100Y-5.200
X9.100Y-5.300
X9.100Y-5.600
X9.100Y-5.700
X9.100Y-6.000
X9.100Y-6.100
X9.100Y-6.400
X9.100Y-6.500
X9.100Y-6.800
X9.100Y-6.900
X9.100Y-7.200
X9.100Y-7.300
X9.100Y-7.600
X9.100Y-7.700
X9.100Y-8.000
X9.100Y-8.700
X9.100Y-9.000
X9.200Y-1.200
X9.200Y-1.500
X9.200Y-1.700
X9.200Y-2.000
X9.200Y-2.200
X9.200Y-2.500
X9.200Y-2.700
X9.200Y-3.000
X9.200Y-3.200
X9.200Y-3.500
X9.200Y-3.700
X9.200Y-4.000
X9.200Y-4.200
X9.200Y-4.500
X9.200Y-4.900
X9.200Y-5.200
X9.200Y-5.300
X9.200Y-5.600
X9.200Y-5.700
X9.200Y-6.000
X9.200Y-6.100
X9.200Y-6.400
X9.200Y-6.500
X9.200Y-6.800
X9.200Y-6.900
X9.200Y-7.200
X9.200Y-7.300
X9.200Y-7.600
X9.200Y-7.700
X9.200Y-8.000
X9.200Y-8.700
X9.200Y-9.000
X9.300Y-1.200
X9.300Y-1.500
X9.300Y-1.700
X9.300Y-2.000
X9.300Y-2.200
X9.300Y-2.500
X9.300Y-2.700
X9.300Y-3.000
X9.300Y-3.200
X9.300Y-3.500
X9.300Y-3.700
X9.300Y-4.000
X9.300Y-4.200
X9.300Y-4.500
X9.300Y-4.900
X9.300Y-5.200
X9.300Y-5.300
X9.300Y-5.600
X9.300Y-5.700
X9.300Y-6.000
X9.300Y-6.100
X9.300Y-6.400
X9.300Y-6.500
X9.300Y-6.800
X9.300Y-6.900
X9.300Y-7.200
X9.300Y-7.300
X9.300Y-7.600
X9.300Y-7.700
X9.300Y-8.000
X9.300Y-8.700
X9.300Y-9.000
X9.400Y-1.200
X9.400Y-1.500
X9.400Y-1.700
X9.400Y-2.000
X9.400Y-2.200
X9.400Y-2.500
X9.400Y-2.700
X9.400Y-3.000
X9.400Y-3.200
X9.400Y-3.500
X9.400Y-3.700
X9.400Y-4.000
X9.400Y-4.200
X9.400Y-4.500
X9.400Y-4.900
X9.400Y-5.200
X9.400Y-5.300
X9.400Y-5.600
X9.400Y-5.700
X9.400Y-6.000
X9.400Y-6.100
X9.400Y-6.400
X9.400Y-6.500
X9.400Y-6.800
X9.400Y-6.900
X9.400Y-7.200
X9.400Y-7.300
X9.400Y-7.600
X9.400Y-7.700
X9.400Y-8.000
X9.400Y-8.700
X9.400Y-9.000
X9.500Y-1.200
X9.500Y-1.500
X9.500Y-1.700
X9.500Y-2.000
X9.500Y-2.200
X9.500Y-2.500
X9.500Y-2.700
X9.500Y-3.000
X9.500Y-3.200
X9.500Y-3.500
X9.500Y-3.700
X9.500Y-4.000
X9.500Y-4.200
X9.500Y-4.500
X9.500Y-4.900
X9.500Y-5.200
X9.500Y-5.300
X9.500Y-5.600
X9.500Y-5.700
X9.500Y-6.000
X9.500Y-6.100
X9.500Y-6.400
X9.500Y-6.500
X9.500Y-6.800
X9.500Y-6.900
X9.500Y-7.200
X9.500Y-7.300
X9.500Y-7.600
X9.500Y-7.700
X9.500Y-8.000
X9.500Y-8.700
X9.500Y-9.000
X9.650Y-4.900
X9.650Y-5.000
X9.650Y-5.100
X9.650Y-5.700
X9.650Y-5.800
X9.650Y-5.900
X9.650Y-6.500
X9.650Y-6.600
X9.650Y-6.700
X9.650Y-7.300
X9.650Y-7.400
X9.650Y-7.500
X9.650Y-8.600
X9.650Y-8.700
X9.650Y-8.800
X9.800Y-1.200
X9.800Y-1.500
X9.800Y-1.700
X9.800Y-2.000
X9.800Y-2.200
X9.800Y-2.500
X9.800Y-2.700
X9.800Y-3.000
X9.800Y-3.200
X9.800Y-3.500
X9.800Y-3.700
X9.800Y-4.000
X9.800Y-4.200
X9.800Y-4.500
X9.800Y-4.900
X9.800Y-5.200
X9.800Y-5.300
X9.800Y-5.600
X9.800Y-5.700
X9.800Y-6.000
X9.800Y-6.100
X9.800Y-6.400
X9.800Y-6.500
X9.800Y-6.800
X9.800Y-6.900
X9.800Y-7.200
X9.800Y-7.300
X9.800Y-7.600
X9.800Y-7.700
X9.800Y-8.000
X9.800Y-8.700
X9.800Y-9.000
X9.800Y-9.100
X9.900Y-1.200
X9.900Y-1.500
X9.900Y-1.700
X9.900Y-2.000
X9.900Y-2.200
X9.900Y-2.500
X9.900Y-2.700
X9.900Y-3.000
X9.900Y-3.200
X9.900Y-3.500
X9.900Y-3.700
X9.900Y-4.000
X9.900Y-4.200
X9.900Y-4.500
X9.900Y-4.900
X9.900Y-5.200
X9.900Y-5.300
X9.900Y-5.600
X9.900Y-5.700
X9.900Y-6.000
X9.900Y-6.100
X9.900Y-6.400
X9.900Y-6.500
X9.900Y-6.800
X9.900Y-6.900
X9.900Y-7.200
X9.900Y-7.300
X9.900Y-7.600
X9.900Y-7.700
X9.900Y-8.000
X9.900Y-8.700
X9.900Y-9.000
X9.900Y-9.100
X10.000Y-1.200
X10.000Y-1.500
X10.000Y-1.700
X10.000Y-2.000
X10.000Y-2.200
X10.000Y-2.500
X10.000Y-2.700
X10.000Y-3.000
X10.000Y-3.200
X10.000Y-3.500
X10.000Y-3.700
X10.000Y-4.000
X10.000Y-4.200
X10.000Y-4.500
X10.000Y-4.900
X10.000Y-5.200
X10.000Y-5.300
X10.000Y-5.600
X10.000Y-5.700
X10.000Y-6.000
X10.000Y-6.100
X10.000Y-6.400
X10.000Y-6.500
X10.000Y-6.800
X10.000Y-6.900
X10.000Y-7.200
X10.000Y-7.300
X10.000Y-7.600
X10.000Y-7.700
X10.000Y-8.000
X10.000Y-8.700
X10.000Y-9.000
X10.000Y-9.100
X10.100Y-1.200
X10.100Y-1.500
X10.100Y-1.700
X10.100Y-2.000
X10.100Y-2.200
X10.100Y-2.500
X10.100Y-2.700
X10.100Y-3.000
X10.100Y-3.200
X10.100Y-3.500
X10.100Y-3.700
X10.100Y-4.000
X10.100Y-4.200
X10.100Y-4.500
X10.100Y-4.900
X10.100Y-5.200
X10.100Y-5.300
X10.100Y-5.600
X10.100Y-5.700
X10.100Y-6.000
X10.100Y-6.100
X10.100Y-6.400
X10.100Y-6.500
X10.100Y-6.800
X10.100Y-6.900
X10.100Y-7.200
X10.100Y-7.300
X10.100Y-7.600
X10.100Y-7.700
X10.100Y-8.000
X10.100Y-8.700
X10.100Y-9.000
X10.200Y-1.200
X10.200Y-1.500
X10.200Y-1.700
X10.200Y-2.000
X10.200Y-2.200
X10.200Y-2.500
X10.200Y-2.700
X10.200Y-3.000
X10.200Y-3.200
X10.200Y-3.500
X10.200Y-3.700
X10.200Y-4.000
X10.200Y-4.200
X10.200Y-4.500
X10.200Y-4.700
X10.200Y-4.900
X10.200Y-5.200
X10.200Y-5.300
X10.200Y-5.600
X10.200Y-5.700
X10.200Y-6.000
X10.200Y-6.100
X10.200Y-6.400
X10.200Y-6.500
X10.200Y-6.800
X10.200Y-6.900
X10.200Y-7.200
X10.200Y-7.300
X10.200Y-7.600
X10.200Y-7.700
X10.200Y-8.000
X10.200Y-8.700
X10.200Y-9.000
X10.300Y-1.200
X10.300Y-1.500
X10.300Y-1.700
X10.300Y-2.000
X10.300Y-2.200
X10.300Y-2.500
X10.300Y-2.700
X10.300Y-3.000
X10.300Y-3.200
X10.300Y-3.500
X10.300Y-3.700
X10.300Y-4.000
X10.300Y-4.200
X10.300Y-4.500
X10.300Y-4.700
X10.300Y-4.900
X10.300Y-5.200
X10.300Y-5.300
X10.300Y-5.600
X10.300Y-5.700
X10.300Y-6.000
X10.300Y-6.100
X10.300Y-6.400
X10.300Y-6.500
X10.300Y-6.800
X10.300Y-6.900
X10.300Y-7.200
X10.300Y-7.300
X10.300Y-7.600
X10.300Y-7.700
X10.300Y-8.000
X10.300Y-8.700
X10.300Y-9.000
X10.400Y-1.200
X10.400Y-1.500
X10.400Y-1.700
X10.400Y-2.000
X10.400Y-2.200
X10.400Y-2.500
X10.400Y-2.700
X10.400Y-3.000
X10.400Y-3.200
X10.400Y-3.500
X10.400Y-3.700
X10.400Y-4.000
X10.400Y-4.200
X10.400Y-4.500
X10.400Y-4.700
X10.400Y-4.900
X10.400Y-5.200
X10.400Y-5.300
X10.400Y-5.600
X10.400Y-5.700
X10.400Y-6.000
X10.400Y-6.100
X10.400Y-6.400
X10.400Y-6.500
X10.400Y-6.800
X10.400Y-6.900
X10.400Y-7.200
X10.400Y-7.300
X10.400Y-7.600
X10.400Y-7.700
X10.400Y-8.000
X10.400Y-8.700
X10.400Y-9.000
X10.500Y-1.200
X10.500Y-1.500
X10.500Y-2.200
X10.500Y-2.500
X10.500Y-2.700
X10.500Y-3.000
X10.500Y-4.200
X10.500Y-4.500
X10.500Y-4.900
X10.500Y-5.200
X10.500Y-5.300
X10.500Y-5.600
X10.500Y-5.700
X10.500Y-6.000
X10.500Y-6.100
X10.500Y-6.400
X10.500Y-6.500
X10.500Y-6.800
X10.500Y-6.900
X10.500Y-7.200
X10.500Y-7.300
X10.500Y-7.600
X10.500Y-7.700
X10.500Y-8.000
X10.500Y-8.700
X10.500Y-9.000
X10.650Y-5.300
X10.650Y-5.400
X10.650Y-5.500
X10.650Y-6.100
X10.650Y-6.200
X10.650Y-6.300
X10.650Y-6.900
X10.650Y-7.000
X10.650Y-7.100
X10.650Y-7.700
X10.650Y-7.800
X10.650Y-7.900
X10.650Y-8.600
X10.650Y-8.700
X10.650Y-8.800
X10.800Y-1.200
X10.800Y-1.500
X10.800Y-1.700
X10.800Y-2.000
X10.800Y-2.200
X10.800Y-2.500
X10.800Y-2.700
X10.800Y-3.000
X10.800Y-3.200
X10.800Y-3.500
X10.800Y-3.700
X10.800Y-4.000
X10.800Y-4.200
X10.800Y-4.500
X10.800Y-4.900
X10.800Y-5.200
X10.800Y-5.300
X10.800Y-5.600
X10.800Y-5.700
X10.800Y-6.000
X10.800Y-6.100
X10.800Y-6.400
X10.800Y-6.500
X10.800Y-6.800
X10.800Y-6.900
X10.800Y-7.200
X10.800Y-7.300
X10.800Y-7.600
X10.800Y-7.700
X10.800Y-8.000
X10.800Y-8.700
X10.800Y-9.000
X10.800Y-9.100
X10.900Y-1.200
X10.900Y-1.500
X10.900Y-1.700
X10.900Y-2.000
X10.900Y-2.200
X10.900Y-2.500
X10.900Y-2.700
X10.900Y-3.000
X10.900Y-3.200
X10.900Y-3.500
X10.900Y-3.700
X10.900Y-4.000
X10.900Y-4.200
X10.900Y-4.500
X10.900Y-4.900
X10.900Y-5.200
X10.900Y-5.300
X10.900Y-5.600
X10.900Y-5.700
X10.900Y-6.000
X10.900Y-6.100
X10.900Y-6.400
X10.900Y-6.500
X10.900Y-6.800
X10.900Y-6.900
X10.900Y-7.200
X10.900Y-7.300
X10.900Y-7.600
X10.900Y-7.700
X10.900Y-8.000
X10.900Y-8.700
X10.900Y-9.000
X10.900Y-9.100
X11.000Y-1.200
X11.000Y-1.500
X11.000Y-1.700
X11.000Y-2.000
X11.000Y-2.200
X11.000Y-2.500
X11.000Y-2.700
X11.000Y-3.000
X11.000Y-3.200
X11.000Y-3.500
X11.000Y-3.700
X11.000Y-4.000
X11.000Y-4.200
X11.000Y-4.500
X11.000Y-4.900
X11.000Y-5.200
X11.000Y-5.300
X11.000Y-5.600
X11.000Y-5.700
X11.000Y-6.000
X11.000Y-6.100
X11.000Y-6.400
X11.000Y-6.500
X11.000Y-6.800
X11.000Y-6.900
X11.000Y-7.200
X11.000Y-7.300
X11.000Y-7.600
X11.000Y-7.700
X11.000Y-8.000
X11.000Y-8.700
X11.000Y-9.000
X11.000Y-9.100
X11.100Y-1.200
X11.100Y-1.500
X11.100Y-1.700
X11.100Y-2.000
X11.100Y-2.200
X11.100Y-2.500
X11.100Y-2.700
X11.100Y-3.000
X11.100Y-3.200
X11.100Y-3.500
X11.100Y-3.700
X11.100Y-4.000
X11.100Y-4.200
X11.100Y-4.500
X11.100Y-4.900
X11.100Y-5.200
X11.100Y-5.300
X11.100Y-5.600
X11.100Y-5.700
X11.100Y-6.000
X11.100Y-6.100
X11.100Y-6.400
X11.100Y-6.500
X11.100Y-6.800
X11.100Y-6.900
X11.100Y-7.200
X11.100Y-7.300
X11.100Y-7.600
X11.100Y-7.700
X11.100Y-8.000
X11.100Y-8.700
X11.100Y-9.000
X11.200Y-1.200
X11.200Y-1.500
X11.200Y-1.700
X11.200Y-2.000
X11.200Y-2.200
X11.200Y-2.500
X11.200Y-2.700
X11.200Y-3.000
X11.200Y-3.200
X11.200Y-3.500
X11.200Y-3.700
X11.200Y-4.000
X11.200Y-4.200
X11.200Y-4.500
X11.200Y-4.900
X11.200Y-5.200
X11.200Y-5.300
X11.200Y-5.600
X11.200Y-5.700
X11.200Y-6.000
X11.200Y-6.100
X11.200Y-6.400
X11.200Y-6.500
X11.200Y-6.800
X11.200Y-6.900
X11.200Y-7.200
X11.200Y-7.300
X11.200Y-7.600
X11.200Y-7.700
X11.200Y-8.000
X11.200Y-8.700
X11.200Y-9.000
X11.300Y-1.200
X11.300Y-1.500
X11.300Y-1.700
X11.300Y-2.000
X11.300Y-2.200
X11.300Y-2.500
X11.300Y-2.700
X11.300Y-3.000
X11.300Y-3.200
X11.300Y-3.500
X11.300Y-3.700
X11.300Y-4.000
X11.300Y-4.200
X11.300Y-4.500
X11.300Y-4.900
X11.300Y-5.200
X11.300Y-5.300
X11.300Y-5.600
X11.300Y-5.700
X11.300Y-6.000
X11.300Y-6.100
X11.300Y-6.400
X11.300Y-6.500
X11.300Y-6.800
X11.300Y-6.900
X11.300Y-7.200
X11.300Y-7.300
X11.300Y-7.600
X11.300Y-7.700
X11.300Y-8.000
X11.300Y-8.700
X11.300Y-9.000
X11.400Y-1.200
X11.400Y-1.500
X11.400Y-1.700
X11.400Y-2.000
X11.400Y-2.200
X11.400Y-2.500
X11.400Y-2.700
X11.400Y-3.000
X11.400Y-3.200
X11.400Y-3.500
X11.400Y-3.700
X11.400Y-4.000
X11.400Y-4.200
X11.400Y-4.500
X11.400Y-4.900
X11.400Y-5.200
X11.400Y-5.300
X11.400Y-5.600
X11.400Y-5.700
X11.400Y-6.000
X11.400Y-6.100
X11.400Y-6.400
X11.400Y-6.500
X11.400Y-6.800
X11.400Y-6.900
X11.400Y-7.200
X11.400Y-7.300
X11.400Y-7.600
X11.400Y-7.700
X11.400Y-8.000
X11.400Y-8.700
X11.400Y-9.000
X11.500Y-3.700
X11.500Y-4.000
X11.500Y-4.200
X11.500Y-4.500
X11.500Y-4.900
X11.500Y-5.200
X11.500Y-5.300
X11.500Y-5.600
X11.500Y-5.700
X11.500Y-6.000
X11.500Y-6.100
X11.500Y-6.400
X11.500Y-6.500
X11.500Y-6.800
X11.500Y-6.900
X11.500Y-7.200
X11.500Y-7.300
X11.500Y-7.600
X11.500Y-7.700
X11.500Y-8.000
X11.500Y-8.700
X11.500Y-9.000
X11.650Y-4.900
X11.650Y-5.000
X11.650Y-5.100
X11.650Y-5.700
X11.650Y-5.800
X11.650Y-5.900
X11.650Y-6.500
X11.650Y-6.600
X11.650Y-6.700
X11.650Y-7.300
X11.650Y-7.400
X11.650Y-7.500
X11.650Y-8.600
X11.650Y-8.700
X11.650Y-8.800
X11.800Y-1.200
X11.800Y-1.500
X11.800Y-1.700
X11.800Y-2.000
X11.800Y-2.200
X11.800Y-2.500
X11.800Y-2.700
X11.800Y-3.000
X11.800Y-3.200
X11.800Y-3.500
X11.800Y-3.700
X11.800Y-4.000
X11.800Y-4.200
X11.800Y-4.500
X11.800Y-4.900
X11.800Y-5.200
X11.800Y-5.300
X11.800Y-5.600
X11.800Y-5.700
X11.800Y-6.000
X11.800Y-6.100
X11.800Y-6.400
X11.800Y-6.500
X11.800Y-6.800
X11.800Y-6.900
X11.800Y-7.200
X11.800Y-7.300
X11.800Y-7.600
X11.800Y-7.700
X11.800Y-8.000
X11.800Y-8.700
X11.800Y-9.000
X11.800Y-9.100
X11.900Y-1.200
X11.900Y-1.500
X11.900Y-1.700
X11.900Y-2.000
X11.900Y-2.200
X11.900Y-2.500
X11.900Y-2.700
X11.900Y-3.000
X11.900Y-3.200
X11.900Y-3.500
X11.900Y-3.700
X11.900Y-4.000
X11.900Y-4.200
X11.900Y-4.500
X11.900Y-4.900
X11.900Y-5.200
X11.900Y-5.300
X11.900Y-5.600
X11.900Y-5.700
X11.900Y-6.000
X11.900Y-6.100
X11.900Y-6.400
X11.900Y-6.500
X11.900Y-6.800
X11.900Y-6.900
X11.900Y-7.200
X11.900Y-7.300
X11.900Y-7.600
X11.900Y-7.700
X11.900Y-8.000
X11.900Y-8.700
X11.900Y-9.000
X11.900Y-9.100
X12.000Y-1.200
X12.000Y-1.500
X12.000Y-1.700
X12.000Y-2.000
X12.000Y-2.200
X12.000Y-2.500
X12.000Y-2.700
X12.000Y-3.000
X12.000Y-3.200
X12.000Y-3.500
X12.000Y-3.700
X12.000Y-4.000
X12.000Y-4.200
X12.000Y-4.500
X12.000Y-4.900
X12.000Y-5.200
X12.000Y-5.300
X12.000Y-5.600
X12.000Y-5.700
X12.000Y-6.000
X12.000Y-6.100
X12.000Y-6.400
X12.000Y-6.500
X12.000Y-6.800
X12.000Y-6.900
X12.000Y-7.200
X12.000Y-7.300
X12.000Y-7.600
X12.000Y-7.700
X12.000Y-8.000
X12.000Y-8.700
X12.000Y-9.000
X12.000Y-9.100
X12.100Y-1.200
X12.100Y-1.500
X12.100Y-1.700
X12.100Y-2.000
X12.100Y-2.200
X12.100Y-2.500
X12.100Y-2.700
X12.100Y-3.000
X12.100Y-3.200
X12.100Y-3.500
X12.100Y-3.700
X12.100Y-4.000
X12.100Y-4.200
X12.100Y-4.500
X12.100Y-4.900
X12.100Y-5.200
X12.100Y-5.300
X12.100Y-5.600
X12.100Y-5.700
X12.100Y-6.000
X12.100Y-6.100
X12.100Y-6.400
X12.100Y-6.500
X12.100Y-6.800
X12.100Y-6.900
X12.100Y-7.200
X12.100Y-7.300
X12.100Y-7.600
X12.100Y-7.700
X12.100Y-8.000
X12.100Y-8.700
X12.100Y-9.000
X12.200Y-1.200
X12.200Y-1.500
X12.200Y-1.700
X12.200Y-2.000
X12.200Y-2.200
X12.200Y-2.500
X12.200Y-2.700
X12.200Y-3.000
X12.200Y-4.200
X12.200Y-4.500
X12.200Y-4.900
X12.200Y-5.200
X12.200Y-5.300
X12.200Y-5.600
X12.200Y-5.700
X12.200Y-6.000
X12.200Y-6.100
X12.200Y-6.400
X12.200Y-6.500
X12.200Y-6.800
X12.200Y-6.900
X12.200Y-7.200
X12.200Y-7.300
X12.200Y-7.600
X12.200Y-7.700
X12.200Y-8.000
X12.200Y-8.700
X12.200Y-9.000
X12.300Y-1.200
X12.300Y-1.500
X12.300Y-1.700
X12.300Y-2.000
X12.300Y-2.200
X12.300Y-2.500
X12.300Y-2.700
X12.300Y-3.000
X12.300Y-3.600
X12.300Y-3.700
X12.300Y-3.800
X12.300Y-3.900
X12.300Y-4.000
X12.300Y-4.200
X12.300Y-4.500
X12.300Y-4.900
X12.300Y-5.200
X12.300Y-5.300
X12.300Y-5.600
X12.300Y-5.700
X12.300Y-6.000
X12.300Y-6.100
X12.300Y-6.400
X12.300Y-6.500
X12.300Y-6.800
X12.300Y-6.900
X12.300Y-7.200
X12.300Y-7.300
X12.300Y-7.600
X12.300Y-7.700
X12.300Y-8.000
X12.300Y-8.700
X12.300Y-9.000
X12.400Y-1.200
X12.400Y-1.500
X12.400Y-1.700
X12.400Y-2.000
X12.400Y-2.200
X12.400Y-2.500
X12.400Y-2.700
X12.400Y-3.000
X12.400Y-4.200
X12.400Y-4.500
X12.400Y-4.700
X12.400Y-4.900
X12.400Y-5.200
X12.400Y-5.300
X12.400Y-5.600
X12.400Y-5.700
X12.400Y-6.000
X12.400Y-6.100
X12.400Y-6.400
X12.400Y-6.500
X12.400Y-6.800
X12.400Y-6.900
X12.400Y-7.200
X12.400Y-7.300
X12.400Y-7.600
X12.400Y-7.700
X12.400Y-8.000
X12.400Y-8.700
X12.400Y-9.000
X12.500Y-1.700
X12.500Y-2.000
X12.500Y-4.700
X12.500Y-4.900
X12.500Y-5.200
X12.500Y-5.300
X12.500Y-5.600
X12.500Y-5.700
X12.500Y-6.000
X12.500Y-6.100
X12.500Y-6.400
X12.500Y-6.500
X12.500Y-6.800
X12.500Y-6.900
X12.500Y-7.200
X12.500Y-7.300
X12.500Y-7.600
X12.500Y-7.700
X12.500Y-8.000
X12.500Y-8.700
X12.500Y-9.000
X12.550Y-4.100
X12.550Y-4.600
X12.600Y-4.700
X12.640Y-1.500
X12.640Y-1.600
X12.640Y-1.700
X12.650Y-5.300
X12.650Y-5.400
X12.650Y-5.500
X12.650Y-6.100
X12.650Y-6.200
X12.650Y-6.300
X12.650Y-7.700
X12.650Y-7.800
X12.650Y-7.900
X12.800Y-2.600
X12.800Y-3.400
X12.800Y-3.600
X12.800Y-3.700
X12.800Y-3.800
X12.800Y-3.900
X12.800Y-4.000
X12.800Y-6.400
X12.800Y-7.200
T3
X1.075Y-8.500
X1.150Y-8.600
X1.225Y-8.550
X1.300Y-6.075
X1.300Y-6.500
X1.350Y-3.075
X1.425Y-6.350
X1.425Y-8.300
X1.475Y-8.950
X1.525Y-8.475
X1.600Y-6.075
X1.600Y-6.800
X1.600Y-8.300
X1.600Y-8.875
X1.700Y-2.000
X1.700Y-5.900
X1.700Y-6.300
X1.700Y-7.300
X1.775Y-2.700
X1.775Y-4.900
X1.775Y-8.475
X1.775Y-9.075
X1.800Y-5.300
X1.850Y-1.725
X1.875Y-6.050
X1.875Y-6.450
X1.875Y-8.550
X1.875Y-9.200
X1.950Y-5.575
X2.000Y-3.875
X2.000Y-5.300
X2.000Y-7.750
X2.050Y-2.850
X2.050Y-4.550
X2.100Y-4.225
X2.100Y-5.775
X2.150Y-3.750
X2.250Y-3.700
X2.300Y-1.975
X2.300Y-4.050
X2.350Y-3.675
X2.400Y-5.900
X2.450Y-3.650
X2.500Y-5.550
X2.550Y-3.625
X2.550Y-6.050
X2.550Y-9.025
X2.600Y-1.700
X2.600Y-2.575
X2.650Y-3.600
X2.700Y-4.600
X2.750Y-1.875
X2.750Y-2.675
X2.750Y-3.575
X2.750Y-9.025
X2.800Y-2.025
X2.800Y-2.575
X2.800Y-3.875
X2.800Y-5.900
X2.800Y-6.800
X2.825Y-1.650
X2.850Y-4.850
X2.850Y-5.275
X2.900Y-2.100
X2.950Y-5.275
X2.950Y-5.700
X3.000Y-4.325
X3.050Y-2.200
X3.050Y-3.950
X3.050Y-5.275
X3.075Y-5.025
X3.100Y-4.375
X3.150Y-3.975
X3.150Y-5.025
X3.200Y-4.975
X3.200Y-5.575
X3.250Y-6.050
X3.300Y-4.925
X3.400Y-1.500
X3.400Y-4.425
X3.400Y-4.925
X3.450Y-1.600
X3.450Y-1.750
X3.450Y-2.625
X3.450Y-4.475
X3.500Y-4.275
X3.500Y-5.525
X3.550Y-1.500
X3.550Y-2.675
X3.550Y-3.875
X3.600Y-3.500
X3.600Y-5.650
X3.650Y-4.550
X3.700Y-2.275
X3.700Y-2.850
X3.700Y-5.050
X3.700Y-5.575
X3.750Y-4.500
X3.750Y-7.025
X3.800Y-2.200
X3.800Y-4.000
X3.800Y-5.050
X3.825Y-3.400
X3.850Y-6.750
X3.850Y-7.150
X3.900Y-3.450
X3.950Y-1.275
X3.950Y-2.275
X3.950Y-5.550
X3.950Y-6.825
X3.975Y-3.400
X4.000Y-2.400
X4.050Y-1.950
X4.050Y-2.650
X4.050Y-3.450
X4.050Y-5.575
X4.050Y-6.875
X4.075Y-2.375
X4.100Y-2.850
X4.150Y-2.650
X4.150Y-3.075
X4.150Y-5.600
X4.150Y-6.925
X4.175Y-3.000
X4.200Y-2.150
X4.200Y-7.050
X4.225Y-3.900
X4.225Y-4.175
X4.250Y-4.900
X4.250Y-5.625
X4.300Y-4.275
X4.350Y-3.450
X4.350Y-3.800
X4.350Y-5.150
X4.350Y-5.900
X4.425Y-1.275
X4.450Y-4.275
X4.450Y-5.875
X4.500Y-2.550
X4.550Y-4.225
X4.550Y-4.900
X4.550Y-5.850
X4.575Y-1.700
X4.575Y-2.525
X4.625Y-3.900
X4.650Y-1.275
X4.650Y-2.575
X4.650Y-5.825
X4.700Y-2.300
X4.750Y-3.825
X4.750Y-4.150
X4.750Y-5.800
X4.800Y-4.100
X4.850Y-3.800
X4.850Y-5.775
X4.900Y-2.200
X4.900Y-4.850
X4.950Y-3.800
X4.950Y-5.750
X5.000Y-1.600
X5.050Y-2.350
X5.050Y-3.575
X5.050Y-5.725
X5.100Y-2.225
X5.100Y-4.275
X5.125Y-5.400
X5.150Y-3.875
X5.200Y-2.025
X5.200Y-2.800
X5.200Y-3.200
X5.200Y-4.300
X5.250Y-5.350
X5.250Y-5.450
X5.250Y-8.600
X5.250Y-8.675
X5.250Y-8.750
X5.250Y-8.825
X5.325Y-2.275
X5.325Y-4.450
X5.350Y-4.650
X5.350Y-4.850
X5.375Y-3.300
X5.400Y-4.300
X5.400Y-4.525
X5.400Y-4.800
X5.400Y-7.200
X5.425Y-6.075
X5.450Y-4.750
X5.450Y-7.300
X5.475Y-1.075
X5.475Y-1.900
X5.475Y-2.000
X5.475Y-4.575
X5.475Y-7.000
X5.500Y-4.000
X5.525Y-2.775
X5.525Y-6.025
X5.525Y-6.175
X5.550Y-1.075
X5.575Y-1.175
X5.600Y-1.400
X5.600Y-2.325
X5.600Y-3.100
X5.650Y-1.175
X5.650Y-1.525
X5.650Y-3.350
X5.650Y-6.775
X5.700Y-4.875
X5.700Y-5.300
X5.700Y-6.600
X5.700Y-7.325
X5.725Y-9.250
X5.750Y-2.425
X5.750Y-7.400
X5.800Y-1.525
X5.800Y-3.100
X5.800Y-7.300
X5.825Y-5.350
X5.825Y-9.250
X5.850Y-1.650
X5.900Y-2.800
X5.900Y-3.400
X5.900Y-4.825
X5.900Y-9.250
X5.950Y-1.600
X6.000Y-9.100
X6.050Y-1.575
X6.050Y-3.375
X6.050Y-3.650
X6.050Y-5.600
X6.100Y-1.875
X6.100Y-2.325
X6.100Y-2.825
X6.100Y-4.875
X6.150Y-3.150
X6.175Y-3.775
X6.200Y-1.550
X6.200Y-1.900
X6.200Y-2.325
X6.200Y-4.875
X6.200Y-6.850
X6.225Y-5.575
X6.250Y-4.575
X6.300Y-2.350
X6.350Y-3.150
X6.400Y-5.375
X6.400Y-6.850
X6.425Y-5.075
X6.450Y-4.000
X6.475Y-2.425
X6.475Y-4.175
X6.500Y-1.850
X6.500Y-8.500
X6.525Y-1.475
X6.525Y-4.575
X6.550Y-5.375
X6.575Y-3.200
X6.575Y-4.175
X6.575Y-4.400
X6.600Y-1.300
X6.600Y-1.850
X6.600Y-5.200
X6.625Y-1.500
X6.625Y-3.275
X6.625Y-3.500
X6.625Y-4.000
X6.650Y-2.025
X6.675Y-4.400
X6.675Y-4.575
X6.675Y-5.350
X6.700Y-1.900
X6.700Y-2.400
X6.700Y-5.500
X6.750Y-5.550
X6.775Y-2.650
X6.800Y-3.225
X6.800Y-9.075
X6.850Y-5.500
X6.900Y-3.325
X6.900Y-4.425
X6.900Y-4.600
X6.900Y-6.300
X6.900Y-7.250
X6.900Y-8.200
X6.925Y-7.100
X6.950Y-5.500
X7.000Y-2.825
X7.000Y-4.850
X7.000Y-5.100
X7.000Y-6.950
X7.100Y-3.150
X7.100Y-3.250
X7.100Y-4.600
X7.125Y-4.950
X7.150Y-9.000
X7.175Y-3.900
X7.175Y-4.000
X7.175Y-5.500
X7.175Y-6.300
X7.200Y-2.825
X7.200Y-4.900
X7.200Y-6.600
X7.200Y-6.900
X7.200Y-7.100
X7.250Y-3.450
X7.275Y-4.750
X7.275Y-7.900
X7.300Y-1.775
X7.300Y-3.100
X7.350Y-1.200
X7.375Y-3.550
X7.400Y-1.500
X7.400Y-2.650
X7.400Y-3.300
X7.400Y-4.875
X7.400Y-6.225
X7.425Y-1.800
X7.425Y-1.900
X7.450Y-3.500
X7.450Y-4.300
X7.500Y-4.675
X7.500Y-4.800
X7.550Y-2.650
X7.550Y-6.200
X7.550Y-7.150
X7.600Y-1.200
X7.600Y-4.700
X7.650Y-4.775
X7.650Y-6.175
X7.700Y-6.900
X7.725Y-2.800
X7.750Y-2.475
X7.750Y-3.100
X7.750Y-4.175
X7.750Y-5.700
X7.750Y-6.150
X7.750Y-6.325
X7.750Y-7.150
X7.800Y-7.700
X7.825Y-2.750
X7.850Y-1.750
X7.850Y-3.500
X7.850Y-5.975
X7.900Y-4.800
X7.950Y-2.525
X7.950Y-6.000
X8.000Y-3.300
X8.000Y-3.500
X8.000Y-4.850
X8.050Y-1.200
X8.050Y-2.750
X8.050Y-3.850
X8.050Y-6.000
X8.100Y-5.400
X8.100Y-7.800
X8.150Y-3.850
X8.150Y-6.075
X8.175Y-1.200
X8.175Y-2.700
X8.200Y-3.150
X8.200Y-3.500
X8.200Y-5.375
X8.200Y-7.575
X8.225Y-3.875
X8.275Y-1.200
X8.300Y-1.800
X8.300Y-3.150
X8.300Y-5.375
X8.300Y-7.525
X8.325Y-3.900
X8.350Y-5.300
X8.400Y-2.875
X8.400Y-3.500
X8.400Y-3.850
X8.400Y-5.375
X8.425Y-3.150
X8.450Y-1.450
X8.450Y-2.500
X8.450Y-3.925
X8.450Y-5.300
X8.450Y-7.900
X8.500Y-1.750
X8.500Y-3.500
X8.500Y-4.775
X8.500Y-4.875
X8.500Y-5.375
X8.500Y-8.100
X8.500Y-9.225
X8.525Y-2.875
X8.525Y-3.150
X8.550Y-4.925
X8.550Y-5.100
X8.550Y-8.175
X8.550Y-8.275
X8.575Y-5.275
X8.600Y-3.125
X8.600Y-4.000
X8.600Y-4.400
X8.600Y-5.650
X8.600Y-8.350
X8.600Y-8.450
X8.600Y-8.550
X8.625Y-6.050
X8.650Y-2.875
X8.650Y-5.400
X8.650Y-6.450
X8.650Y-8.600
X8.675Y-3.450
X8.675Y-6.850
X8.675Y-8.800
X8.700Y-1.825
X8.700Y-2.000
X8.700Y-2.675
X8.700Y-3.125
X8.700Y-3.575
X8.700Y-3.975
X8.700Y-7.150
X8.700Y-7.650
X8.725Y-3.350
X8.725Y-7.525
X8.750Y-1.525
X8.750Y-5.450
X8.750Y-6.250
X8.750Y-6.650
X8.800Y-2.075
X8.800Y-2.150
X8.800Y-2.450
X8.800Y-2.675
X8.800Y-2.800
X8.800Y-3.600
X8.800Y-9.225
X8.850Y-1.897
X8.850Y-5.000
X8.850Y-5.800
X8.850Y-8.600
X8.900Y-2.775
X8.900Y-3.600
X8.900Y-4.775
X8.900Y-6.650
X8.900Y-7.400
X8.950Y-1.425
X8.950Y-1.875
X9.050Y-2.550
X9.050Y-3.600
X9.100Y-9.100
X9.150Y-3.325
X9.150Y-4.400
X9.200Y-1.900
X9.200Y-4.600
X9.200Y-8.250
X9.250Y-6.200
X9.350Y-2.925
X9.400Y-4.400
X9.400Y-8.200
X9.450Y-1.600
X9.450Y-8.300
X9.550Y-3.750
X9.575Y-3.575
X9.575Y-4.675
X9.600Y-2.875
X9.600Y-4.025
X9.625Y-1.725
X9.625Y-4.725
X9.650Y-1.250
X9.675Y-1.450
X9.675Y-2.025
X9.675Y-2.400
X9.725Y-1.675
X9.725Y-1.875
X9.725Y-4.700
X9.750Y-5.800
X9.800Y-2.400
X9.800Y-3.325
X9.850Y-5.400
X9.850Y-5.800
X9.850Y-6.200
X9.850Y-6.975
X9.850Y-7.400
X9.850Y-8.600
X9.900Y-1.825
X9.900Y-3.325
X9.900Y-4.800
X10.000Y-2.350
X10.000Y-2.875
X10.000Y-4.325
X10.050Y-3.325
X10.050Y-3.425
X10.050Y-3.775
X10.050Y-4.700
X10.050Y-5.000
X10.100Y-9.100
X10.150Y-1.925
X10.200Y-3.125
X10.200Y-3.300
X10.200Y-8.250
X10.250Y-6.200
X10.325Y-1.850
X10.350Y-1.400
X10.350Y-3.400
X10.350Y-4.125
X10.400Y-4.350
X10.400Y-8.200
X10.450Y-1.375
X10.450Y-1.850
X10.450Y-3.325
X10.450Y-8.300
X10.500Y-1.675
X10.500Y-4.075
X10.500Y-4.650
X10.500Y-5.100
X10.525Y-1.850
X10.550Y-2.100
X10.550Y-5.000
X10.575Y-1.375
X10.575Y-3.450
X10.600Y-3.300
X10.600Y-4.650
X10.625Y-2.625
X10.650Y-1.525
X10.650Y-3.150
X10.675Y-4.450
X10.700Y-2.250
X10.700Y-3.200
X10.700Y-4.550
X10.700Y-9.050
X10.725Y-4.275
X10.725Y-4.750
X10.750Y-3.125
X10.750Y-3.325
X10.750Y-6.600
X10.800Y-3.825
X10.800Y-4.750
X10.850Y-1.875
X10.850Y-8.600
X10.900Y-3.400
X10.900Y-4.350
X10.900Y-5.800
X10.900Y-6.650
X10.925Y-3.800
X10.950Y-2.650
X11.000Y-2.325
X11.000Y-3.325
X11.000Y-3.875
X11.050Y-4.350
X11.050Y-4.775
X11.100Y-1.350
X11.100Y-9.100
X11.150Y-3.325
X11.150Y-3.875
X11.150Y-4.275
X11.200Y-2.300
X11.200Y-3.100
X11.200Y-8.250
X11.250Y-1.875
X11.250Y-2.875
X11.250Y-6.225
X11.300Y-3.325
X11.300Y-3.800
X11.350Y-2.300
X11.350Y-4.425
X11.400Y-4.375
X11.400Y-8.200
X11.450Y-1.600
X11.450Y-5.000
X11.450Y-8.300
X11.475Y-1.275
X11.475Y-2.650
X11.500Y-3.375
X11.525Y-1.175
X11.550Y-2.475
X11.550Y-3.775
X11.550Y-4.075
X11.550Y-5.850
X11.575Y-5.000
X11.600Y-3.100
X11.625Y-4.800
X11.675Y-4.675
X11.700Y-1.550
X11.700Y-2.500
X11.700Y-3.525
X11.700Y-3.625
X11.700Y-4.200
X11.725Y-1.225
X11.725Y-3.050
X11.750Y-3.575
X11.750Y-5.850
X11.750Y-6.200
X11.800Y-4.100
X11.850Y-1.350
X11.850Y-4.800
X11.850Y-5.400
X11.850Y-6.200
X11.850Y-6.600
X11.850Y-7.400
X11.900Y-1.850
X11.900Y-3.100
X11.925Y-2.375
X11.950Y-1.425
X11.950Y-2.775
X11.950Y-2.875
X11.950Y-4.350
X12.000Y-3.400
X12.000Y-5.850
X12.050Y-1.900
X12.050Y-2.400
X12.050Y-2.600
X12.050Y-4.650
X12.100Y-3.600
X12.100Y-8.350
X12.100Y-9.100
X12.150Y-1.900
X12.150Y-2.050
X12.150Y-3.450
X12.150Y-4.775
X12.200Y-1.350
X12.200Y-2.350
X12.200Y-2.600
X12.200Y-2.825
X12.250Y-4.125
X12.250Y-4.725
X12.250Y-6.250
X12.250Y-8.350
X12.350Y-3.100
X12.400Y-4.600
X12.400Y-8.450
X12.450Y-1.800
X12.450Y-2.900
X12.550Y-1.525
X12.550Y-2.350
X12.550Y-2.500
X12.575Y-3.125
X12.600Y-3.050
X12.600Y-7.650
X12.600Y-8.000
X12.650Y-4.300
X12.650Y-8.550
X12.675Y-3.275
X12.700Y-1.950
X12.700Y-3.900
X12.750Y-2.100
T4
X1.400Y-4.200
X1.400Y-4.400
X1.400Y-4.600
X1.400Y-4.900
X1.700Y-4.200
X1.700Y-4.400
X1.700Y-4.600
X1.700Y-4.900
T5
X8.300Y-1.400
X8.400Y-1.400
X8.600Y-1.400
X12.550Y-8.175
X12.550Y-8.275
X12.550Y-8.375
X12.550Y-8.475
X12.700Y-4.900
X12.700Y-5.000
X12.800Y-4.900
X12.800Y-5.000
X12.825Y-4.325
X12.825Y-4.425
T6
X1.100Y-6.900
X1.100Y-7.400
T7
X1.106Y-2.403
X1.106Y-2.600
X1.106Y-2.797
X1.106Y-3.303
X1.106Y-3.500
X1.106Y-3.697
X1.500Y-2.305
X1.500Y-2.600
X1.500Y-2.895
X1.500Y-3.205
X1.500Y-3.500
X1.500Y-3.795
X1.598Y-2.403
X1.598Y-2.797
X1.598Y-3.303
X1.598Y-3.697
T8
X2.360Y-1.150
X3.310Y-1.150
T9
X2.126Y-1.250
X2.282Y-1.250
X2.438Y-1.250
X2.594Y-1.250
X2.750Y-1.250
X3.076Y-1.250
X3.232Y-1.250
X3.388Y-1.250
X3.544Y-1.250
X3.700Y-1.250
T10
X1.971Y-1.250
X2.921Y-1.250
X4.300Y-1.300
X4.300Y-1.600
X4.600Y-1.450
T11
X1.375Y-1.200
X1.375Y-5.800
X1.375Y-8.800
X7.000Y-1.200
X7.000Y-5.800
X7.000Y-8.800
X12.800Y-1.200
X12.800Y-5.800
X12.800Y-8.800
T0
M30
